<svg preserveAspectRatio="none" width="100%" height="100%" overflow="visible" style="display: block;" viewBox="0 0 14 33" fill="none" xmlns="http://www.w3.org/2000/svg">
<g id="Vector">
<path d="M8.11883 30.4794C9.73875 30.4794 11.052 31.7397 11.052 31.7397C11.052 31.7397 9.73875 33 8.11883 33C6.4989 33 5.18569 31.7397 5.18569 31.7397C5.18569 31.7397 6.4989 30.4794 8.11883 30.4794Z" fill="var(--fill-0, white)"/>
<path d="M9.80978 28.7841C9.80978 30.4082 11.0668 31.7248 11.0668 31.7248C11.0668 31.7248 12.3239 30.4082 12.3239 28.7841C12.3239 27.1601 11.0668 25.8435 11.0668 25.8435C11.0668 25.8435 9.80978 27.1601 9.80978 28.7841Z" fill="var(--fill-0, white)"/>
<path d="M9.37591 2.94066C9.37591 4.56474 8.11885 5.88132 8.11885 5.88132C8.11885 5.88132 6.8618 4.56474 6.8618 2.94066C6.8618 1.31658 8.11885 0 8.11885 0C8.11885 0 9.37591 1.31658 9.37591 2.94066Z" fill="var(--fill-0, white)"/>
<path d="M11.0669 4.63595C9.44694 4.63595 8.13373 5.89624 8.13373 5.89624C8.13373 5.89624 9.44694 7.15652 11.0669 7.15652C12.6868 7.15652 14 5.89624 14 5.89624C14 5.89624 12.6868 4.63595 11.0669 4.63595Z" fill="var(--fill-0, white)"/>
<path d="M7.08096 5.44105C7.36226 7.04046 6.35234 8.55588 6.35234 8.55588C6.35234 8.55588 4.88634 7.47815 4.60504 5.87874C4.32375 4.27933 5.33367 2.76391 5.33367 2.76391C5.33367 2.76391 6.79967 3.84164 7.08096 5.44105Z" fill="var(--fill-0, white)"/>
<path d="M9.03986 6.8162C7.44455 7.09822 6.36957 8.56798 6.36957 8.56798C6.36957 8.56798 7.88112 9.58049 9.47643 9.29847C11.0717 9.01645 12.1467 7.5467 12.1467 7.5467C12.1467 7.5467 10.6352 6.53418 9.03986 6.8162Z" fill="var(--fill-0, white)"/>
<path d="M5.25395 8.30295C5.808 9.82909 5.07589 11.4973 5.07589 11.4973C5.07589 11.4973 3.4455 10.6912 2.89146 9.16504C2.33741 7.6389 3.06951 5.97068 3.06951 5.97068C3.06951 5.97068 4.6999 6.77681 5.25395 8.30295Z" fill="var(--fill-0, white)"/>
<path d="M7.42127 9.31618C5.89904 9.87165 5.09496 11.5062 5.09496 11.5062C5.09496 11.5062 6.75891 12.2402 8.28115 11.6847C9.80338 11.1293 10.6075 9.4947 10.6075 9.4947C10.6075 9.4947 8.9435 8.76071 7.42127 9.31618Z" fill="var(--fill-0, white)"/>
<path d="M3.95039 11.4395C4.76035 12.846 4.32831 14.6163 4.32831 14.6163C4.32831 14.6163 2.58306 14.1062 1.7731 12.6997C0.963136 11.2932 1.39517 9.52292 1.39517 9.52292C1.39517 9.52292 3.14042 10.033 3.95039 11.4395Z" fill="var(--fill-0, white)"/>
<path d="M6.26027 12.06C4.85738 12.872 4.34863 14.6217 4.34863 14.6217C4.34863 14.6217 6.11443 15.0549 7.51733 14.2429C8.92023 13.4308 9.42897 11.6811 9.42897 11.6811C9.42897 11.6811 7.66317 11.2479 6.26027 12.06Z" fill="var(--fill-0, white)"/>
<path d="M3.2099 14.7553C4.25116 15.9994 4.13232 17.818 4.13232 17.818C4.13232 17.818 2.32524 17.6196 1.28397 16.3754C0.242705 15.1313 0.361552 13.3127 0.361552 13.3127C0.361552 13.3127 2.16863 13.5111 3.2099 14.7553Z" fill="var(--fill-0, white)"/>
<path d="M5.59217 14.9642C4.35123 16.0082 4.15328 17.8199 4.15328 17.8199C4.15328 17.8199 5.96727 17.939 7.20821 16.8951C8.44914 15.8511 8.6471 14.0394 8.6471 14.0394C8.6471 14.0394 6.8331 13.9203 5.59217 14.9642Z" fill="var(--fill-0, white)"/>
<path d="M3.05493 18.1496C4.29587 19.1935 4.49382 21.0053 4.49382 21.0053C4.49382 21.0053 2.67982 21.1244 1.43889 20.0805C0.197955 19.0365 0 17.2248 0 17.2248C0 17.2248 1.814 17.1057 3.05493 18.1496Z" fill="var(--fill-0, white)"/>
<path d="M5.4372 17.9406C4.39593 19.1848 4.51478 21.0034 4.51478 21.0034C4.51478 21.0034 6.32186 20.805 7.36313 19.5608C8.40439 18.3167 8.28555 16.4981 8.28555 16.4981C8.28555 16.4981 6.47847 16.6965 5.4372 17.9406Z" fill="var(--fill-0, white)"/>
<path d="M3.49026 21.5194C4.89316 22.3314 5.4019 24.0811 5.4019 24.0811C5.4019 24.0811 3.6361 24.5143 2.23321 23.7022C0.83031 22.8902 0.321566 21.1405 0.321566 21.1405C0.321566 21.1405 2.08737 20.7073 3.49026 21.5194Z" fill="var(--fill-0, white)"/>
<path d="M5.80015 20.8988C4.99019 22.3053 5.42223 24.0757 5.42223 24.0757C5.42223 24.0757 7.16747 23.5656 7.97744 22.1591C8.7874 20.7526 8.35536 18.9823 8.35536 18.9823C8.35536 18.9823 6.61011 19.4923 5.80015 20.8988Z" fill="var(--fill-0, white)"/>
<path d="M4.50263 24.7621C6.02486 25.3176 6.82893 26.9522 6.82893 26.9522C6.82893 26.9522 5.16498 27.6861 3.64275 27.1307C2.12052 26.5752 1.31644 24.9406 1.31644 24.9406C1.31644 24.9406 2.98039 24.2066 4.50263 24.7621Z" fill="var(--fill-0, white)"/>
<path d="M6.66994 23.7489C6.1159 25.275 6.848 26.9432 6.848 26.9432C6.848 26.9432 8.47839 26.1371 9.03244 24.611C9.58649 23.0848 8.85438 21.4166 8.85438 21.4166C8.85438 21.4166 7.22399 22.2227 6.66994 23.7489Z" fill="var(--fill-0, white)"/>
<path d="M6.06127 27.7794C7.65659 28.0614 8.73156 29.5311 8.73156 29.5311C8.73156 29.5311 7.22002 30.5437 5.6247 30.2616C4.02939 29.9796 2.95441 28.5099 2.95441 28.5099C2.95441 28.5099 4.46596 27.4973 6.06127 27.7794Z" fill="var(--fill-0, white)"/>
<path d="M8.02017 26.4042C7.73887 28.0036 8.74879 29.519 8.74879 29.519C8.74879 29.519 10.2148 28.4413 10.4961 26.8419C10.7774 25.2425 9.76746 23.7271 9.76746 23.7271C9.76746 23.7271 8.30146 24.8048 8.02017 26.4042Z" fill="var(--fill-0, white)"/>
</g>
</svg>
