<svg overflow="visible" style="display: block;" viewBox="0 0 67.0001 67" fill="none" xmlns="http://www.w3.org/2000/svg">
<g id="Vector">
<path d="M9.54183 0.0182209L62.6189 0C64.7682 0.136657 66.4766 1.58415 66.9052 3.69724C67.0461 21.8394 67.0113 40.0212 66.9223 58.1682C66.3566 62.7888 62.6473 66.4577 58.0089 66.9368C40.1393 67.0643 22.2562 66.9523 4.38119 66.993C2.25114 66.8574 0.505747 65.3998 0.0948456 63.2958C-0.0508718 45.1697 -0.0037279 27.005 0.070738 8.87199C0.667001 3.97002 4.61637 0.30011 9.54183 0.0182209ZM9.32754 1.73313C5.30746 2.05307 2.05507 5.3382 1.73149 9.35431L1.72881 62.7325C1.88042 64.1056 2.95455 65.149 4.32708 65.2781H57.4753C61.5951 65.0268 64.9648 61.7084 65.2702 57.5883V4.26102C65.1255 2.88748 64.0375 1.8446 62.6714 1.71545L9.32754 1.73313Z" fill="var(--fill-0, white)"/>
<path d="M11.9635 52.307L11.971 45.883C12.4424 45.8353 12.8978 45.7222 13.2781 46.0883L15.66 49.8954V46.01C15.66 45.7522 16.4132 45.8332 16.6136 45.9136C16.7684 45.9752 17.0528 46.2233 17.0528 46.3852V52.307H15.901L13.4255 48.5159L13.3028 48.4484V52.307H11.9635Z" fill="var(--fill-0, white)"/>
<path d="M13.6242 39.981V42.2854H12.2581C12.2522 42.2854 12.1777 42.2109 12.1777 42.2051V35.9885C12.1777 35.9585 12.2677 35.9065 12.3117 35.9081C13.5878 35.8738 15.9294 35.4976 16.5053 37.0191C16.8102 37.8245 16.5702 38.891 15.871 39.4151C15.7676 39.4928 15.4928 39.5496 15.5051 39.6777L16.9511 42.2072C16.0912 42.5947 15.5539 42.4559 15.0487 41.6922C14.6978 41.1622 14.4337 40.5652 14.0796 40.0357C13.959 39.9323 13.7747 39.995 13.6242 39.981ZM13.6242 38.9092C14.6255 39.0802 15.4494 38.474 15.0428 37.4097C14.9624 37.1997 14.6748 36.9263 14.4546 36.9263H13.6242V38.9092Z" fill="var(--fill-0, white)"/>
<path d="M32.696 45.9296C33.9298 45.7839 36.4895 45.503 37.007 47.0031C37.3413 47.9709 37.0135 49.1703 36.024 49.5802L36.0154 49.6515L37.4356 52.0411C37.5653 52.2732 37.0735 52.3472 36.9036 52.3627C36.6261 52.3879 36.2581 52.3793 36.0197 52.2239C35.4722 51.8659 34.975 50.5127 34.5598 49.9602L34.142 49.949V52.2266C34.142 52.2325 34.0675 52.307 34.0616 52.307H32.7759C32.77 52.307 32.6955 52.2325 32.6955 52.2266L32.696 45.9296ZM34.1425 48.9307C35.1165 49.0609 35.9468 48.4136 35.5472 47.3916C35.4679 47.1885 35.1234 46.8943 34.9193 46.8943H34.1425V48.9307Z" fill="var(--fill-0, white)"/>
<path d="M9.28483 45.876C9.81144 45.8192 10.3665 45.7544 10.6536 46.3021C10.6166 47.6242 10.7859 49.0974 10.6766 50.4039C10.5797 51.5637 9.7718 52.3246 8.61678 52.4163C4.49919 52.7432 5.98583 48.6799 5.69279 46.0615C5.64671 45.8401 6.13583 45.8187 6.30244 45.8267C6.80227 45.8509 7.0996 46.0995 7.14353 46.5974C7.24478 47.7399 7.03531 49.0476 7.14246 50.189C7.17567 50.5449 7.28389 50.8777 7.62033 51.0508C8.07516 51.2844 8.83482 51.2405 9.09357 50.7496C9.13643 50.6687 9.28429 50.2485 9.28429 50.1901L9.28483 45.876Z" fill="var(--fill-0, white)"/>
<path d="M11.4813 42.2854H9.98127L9.49322 40.7913C9.22857 40.8112 7.46389 40.7308 7.40389 40.8165L6.92763 42.2854H5.53475C5.54868 42.0196 5.66386 41.7581 5.74796 41.5073C6.32333 39.7988 6.9721 38.1112 7.55979 36.4065C7.99533 35.6509 9.03089 35.6675 9.43108 36.4312L11.4813 42.2854ZM7.73122 39.7131H9.09732C9.11929 39.7131 9.16643 39.6606 9.15625 39.6021C9.04 38.928 8.63767 38.085 8.45445 37.4081L7.73122 39.7131Z" fill="var(--fill-0, white)"/>
<path d="M28.9995 47.055V48.3948H30.9014C30.9073 48.3948 30.9817 48.4693 30.9817 48.4752V49.5738H28.9995V51.128H31.0621C31.2796 51.128 31.6208 51.3391 31.7194 51.5422C31.7933 51.6944 31.8566 52.2469 31.6974 52.2995L28.062 52.307C27.9034 52.3396 27.5531 52.0947 27.5531 51.9586V45.876H31.5442C31.6712 45.876 31.7317 46.7394 31.3176 46.9355C30.7658 47.1965 29.621 46.9811 28.9995 47.055Z" fill="var(--fill-0, white)"/>
<path d="M23.436 40.7383C23.5485 40.6718 23.9359 41.0014 24.0778 41.0727C24.6034 41.3358 25.7086 41.54 25.9829 40.8487C26.4045 39.787 24.6762 39.5839 24.035 39.2399C23.1757 38.7784 22.8762 37.8476 23.2576 36.9435C23.7483 35.7806 25.2773 35.6139 26.3627 35.8931C27.3329 36.1423 27.7716 36.6509 26.9295 37.4585C26.4763 37.0314 25.0105 36.6005 24.6725 37.287C24.2262 38.1938 26.0246 38.4821 26.5716 38.7924C28.1611 39.6938 27.6195 41.9837 25.903 42.3771C25.2077 42.5362 24.081 42.4848 23.4451 42.1348C23.1189 41.9548 22.9764 41.7645 23.0787 41.3733C23.0953 41.309 23.4049 40.757 23.436 40.7383Z" fill="var(--fill-0, white)"/>
<path d="M42.1061 49.1103C42.757 49.771 42.69 50.9924 42.1237 51.6891C41.3973 52.5835 39.668 52.6167 38.6822 52.1864C37.8288 51.8134 38.086 51.2914 38.5676 50.7024C39.1505 51.0513 39.5565 51.3402 40.2787 51.2898C41.1123 51.2319 41.4402 50.39 40.7587 49.8948C39.9208 49.286 38.491 49.4913 38.2188 48.0947C37.8245 46.069 40.0392 45.3969 41.6175 45.9275C42.2818 46.151 42.7146 46.4468 42.2545 47.1574C41.9796 47.5818 42.0471 47.4211 41.7343 47.2582C41.2232 46.9923 40.5455 46.7228 39.9862 47.032C39.7221 47.1783 39.5983 47.5288 39.7451 47.801C40.0478 48.3611 41.5285 48.524 42.1061 49.1103Z" fill="var(--fill-0, white)"/>
<path d="M23.6953 50.5385L24.9896 46.286C25.3695 45.704 25.9395 45.7962 26.5357 45.9302L24.6173 51.7014C24.1239 52.5996 23.054 52.6044 22.6153 51.6472C21.854 49.9865 21.509 47.8584 20.7622 46.1579L20.7563 45.9371C21.5347 45.7313 22.1272 45.7394 22.4492 46.562C22.9169 47.7571 23.1248 49.2056 23.5925 50.4023C23.6144 50.4586 23.6123 50.5315 23.6953 50.5395V50.5385Z" fill="var(--fill-0, white)"/>
<path d="M54.1251 49.8686L52.1509 46.1585C52.1113 45.943 52.7456 45.8273 52.9229 45.8208C53.2829 45.809 53.569 45.9677 53.7736 46.2544C54.1781 46.8208 54.4717 47.7689 54.822 48.3943C54.9137 48.4629 55.7869 46.5256 55.8828 46.3744C56.3124 45.6965 56.8492 45.7555 57.5521 45.9854C57.5987 46.0497 57.4578 46.2849 57.4208 46.3589C56.8466 47.5106 56.1689 48.6204 55.5715 49.7608V52.226C55.5715 52.2319 55.4971 52.3064 55.4912 52.3064H54.2054C54.1995 52.3064 54.1251 52.2319 54.1251 52.226V49.8686Z" fill="var(--fill-0, white)"/>
<path d="M49.3035 47.055V52.2266C49.3035 52.2325 49.2291 52.307 49.2232 52.307H47.9374C47.9315 52.307 47.8571 52.2325 47.8571 52.2266V47.055H45.9285C45.7602 46.5513 45.9536 46.0004 46.5038 45.8889C47.9214 45.9955 49.6684 45.7035 51.0473 45.8734C51.1288 45.8835 51.1941 45.8712 51.2247 45.9639C51.3355 46.2983 51.1432 47.055 50.7232 47.055H49.3035Z" fill="var(--fill-0, white)"/>
<path d="M22.5708 35.9081C22.648 36.2238 22.6667 36.6637 22.4069 36.8963C22.3614 36.9371 22.0999 37.0871 22.0619 37.0871H20.7226C20.6031 37.0871 20.6958 37.2125 20.6958 37.2211V42.2051C20.6958 42.211 20.6213 42.2854 20.6154 42.2854H19.2761C19.1566 42.2854 19.2493 42.16 19.2493 42.1515V37.1675C19.2493 37.1616 19.1749 37.0871 19.169 37.0871H17.2671C17.2752 36.7297 17.19 36.3663 17.4788 36.093C17.5152 36.0582 17.7573 35.9081 17.7761 35.9081H22.5708Z" fill="var(--fill-0, white)"/>
<path d="M35.2145 59.0058C35.2954 59.0905 35.3082 58.9753 35.334 58.9367C35.8107 58.2154 36.0974 56.986 36.5838 56.2228C36.6963 55.9243 37.4094 55.8558 37.4645 56.1382C37.5117 57.7395 37.696 59.3461 37.7624 60.9389C37.7056 61.0187 37.0868 61.0391 37.0429 60.9008L36.8201 57.4522L35.664 59.8054C35.4138 60.1607 35.0806 60.1323 34.8475 59.7749L33.768 57.5599L33.5457 60.9019C33.4916 61.0702 32.9596 60.9587 32.8026 60.9898L33.1482 56.0562C33.4134 55.9158 33.7112 55.9072 33.9207 56.1467C34.3579 57.0246 34.7447 57.9265 35.1716 58.8097C35.2022 58.8729 35.2075 58.9999 35.2145 59.0069V59.0058Z" fill="var(--fill-0, white)"/>
<path d="M27.0173 59.5953V56.0047C27.0173 55.9549 27.6795 55.8236 27.7625 56.4115C27.9484 57.7298 27.6313 59.4426 27.77 60.8038C27.8097 61.0889 27.1459 61.0262 27.0152 60.9105L24.7137 57.4517V60.9887C24.5118 60.948 24.0092 61.1023 23.9637 60.8547C24.0548 60.2952 23.8234 56.1752 24.0162 56.0305C24.1818 55.9061 24.5862 55.9576 24.7373 56.1151C25.5173 57.2614 26.1918 58.4823 27.0173 59.5953Z" fill="var(--fill-0, white)"/>
<path d="M6.0169 56.0047C6.92174 55.9528 8.88464 55.6703 9.1 56.9131C9.20768 57.5321 9.01696 57.9388 8.58838 58.3622C9.61376 58.6955 9.59822 60.3092 8.65428 60.7599C8.16837 60.9919 7.06371 61.0412 6.52316 60.9914C6.37584 60.978 6.0169 60.859 6.0169 60.694V56.0047ZM6.76691 56.6746C6.71281 56.8499 6.76691 57.7464 6.76691 58.0144C6.76691 58.1934 7.65997 58.0567 7.82283 57.9989C8.4432 57.7765 8.56213 56.8638 7.9364 56.6837C7.75265 56.6307 6.81995 56.5037 6.76691 56.6746ZM6.76691 58.7379V60.2116C6.76691 60.2175 6.84138 60.292 6.84727 60.292H7.75801C7.79015 60.292 8.07623 60.2036 8.12819 60.18C8.60017 59.9662 8.71481 59.3011 8.32266 58.9774C8.22837 58.8997 7.85497 58.7379 7.75854 58.7379H6.76691Z" fill="var(--fill-0, white)"/>
<path d="M39.0899 56.5058C39.7065 55.8515 40.8669 55.7143 41.6598 56.121C43.5498 57.0916 43.1041 61.7384 40.0242 61.0262C38.221 60.6093 37.989 57.6752 39.0899 56.5058ZM40.2894 56.6607C39.1355 56.8547 39.0931 58.829 39.4735 59.6489C39.7832 60.3172 40.538 60.5616 41.198 60.2491C42.1773 59.7856 42.2196 57.2936 41.2703 56.7791C40.9928 56.6285 40.5991 56.6087 40.2894 56.6607Z" fill="var(--fill-0, white)"/>
<path d="M11.8445 55.9126C13.9799 55.6548 14.589 57.7036 14.1873 59.4351C13.673 61.6527 10.5845 61.6993 10.0702 59.3724C9.75626 57.9533 10.1607 56.1157 11.8445 55.9126ZM11.7888 56.6607C10.4699 56.8858 10.4661 59.8863 11.6651 60.2958C12.6642 60.6371 13.3563 59.9372 13.4565 58.9726C13.583 57.7625 13.3204 56.3997 11.7888 56.6607Z" fill="var(--fill-0, white)"/>
<path d="M20.5351 60.9083C20.5018 61.016 19.7304 61.0761 19.7315 60.8547V56.1382C19.7636 55.9597 20.1311 55.9592 20.2918 55.9485C21.0172 55.8992 22.341 55.882 22.7224 56.6307C23.1548 57.4801 22.7931 58.5648 21.8754 58.8713C22.0019 59.1339 23.1858 60.7867 23.1601 60.904C23.114 61.1162 22.4519 61.0546 22.3051 60.9067L21.0981 59.0594C20.9642 58.9474 20.7076 59.0273 20.5361 59.0053V60.9078L20.5351 60.9083ZM20.5351 58.3092H21.3654C21.3842 58.3092 21.6751 58.1923 21.7099 58.1714C22.1476 57.9061 22.2451 57.143 21.8401 56.8166C21.7951 56.7807 21.5599 56.6478 21.5267 56.6478H20.5356L20.5351 58.3092Z" fill="var(--fill-0, white)"/>
<path d="M53.4286 58.0412H55.5715V56.0047C55.5715 55.9206 56.3478 55.957 56.3339 56.2872C56.4244 57.814 56.3585 59.3654 56.3676 60.9008C56.3162 61.0552 55.5715 61.0123 55.5715 60.9083V58.7379H53.4286V60.9887H52.6786V56.0047C52.8784 55.8622 53.4286 56.0685 53.4286 56.2995V58.0412Z" fill="var(--fill-0, white)"/>
<path d="M18.3386 45.876C18.7281 45.8562 19.2761 45.741 19.5718 46.0781C19.6329 46.1477 19.785 46.4714 19.785 46.5459V52.173C19.785 52.1907 19.7143 52.2544 19.7315 52.307H18.7404C18.6375 52.307 18.3386 52.0561 18.3386 51.9586V45.876Z" fill="var(--fill-0, white)"/>
<path d="M45.0177 52.307H44.0266C43.9238 52.307 43.6248 52.0562 43.6248 51.9586V45.876C44.0357 45.8396 44.4295 45.7544 44.7788 46.0347C44.8302 46.0759 45.0177 46.2887 45.0177 46.3316V52.307Z" fill="var(--fill-0, white)"/>
<path d="M18.0172 56.0047C18.1152 55.8515 18.6461 55.979 18.7495 56.2625C18.8963 56.6644 18.8513 58.5069 18.8229 59.0348C18.7961 59.5326 18.7618 60.0793 18.4441 60.478C17.8307 61.2497 16.1539 61.3381 15.5303 60.5551C15.3857 60.3735 15.1237 59.8402 15.1237 59.6221V56.0047C15.6905 55.8611 15.8882 56.143 15.9294 56.6725C15.9932 57.4951 15.8662 58.4094 15.9059 59.2266C15.9289 59.6993 16.0703 60.2416 16.6098 60.3322C17.1182 60.418 17.7477 60.3644 17.9373 59.8102C17.9502 59.7727 18.0166 59.4785 18.0166 59.4608L18.0172 56.0047Z" fill="var(--fill-0, white)"/>
<path d="M46.5178 56.0047C46.5279 55.9887 46.7513 55.9485 46.806 55.9527C47.1499 55.9785 47.286 56.1934 47.3219 56.5138C47.399 57.2079 47.3878 59.2073 47.2442 59.866C46.9517 61.2079 44.7965 61.5155 44.032 60.5551C43.8873 60.3735 43.6254 59.8402 43.6254 59.6221V56.0047C43.6254 55.9292 44.235 55.8927 44.3759 56.3038C44.4633 57.3622 44.2195 58.6596 44.475 59.6838C44.6422 60.3536 45.2722 60.4496 45.8786 60.322C46.2135 60.2518 46.5183 59.8483 46.5183 59.5149L46.5178 56.0047Z" fill="var(--fill-0, white)"/>
<path d="M29.696 56.7014V57.9608C29.696 57.9667 29.7704 58.0412 29.7763 58.0412H31.3567C31.3433 58.1618 31.4076 58.7379 31.2764 58.7379H29.696V60.292H31.6514C31.9733 60.292 32.1062 60.9887 31.9192 60.9887H28.946C28.9631 60.9362 28.8924 60.8724 28.8924 60.8547V56.0851C28.8924 56.0792 28.9669 56.0047 28.9727 56.0047H31.8121C32.0087 56.0047 31.8442 56.7014 31.4907 56.7014H29.696Z" fill="var(--fill-0, white)"/>
<path d="M51.9286 56.0047C52.0181 56.2073 51.7904 56.7014 51.5804 56.7014H50.3214V60.9887H49.5714V56.7014H48.0982C47.9224 56.7014 48.0065 56.0047 48.3124 56.0047H51.9286Z" fill="var(--fill-0, white)"/>
</g>
</svg>
