<svg overflow="visible" style="display: block;" viewBox="0 0 41.5625 46.8751" fill="none" xmlns="http://www.w3.org/2000/svg">
<path id="Vector" d="M22.5981 8.38648L30.0303 12.6695C30.2976 12.8198 30.3073 13.237 30.0303 13.3873L21.1991 18.4804C20.9319 18.6356 20.6161 18.6259 20.3684 18.4804L11.5371 13.3873C11.265 13.2418 11.2602 12.815 11.5371 12.6695L18.9645 8.38648V0L0 10.933V32.7991L7.27199 28.6082V20.0422C7.26714 19.7366 7.62659 19.5183 7.89378 19.6833L16.7251 24.7763C16.9923 24.9315 17.1429 25.208 17.1429 25.4942V35.6755C17.1477 35.981 16.7882 36.1993 16.5211 36.0343L9.08877 31.7511L1.81678 35.9421L20.7813 46.8751L39.7457 35.9421L32.4739 31.7511L25.0415 36.0343C24.7792 36.1943 24.41 35.9857 24.4197 35.6755V25.4942C24.4197 25.1886 24.5897 24.9169 24.8375 24.7763L33.6689 19.6833C33.931 19.5232 34.3004 19.7269 34.2905 20.0422V28.6082L41.5625 32.7991V10.933L22.5981 0V8.38648Z" fill="var(--fill-0, white)"/>
</svg>
