<svg overflow="visible" style="display: block;" viewBox="0 0 83.125 21.4665" fill="none" xmlns="http://www.w3.org/2000/svg" width="83.125" height="21.4665">
<g id="Vector">
<path d="M0 0.352921H6.3783V16.0065H16.3392V21.1136H0V0.352921Z" fill="var(--fill-0, white)"/>
<path d="M31.9329 0.352921H38.2905V12.7263C38.2905 13.9512 38.1041 15.1138 37.7107 16.1933C37.3379 17.2729 36.7374 18.2279 35.9297 19.0583C35.1221 19.868 34.273 20.4493 33.3825 20.7814C32.14 21.2382 30.649 21.4665 28.9094 21.4665C27.8947 21.4665 26.8179 21.4042 25.6167 21.2589C24.4363 21.1136 23.4423 20.8437 22.6347 20.4077C21.827 19.9925 21.1022 19.3905 20.4396 18.6223C19.7769 17.8542 19.3213 17.0445 19.0728 16.2348C18.6793 14.9062 18.4722 13.7436 18.4722 12.7263V0.352921H24.8298V13.0169C24.8298 14.1588 25.1404 15.0307 25.7617 15.6743C26.383 16.3179 27.2527 16.6293 28.3503 16.6293C29.4479 16.6293 30.3176 16.3179 30.9389 15.6951C31.5602 15.0722 31.8708 14.1795 31.8708 13.0169C31.9329 13.0169 31.9329 0.352921 31.9329 0.352921Z" fill="var(--fill-0, white)"/>
<path d="M63.3688 0.352921H69.7471V7.61916H76.726V0.352921H83.125V21.1136H76.726V12.7055H69.7471V21.1136H63.3688V0.352921Z" fill="var(--fill-0, white)"/>
<path d="M41.4175 13.8681H47.4852C47.6095 14.8646 47.8787 15.612 48.2929 16.131C48.9555 16.9615 49.8874 17.3974 51.1092 17.3974C52.0204 17.3974 52.7245 17.1898 53.2215 16.7539C53.7185 16.3179 53.9671 15.8196 53.9671 15.2591C53.9671 14.7193 53.7393 14.2418 53.263 13.8058C52.7866 13.3906 51.7098 12.9754 49.991 12.6017C47.1953 11.9789 45.2072 11.1277 44.0061 10.0897C42.805 9.05165 42.2045 7.70221 42.2045 6.08287C42.2045 5.02408 42.5151 4.00681 43.1364 3.05181C43.7576 2.09682 44.6688 1.34944 45.9113 0.809665C47.1539 0.269887 48.8313 0 50.985 0C53.615 0 55.6445 0.498257 57.0112 1.47401C58.3987 2.47052 59.2892 4.3805 59.5584 6.53961H53.47C53.3044 5.60538 52.973 4.92028 52.4553 4.50506C51.9376 4.08985 51.2335 3.86149 50.343 3.86149C49.5975 3.86149 49.0384 4.02757 48.6656 4.33898C48.2929 4.65039 48.1065 5.04484 48.1065 5.50158C48.1065 5.83375 48.2514 6.1244 48.5621 6.39428C48.852 6.66417 49.5768 6.9133 50.6951 7.16243C53.4907 7.76449 55.4788 8.38731 56.6799 8.98937C57.881 9.61219 58.7715 10.3803 59.3099 11.2938C59.8691 12.2073 60.1383 13.2245 60.1383 14.3664C60.1383 15.6951 59.7655 16.9199 59.0407 18.041C58.3159 19.1621 57.2805 20.0133 55.9758 20.5946C54.6711 21.1759 53.0144 21.4665 51.0057 21.4665C47.4852 21.4665 45.0623 20.7814 43.7162 19.432C42.3494 18.0825 41.5832 15.965 41.4175 13.8681Z" fill="var(--fill-0, white)"/>
</g>
</svg>
