<svg overflow="visible" style="display: block;" viewBox="0 0 99.75 20.1517" fill="none" xmlns="http://www.w3.org/2000/svg">
<g id="Vector">
<path d="M36.6128 0.647504H40.3934L46.8217 12.305L53.25 0.647504H56.9487V19.803H53.8642V5.12175L48.2275 15.2878H45.334L39.6973 5.12175V19.803H36.6128V0.647504Z" fill="var(--fill-0, white)"/>
<path d="M66.898 20.1451C65.4694 20.1451 64.2138 19.828 63.1311 19.1942C62.0482 18.5602 61.2044 17.6821 60.5993 16.5603C59.9942 15.4383 59.6917 14.1522 59.6917 12.7018C59.6917 11.2333 59.9874 9.93342 60.5789 8.80232C61.1703 7.6714 61.9915 6.78651 63.0424 6.14783C64.0934 5.5095 65.3012 5.19007 66.666 5.19007C68.0217 5.19007 69.1886 5.5116 70.1668 6.15464C71.1447 6.79787 71.8977 7.69866 72.4255 8.85702C72.9532 10.0155 73.2171 11.3745 73.2171 12.9344V13.7826H62.749C62.9401 14.9504 63.4109 15.8692 64.1616 16.5397C64.9122 17.2102 65.8608 17.5453 67.0072 17.5453C67.9261 17.5453 68.7177 17.4085 69.382 17.1349C70.0461 16.8612 70.6694 16.4462 71.2519 15.8898L72.8896 17.9011C71.2608 19.3972 69.2637 20.1451 66.898 20.1451ZM69.15 8.7817C68.5039 8.12048 67.6576 7.7897 66.6114 7.7897C65.5923 7.7897 64.7392 8.1273 64.0524 8.80232C63.3653 9.47735 62.9308 10.385 62.749 11.5251H70.2555C70.1645 10.3575 69.7959 9.44327 69.15 8.7817Z" fill="var(--fill-0, white)"/>
<path d="M76.9571 8.06352H74.1182V5.53222H76.9571V1.34542H79.9324V5.53222H84.2452V8.06352H79.9324V14.4805C79.9324 15.5477 80.1143 16.3094 80.4783 16.7655C80.8421 17.2217 81.4655 17.4496 82.3482 17.4496C82.7392 17.4496 83.0715 17.4338 83.3445 17.4017C83.6174 17.3699 83.9177 17.3264 84.2452 17.2717V19.7755C83.9085 19.8758 83.5287 19.958 83.1056 20.0219C82.6825 20.0855 82.239 20.1177 81.7749 20.1177C78.5629 20.1177 76.9571 18.3573 76.9571 14.8363V8.06352Z" fill="var(--fill-0, white)"/>
<path d="M99.75 19.803H96.8293V17.8053C96.3106 18.5534 95.6508 19.1304 94.8503 19.5361C94.0496 19.9419 93.1396 20.1451 92.1206 20.1451C90.865 20.1451 89.7527 19.8234 88.7836 19.1804C87.8146 18.5373 87.0525 17.6526 86.4976 16.5261C85.9425 15.3995 85.665 14.1111 85.665 12.6608C85.665 11.2013 85.9469 9.91053 86.5112 8.78852C87.0753 7.66668 87.8556 6.78651 88.8519 6.14783C89.8482 5.5095 90.9923 5.19007 92.2844 5.19007C93.2579 5.19007 94.1314 5.37949 94.9049 5.75798C95.6782 6.13647 96.3196 6.67258 96.8293 7.3656V5.53222H99.75V19.803ZM96.7747 10.5263C96.4561 9.71447 95.9535 9.07387 95.2665 8.60382C94.5794 8.13411 93.7857 7.89926 92.8849 7.89926C91.611 7.89926 90.5965 8.32807 89.8414 9.18535C89.0861 10.0428 88.7086 11.2013 88.7086 12.6608C88.7086 14.1295 89.0724 15.2924 89.8004 16.1498C90.5283 17.0073 91.5154 17.4359 92.7621 17.4359C93.681 17.4359 94.4999 17.1988 95.2188 16.7244C95.9374 16.2503 96.4561 15.6116 96.7747 14.8089V10.5263Z" fill="var(--fill-0, white)"/>
<path d="M21.7094 2.61972e-07C19.2291 2.61972e-07 17.2902 1.87282 15.535 4.25187C13.1231 1.17314 11.106 0 8.69208 0C3.77073 0 0 6.42074 0 13.2167C0 17.4694 2.05226 20.1517 5.48974 20.1517C7.96381 20.1517 9.74318 18.9824 12.9064 13.4391C12.9064 13.4391 14.225 11.1047 15.1321 9.49664C15.45 10.0112 15.784 10.5647 16.1365 11.1599L17.6198 13.6615C20.5093 18.5089 22.1193 20.1517 25.0365 20.1517C28.3853 20.1517 30.249 17.4328 30.249 13.0916C30.249 5.97602 26.3932 2.61972e-07 21.7094 2.61972e-07ZM10.4943 11.9381C7.92962 15.9685 7.04239 16.8718 5.6145 16.8718C4.14503 16.8718 3.27166 15.5785 3.27166 13.2723C3.27166 8.33863 5.72541 3.29376 8.65049 3.29376C10.2345 3.29376 11.5582 4.21087 13.5858 7.12083C11.6605 10.0813 10.4943 11.9381 10.4943 11.9381ZM20.1736 11.4308L18.4001 8.46547C17.9201 7.68294 17.4602 6.96388 17.0163 6.3046C18.6148 3.83128 19.9333 2.59887 21.5015 2.59887C24.7593 2.59887 27.3655 7.40748 27.3655 13.314C27.3655 15.5654 26.6299 16.8718 25.1058 16.8718C23.6451 16.8718 22.9472 15.9047 20.1736 11.4308Z" fill="var(--fill-0, white)"/>
</g>
</svg>
