<svg overflow="visible" style="display: block;" viewBox="0 0 106.944 20.8333" fill="none" xmlns="http://www.w3.org/2000/svg">
<path id="Combined-Shape" fill-rule="evenodd" clip-rule="evenodd" d="M106.196 14.7019C105.696 14.0346 104.686 13.4177 103.107 12.8155C101.274 12.1165 100.635 11.6869 100.424 11.4492C100.126 11.1156 99.982 10.7634 99.982 10.3741C99.982 9.81904 100.222 9.36311 100.715 8.97917C101.222 8.58672 101.854 8.38778 102.599 8.38778C103.526 8.38778 104.579 8.74386 105.732 9.44594C105.928 9.5636 106.185 9.47768 106.264 9.26481L106.648 8.21826C106.707 8.05725 106.641 7.87767 106.492 7.7902C105.716 7.33272 104.237 6.59658 102.686 6.59658C100.523 6.59658 98.0907 7.8676 98.0907 10.4259C98.0907 12.8712 100.324 13.7753 101.901 14.393C103.738 15.1114 104.383 15.5542 104.601 15.7988C104.907 16.1432 105.056 16.5047 105.056 16.9057C105.056 17.504 104.826 17.9809 104.354 18.3664C103.874 18.7565 103.244 18.9554 102.482 18.9554C101.429 18.9554 100.213 18.635 98.8655 18.0064C98.6604 17.9104 98.4205 18.0242 98.3605 18.241C98.2722 18.5568 98.1499 18.8625 97.996 19.1536C97.9005 19.3332 97.9715 19.553 98.157 19.6413C99.1314 20.1003 100.902 20.8333 102.294 20.8333C103.593 20.8333 104.7 20.4571 105.588 19.7171C106.488 18.967 106.944 18.0304 106.944 16.9336C106.944 16.1169 106.692 15.3661 106.196 14.7019ZM37.2257 15.924C37.2257 16.8908 35.9301 18.9561 33.1235 18.9561C32.0978 18.9561 31.2898 18.6371 30.6546 17.9823C30.0234 17.3351 29.7046 16.4202 29.7046 15.2668V7.21104C29.7046 7.01519 29.5437 6.85496 29.3432 6.85496H28.1336C27.9348 6.85496 27.7723 7.01519 27.7723 7.21104V15.2955C27.7723 17.0418 28.2733 18.4173 29.2604 19.381C30.2467 20.344 31.5076 20.8332 33.0067 20.8332C34.0561 20.8332 34.9399 20.6327 35.6303 20.2387C36.0074 20.0243 36.3798 19.7278 36.746 19.3547C36.9479 19.1457 37.3062 19.2579 37.3582 19.5428L37.4916 20.2813C37.5224 20.45 37.6715 20.5746 37.8467 20.5746H38.7967C38.9955 20.5746 39.158 20.4144 39.158 20.2178V7.21104C39.158 7.01519 38.9955 6.85496 38.7967 6.85496H37.5871C37.3882 6.85496 37.2257 7.01519 37.2257 7.21104V15.924ZM43.3895 11.5047C43.3895 10.5378 44.6851 8.47339 47.4917 8.47339C48.5175 8.47339 49.3255 8.79154 49.9606 9.4464C50.5919 10.0935 50.9106 11.0085 50.9106 12.1619V20.2176C50.9106 20.4135 51.0716 20.5737 51.272 20.5737H52.4816C52.6804 20.5737 52.843 20.4135 52.843 20.2176V12.1332C52.843 10.3869 52.3419 9.01215 51.3548 8.04765C50.3686 7.08471 49.1077 6.59627 47.6085 6.59627C46.5591 6.59627 45.6754 6.79598 44.985 7.19076C44.6078 7.4044 44.2354 7.70087 43.8693 8.07475C43.6673 8.28297 43.3091 8.17073 43.257 7.88587L43.1236 7.14741C43.0929 6.97866 42.9437 6.85403 42.7686 6.85403H41.8186C41.6197 6.85403 41.4572 7.01427 41.4572 7.21088V20.2176C41.4572 20.4135 41.6197 20.5737 41.8186 20.5737H43.0282C43.227 20.5737 43.3895 20.4135 43.3895 20.2176V11.5047ZM86.121 13.4745C86.3324 13.4745 86.4981 13.2949 86.4808 13.0874C86.0239 7.52183 82.4172 6.59603 80.3247 6.59603C75.5605 6.59603 73.9272 10.9541 73.9272 13.5557C73.9272 15.6535 74.5869 17.4075 75.8888 18.7714C77.1946 20.1392 78.8682 20.8328 80.8644 20.8328C83.716 20.8328 85.6357 19.4658 86.1407 19.0633C86.2251 18.9951 86.2725 18.8945 86.2725 18.7869V17.4834C86.2725 17.1861 85.9261 17.0213 85.6878 17.2024C84.8262 17.8642 83.0942 18.9557 81.038 18.9557C78.1052 18.9557 75.8706 16.6303 75.8872 13.8274C75.8888 13.6331 76.0505 13.4745 76.2486 13.4745H86.121ZM80.3247 8.47394C82.2918 8.47394 83.5432 9.42914 84.1326 11.3891C84.2005 11.6151 84.0237 11.8419 83.7846 11.8419H76.6794C76.43 11.8419 76.258 11.5996 76.3377 11.3666C76.9532 9.56693 78.4918 8.47394 80.3247 8.47394ZM90.5463 8.97894C91.0521 8.58649 91.6857 8.38832 92.4305 8.38832C93.8342 8.38832 95.0004 8.92785 95.8258 9.47745C96.0333 9.616 96.3189 9.51383 96.3797 9.27154C96.4601 8.95572 96.5706 8.64919 96.7126 8.35659C96.7892 8.20177 96.7347 8.01677 96.5911 7.92233C95.6861 7.33094 94.2209 6.59634 92.5166 6.59634C91.2573 6.59634 90.1708 6.97177 89.2878 7.71256C88.3923 8.46263 87.9386 9.3892 87.9386 10.4659C87.9386 11.2284 88.184 11.9305 88.6692 12.5513C89.1529 13.1729 90.1558 13.7751 91.7307 14.392C93.5676 15.1119 94.2138 15.5539 94.4315 15.7985C94.7385 16.143 94.8876 16.5045 94.8876 16.9055C94.8876 17.5038 94.6572 17.9806 94.1854 18.3661C93.7048 18.757 93.0744 18.9552 92.313 18.9552C91.2857 18.9552 90.1045 18.6518 88.7978 18.055C88.6093 17.9675 88.3836 18.0604 88.3134 18.2539L87.9496 19.2478C87.8912 19.4065 87.9551 19.5853 88.1027 19.6735C88.6937 20.0226 90.2631 20.8316 92.1236 20.8316C93.4224 20.8316 94.531 20.4569 95.4178 19.7169C96.3181 18.9668 96.775 18.031 96.775 16.9333C96.775 16.1159 96.5233 15.3658 96.027 14.7017C95.5267 14.0344 94.5168 13.4175 92.9371 12.8152C91.1042 12.1163 90.4659 11.6867 90.2536 11.4498C89.9569 11.1162 89.8117 10.7647 89.8117 10.3738C89.8117 9.81881 90.0524 9.36133 90.5463 8.97894ZM70.2913 20.5738H71.5143C71.7155 20.5738 71.8764 20.4143 71.8764 20.2177V0.356538C71.8764 0.159924 71.7155 0.000464444 71.5143 0.000464444H70.2913C70.0924 0.000464444 69.9299 0.159924 69.9299 0.356538V20.2177C69.9299 20.4143 70.0924 20.5738 70.2913 20.5738ZM65.3225 0.356306V6.96302C65.3225 7.21692 65.0582 7.38799 64.8191 7.28968C63.6971 6.82911 62.6232 6.59611 61.6132 6.59611C59.6091 6.59611 57.9198 7.27962 56.5887 8.62651C55.2615 9.97107 54.5885 11.6779 54.5885 13.7006C54.5885 15.6938 55.271 17.3975 56.6179 18.7661C57.9663 20.137 59.6478 20.8321 61.6132 20.8321C62.8023 20.8321 63.9369 20.5349 64.9966 19.9481C65.1773 19.8482 65.4038 19.9179 65.4953 20.0998L65.6342 20.3762C65.6949 20.4969 65.8212 20.5743 65.9577 20.5743H66.9077C67.1065 20.5743 67.269 20.4141 67.269 20.2175V0.356306C67.269 0.160465 67.1065 0.000232222 66.9077 0.000232222H65.6839C65.485 0.000232222 65.3225 0.160465 65.3225 0.356306ZM65.3225 17.6747C65.3225 17.7939 65.2609 17.9076 65.1584 17.9727C64.1247 18.626 63.0509 18.9565 61.962 18.9565C60.4376 18.9565 59.1507 18.4433 58.1368 17.4339C57.1205 16.4237 56.6076 15.138 56.6076 13.6139C56.6076 12.1168 57.0881 10.8729 58.0358 9.91456C58.9826 8.95936 60.2048 8.47324 61.6708 8.47324C62.837 8.47324 64.0064 8.81538 65.1497 9.49269C65.2562 9.55617 65.3225 9.66996 65.3225 9.79458V17.6747ZM26.2393 13.5246C26.2393 9.73165 23.1416 6.57343 19.194 6.57343C17.7509 6.57343 16.4103 7.00614 15.2939 7.7446C15.1266 7.8553 15.084 8.079 15.1968 8.24156C15.4248 8.57131 15.5598 8.80586 15.7665 9.22618C15.8627 9.42434 16.1176 9.49711 16.3007 9.37248C17.1228 8.80973 18.1186 8.47765 19.194 8.47765C22.0851 8.47765 24.3094 10.8262 24.3094 13.5246C24.3094 16.1418 22.2121 18.5716 19.194 18.5716C16.2115 18.5716 14.0906 16.1596 14.0906 13.5254C14.0906 9.88492 11.1199 6.57343 7.0445 6.57343C5.01589 6.57343 3.47648 7.4133 2.5257 8.19899C2.29214 8.39173 1.9355 8.2253 1.9355 7.92419C1.9355 6.15466 1.9355 2.02188 1.93471 0.540303C1.93471 0.240737 1.68932 0 1.38633 0H0.549168C0.246179 0 0.000789034 0.240737 0 0.540303V13.5246C0 17.2015 2.90996 20.2203 6.57739 20.4588C6.73283 20.4688 6.88748 20.4766 7.0445 20.4766C8.49001 20.4766 9.83137 20.0423 10.9502 19.3007C11.1151 19.1916 11.1585 18.9718 11.0481 18.8077C10.8429 18.5027 10.6401 18.1683 10.465 17.8215C10.3679 17.6272 10.1194 17.5537 9.93789 17.6767C9.11492 18.2403 8.11916 18.5716 7.0445 18.5716C4.11008 18.5716 1.92998 16.2292 1.92998 13.5246C1.92998 10.6567 4.30024 8.47997 7.0445 8.47997C9.83137 8.47997 12.1598 10.7364 12.1598 13.5254C12.1598 17.0141 14.9475 20.4773 19.2043 20.4773C23.1676 20.4773 26.2393 17.3075 26.2393 13.5246Z" fill="var(--fill-0, white)"/>
</svg>
