<svg overflow="visible" style="display: block;" viewBox="0 0 91.4375 22.4403" fill="none" xmlns="http://www.w3.org/2000/svg">
<g id="svg6836" clip-path="url(#clip0_39_2266)">
<path id="path6045" d="M85.0725 15.8238C85.0725 17.2653 83.8107 18.0303 81.4631 18.0303H68.405L67.4658 21.6201H82.1968C84.4854 21.3254 86.246 19.5317 86.246 17.5895C86.246 16.882 86.0032 16.2258 85.5386 15.6535C85.2214 15.2617 84.7972 14.9087 84.2768 14.6055C84.829 14.9312 85.0725 15.3332 85.0725 15.8238Z" fill="url(#paint0_linear_39_2266)"/>
<path id="path6117" d="M50.6843 1.02715L49.7746 4.61611H58.93C59.5846 2.14365 61.0419 1.02715 63.5943 1.02715H50.6843Z" fill="url(#paint1_linear_39_2266)"/>
<path id="path6189" d="M36.0611 4.61611L26.2007 21.6201H30.9254L33.1954 17.619L33.6189 16.8711L40.7556 4.29267C40.3445 3.14507 39.7582 2.61559 38.9369 2.61559C38.0559 2.61559 37.3516 3.11553 36.0611 4.61611Z" fill="url(#paint2_linear_39_2266)"/>
<path id="path6205" d="M35.0979 14.1769L33.1451 17.6189H33.2444L35.1973 14.1769H35.0979Z" fill="var(--fill-0, white)"/>
<path id="path6265" d="M6.77527 4.61611L0.290834 21.6201H4.86817L10.7663 6.08714C9.91551 4.17448 9.35789 3.52838 8.56605 3.52838C7.92 3.52838 7.45078 3.82228 6.77527 4.61611Z" fill="url(#paint3_linear_39_2266)"/>
<g id="Vector">
<path d="M81.5802 1.02739C76.65 1.02739 73.7455 3.29226 73.7455 7.14634C73.7455 9.61724 74.9779 11.0292 78.1173 12.2055L83.1646 14.0887C83.516 14.2169 83.8394 14.3623 84.1333 14.5233C84.1821 14.5497 84.2287 14.5777 84.276 14.6057C84.7979 14.9089 85.2206 15.2611 85.5386 15.653C86.0032 16.226 86.2459 16.8814 86.2459 17.5897C86.2459 19.5312 84.4846 21.3249 82.1967 21.6195C86.833 21.4135 89.3861 19.1191 89.3861 15.0885C89.3861 12.8532 88.0064 11.4117 84.6902 10.1467L80.7294 8.64613C78.6168 7.8523 78.0584 7.38113 78.0584 6.44036C78.0584 5.26322 79.1147 4.61633 81.1102 4.61633H88.4757C89.6498 4.61633 90.3253 4.14595 90.589 3.1453L91.1467 1.02739L81.5802 1.02739Z" fill="white"/>
<path d="M63.5952 1.02739C61.0429 1.02739 59.5848 2.14311 58.9303 4.61634L54.4995 21.6195H57.6095C58.6658 21.6195 59.2234 21.1779 59.5166 20.0311L63.5371 4.61634H70.1983C71.3717 4.61634 72.0465 4.14596 72.311 3.14531L72.8678 1.02739H63.5952Z" fill="white"/>
<path d="M44.805 3.67494C44.0124 1.55702 42.78 0.526839 40.9319 0.526839C39.259 0.526839 37.9095 1.43884 36.7648 3.40981L36.0606 4.6165C37.3511 3.11592 38.0561 2.61599 38.9364 2.61599C39.7577 2.61599 40.3448 3.14546 40.755 4.29228L44.1597 14.1767H35.1447L33.1926 17.6187H45.3332L46.1553 20.0313C46.5361 21.2076 47.1231 21.6197 48.385 21.6197H51.6129L44.805 3.67494Z" fill="white"/>
<path d="M10.7665 6.08707C9.91574 4.17519 9.35814 3.52753 8.56552 3.52753C7.92025 3.52753 7.45104 3.8222 6.77553 4.61603L7.45104 2.8511C8.0963 1.17403 9.21155 0.291572 10.62 0.291572C12.0865 0.291572 12.997 0.997538 13.7594 2.67461L19.9515 16.2653L25.1159 2.7337C25.5851 1.49747 26.1427 1.02708 27.082 1.02708H30.3098L23.2375 19.6195C22.6217 21.2375 21.477 22.1487 20.0391 22.1487C18.6307 22.1487 17.662 21.414 16.8997 19.7073L10.7665 6.08707Z" fill="white"/>
</g>
</g>
<defs>
<linearGradient id="paint0_linear_39_2266" x1="86.2459" y1="18.1126" x2="68.4898" y2="18.1126" gradientUnits="userSpaceOnUse">
<stop stop-color="white" stop-opacity="0"/>
<stop offset="0.55" stop-color="white"/>
<stop offset="1" stop-color="white"/>
</linearGradient>
<linearGradient id="paint1_linear_39_2266" x1="61.106" y1="5.38059" x2="52.0789" y2="0.181794" gradientUnits="userSpaceOnUse">
<stop stop-color="white" stop-opacity="0"/>
<stop offset="0.164455" stop-color="white" stop-opacity="0"/>
<stop offset="1" stop-color="white"/>
</linearGradient>
<linearGradient id="paint2_linear_39_2266" x1="39.5469" y1="2.67727" x2="28.5187" y2="21.6011" gradientUnits="userSpaceOnUse">
<stop stop-color="white" stop-opacity="0"/>
<stop offset="0.55" stop-color="white"/>
<stop offset="1" stop-color="white"/>
</linearGradient>
<linearGradient id="paint3_linear_39_2266" x1="9.44588" y1="3.61246" x2="2.55102" y2="21.6043" gradientUnits="userSpaceOnUse">
<stop stop-color="white" stop-opacity="0"/>
<stop offset="0.55" stop-color="white"/>
<stop offset="1" stop-color="white"/>
</linearGradient>
<clipPath id="clip0_39_2266">
<rect width="91.4375" height="22.4403" fill="white"/>
</clipPath>
</defs>
</svg>
