<svg overflow="visible" style="display: block;" viewBox="0 0 99.75 27.0332" fill="none" xmlns="http://www.w3.org/2000/svg" width="99.75" height="27.0332">
<g id="Vector">
<path fill-rule="evenodd" clip-rule="evenodd" d="M95.0855 19.3649C91.4625 19.3649 89.8301 17.0335 89.8301 13.5916C89.8301 10.1812 91.6336 7.63127 95.2103 7.63127C97.449 7.63127 99.6259 8.63245 99.6882 11.1979H97.1693C97.0447 10.0716 96.2982 9.477 95.2103 9.477C93.0174 9.477 92.3487 11.8551 92.3487 13.6697C92.3487 15.4691 93.0174 17.5655 95.132 17.5655C96.2361 17.5655 97.0447 16.9712 97.2156 15.829H99.75C99.4705 18.3948 97.418 19.3649 95.0855 19.3649Z" fill="white"/>
<path fill-rule="evenodd" clip-rule="evenodd" d="M73.7594 19.3649C71.3336 19.3649 69.3436 18.3948 69.2969 15.6884H71.7381C71.7692 16.8932 72.4688 17.6126 73.8062 17.6126C74.8015 17.6126 75.921 17.1119 75.921 15.9854C75.921 15.1096 75.1592 14.828 73.8992 14.468L73.0909 14.2334C71.3186 13.7171 69.5611 13.0284 69.5611 10.9947C69.5611 8.47582 71.8938 7.63127 74.0239 7.63127C76.216 7.63127 78.0975 8.39785 78.1132 10.9009H75.6722C75.5788 9.86837 74.9881 9.27378 73.837 9.27378C72.9354 9.27378 72.0337 9.75875 72.0337 10.7599C72.0337 11.5893 72.7799 11.8396 74.3658 12.3402L75.2989 12.6376C77.227 13.2477 78.4396 13.9201 78.4396 15.7979C78.4396 18.379 75.9673 19.3649 73.7594 19.3649Z" fill="white"/>
<path fill-rule="evenodd" clip-rule="evenodd" d="M83.9661 17.4718C85.1012 17.4718 86.2209 17.2057 86.2209 15.8291C86.2209 14.4835 85.2567 14.1704 84.1059 14.1704H82.1782V17.4718H83.9661ZM83.733 12.559C84.8059 12.559 85.8938 12.3403 85.8938 11.0258C85.8938 9.85281 84.8677 9.53955 83.8885 9.53955H82.1782V12.559H83.733ZM79.8145 7.85017H83.7172C84.946 7.85017 85.4434 7.88155 85.9253 7.99077C87.2936 8.30363 88.3198 9.19531 88.3198 10.7133C88.3198 12.168 87.4025 12.9188 86.0808 13.2633C87.6045 13.5449 88.7239 14.3274 88.7239 16.0012C88.7239 18.5669 86.2051 19.1615 84.2306 19.1615H79.8145V7.85017Z" fill="white"/>
<path fill-rule="evenodd" clip-rule="evenodd" d="M65.4731 14.3272H60.6062V19.1616H58.1651V7.84998H60.6062V12.481H65.4731V7.84998H67.9142V19.1616H65.4731V14.3272Z" fill="white"/>
<path fill-rule="evenodd" clip-rule="evenodd" d="M13.4828 0L26.9656 13.5166L40.4485 0H13.4828Z" fill="white"/>
<path fill-rule="evenodd" clip-rule="evenodd" d="M13.4828 27.0332H40.4485L26.9656 13.5166L13.4828 27.0332Z" fill="white"/>
<path fill-rule="evenodd" clip-rule="evenodd" d="M40.4485 27.0332L53.9313 13.5166L40.4485 0V27.0332Z" fill="white"/>
<path fill-rule="evenodd" clip-rule="evenodd" d="M0 13.5166L13.4228 27.0113L13.4828 27.0332V0L0 13.5166Z" fill="white"/>
</g>
</svg>
