<svg overflow="visible" style="display: block;" viewBox="0 0 140 23" fill="none" xmlns="http://www.w3.org/2000/svg">
<path id="Vector" d="M45.2726 22.6676C43.8086 21.8036 42.8636 21.0731 42.4166 20.5501L42.3509 20.4696C42.3191 20.4273 42.2852 20.3828 42.2577 20.3405C42.0606 20.0144 42.05 19.6629 42.2831 19.1864C43.9611 15.8091 47.19 11.0723 50.2028 7.35187C50.0969 7.34764 49.9931 7.34764 49.885 7.34764C48.2642 7.3794 47.2472 7.12742 46.2853 6.49853C45.4908 6.02633 44.584 5.11158 43.9314 4.45093C44.5861 4.78549 45.3997 5.08617 47.2832 4.7749C50.4592 4.24342 54.4466 3.97238 56.4721 4.03591C58.1903 4.07826 59.8684 4.69021 60.737 5.57531C61.6226 6.47947 61.3557 6.47947 60.273 6.61075C59.1522 6.75051 57.4657 6.86273 55.7093 7.01307C55.6373 7.11895 55.5314 7.25658 55.3894 7.41751C51.9783 11.0596 47.601 16.8826 45.2514 21.0837C44.8192 21.8777 44.9484 22.3436 45.2726 22.6676ZM66.0995 21.0477C66.1249 21.0032 66.1482 20.9566 66.1736 20.9079C68.4512 16.7005 72.9111 10.7568 75.8985 7.24176C76.5023 6.507 76.5722 6.23384 76.1252 5.6833C75.8116 5.29369 75.104 4.70291 74.5574 4.326C73.712 3.7437 73.4726 3.96391 73.0467 4.45305C70.9916 6.78862 68.5487 10.0792 66.4872 13.2914C65.0486 13.3888 63.1884 13.6471 61.0485 13.9287C62.6778 11.5614 65.8897 7.21847 69.1546 3.2715C69.7606 2.53885 69.8284 2.23817 69.3432 1.71304C68.9618 1.29801 68.2669 0.745353 67.7754 0.415027C66.8876 -0.184218 66.8643 -0.135516 66.2647 0.567485C62.9595 4.46999 55.4233 15.1166 53.4593 19.3961C53.2156 19.9339 53.1732 20.2642 53.4275 20.6009C53.7877 21.0943 55.3004 22.098 56.614 22.8073C56.186 22.4389 56.0928 22.1213 56.4721 21.3399H56.4657C57.1162 20.0504 57.9403 18.6295 58.881 17.1685C60.8133 16.745 63.0951 16.3257 64.7753 16.097C64.1333 17.1854 63.6015 18.2209 63.1735 19.1504C62.8536 19.8556 62.8854 20.1308 63.4066 20.6284C63.8791 21.1345 64.6715 21.685 66.2774 22.568C65.7838 22.1424 65.8134 21.6109 66.0995 21.0477ZM41.2153 13.1728C40.603 13.6789 40.1495 14.2675 40.4271 14.6699C39.1283 13.6556 38.4122 12.6625 38.3529 12.3152C38.23 11.8811 38.4567 11.4661 38.7427 11.0299C39.5245 9.88649 41.9632 7.08719 41.3381 6.78015C40.603 6.44559 36.0583 8.95268 34.2892 11.0469C33.0476 12.5143 33.6727 13.1199 34.4375 13.7848C35.2066 14.4475 36.9863 15.4724 37.855 16.2474C38.8995 17.16 39.5182 18.314 38.0711 19.6713C36.1982 21.4331 34.0561 21.7888 32.6514 21.7613C30.3082 21.7105 27.628 20.8423 25.308 19.72C25.2572 19.9508 25.2084 20.1774 25.1618 20.3976C24.9966 21.1726 25.2275 21.6575 25.8779 21.9878C24.219 21.486 23.2168 21.071 22.5982 20.6411C22.4711 20.5607 22.3651 20.4802 22.2804 20.3892C22.0092 20.1096 21.9499 19.7793 21.9859 19.2627C22.0049 18.998 22.0918 18.53 22.2295 17.9371C21.1045 17.16 20.2634 16.3892 19.8756 15.7667C19.5091 15.1802 19.3608 14.655 19.3862 14.1447C16.5789 17.0626 13.7335 20.1266 13.0513 21.1705C12.4326 22.1107 12.6064 22.5299 13.1191 23C12.3161 22.4304 11.4962 21.6681 10.886 20.9461C10.744 20.7999 10.6275 20.6602 10.5131 20.4823C10.0279 19.9021 10.0681 19.3262 10.7758 18.458C13.2293 15.4491 19.7718 8.63082 24.1321 4.78549C24.9097 4.08249 25.0135 3.49595 24.6279 3.28632C25.1894 3.45572 26.1195 3.78181 27.0708 4.21589C27.8971 4.57586 28.1894 4.74103 29.0518 5.23016C30.2065 5.86752 29.9162 6.33548 29.6323 7.01519C28.3526 9.98601 26.9585 13.753 26.0029 17.0647C28.2911 18.1658 30.9607 19.0234 33.3315 19.125C34.696 19.1843 35.3083 18.854 34.6473 18.0811C34.0922 17.4459 31.1281 15.6418 29.842 14.456C28.2763 13.0203 28.5687 11.5995 29.5963 10.3206C32.2213 7.08719 35.6664 5.44614 38.0605 4.56528C39.5733 4.00414 40.9441 3.79451 42.3742 4.49116C43.281 4.93795 44.4675 5.68542 45.0247 6.32066C45.6497 7.01096 45.5756 7.6949 45.1476 8.48472C44.2175 10.1978 42.6708 11.9002 41.2153 13.1728ZM22.9181 15.2755C23.6575 12.6096 24.6427 9.46511 25.1322 8.34497C24.3249 9.10937 22.5664 10.8711 20.6235 12.8658C20.6956 13.1029 20.8185 13.3591 21.0388 13.6302C21.4604 14.1426 22.1151 14.708 22.9181 15.2755ZM9.24185 11.32C11.7737 10.8245 14.509 10.545 16.2971 10.3417C17.0133 10.2613 17.1234 10.2486 16.7569 9.68744C16.5556 9.38253 16.17 8.75364 15.8565 8.50589C15.4751 8.20098 14.9857 8.11628 14.2823 8.10781C13.5852 8.10357 12.564 8.12051 11.4432 8.19463C12.6805 6.47735 13.9623 4.84902 15.0598 3.51713C17.5154 3.12539 20.7803 2.80777 22.6766 2.70402C23.5389 2.65531 23.6575 2.66802 23.3821 2.02431C23.1724 1.53094 22.7592 0.978275 22.3418 0.618304C21.8566 0.207514 21.2592 0.0614087 20.3121 0.0296466C18.276 -0.0381126 14.1509 0.171517 11.3351 0.603482C10.1656 0.779232 9.53635 0.78135 9.21643 0.241394C9.35203 0.686063 9.9495 2.06877 10.4389 2.84589C7.52994 6.67851 1.78189 15.4025 0.205568 18.6994C-0.112238 19.3537 -0.0825764 19.7645 0.442863 20.26C1.52128 21.2256 2.90268 22.2038 3.95992 22.7417C3.13574 22.2165 2.72895 21.5749 3.2332 20.6496C4.13365 18.962 7.90707 13.2702 9.24185 11.32ZM89.4646 10.8796C88.8099 13.6132 85.8183 19.2521 80.7143 21.6723C79.4092 22.2906 77.7968 22.4685 75.9769 21.9349C74.962 21.6236 73.9154 21.0413 73.0806 20.3765C72.1399 19.6311 70.8538 18.3077 72.0361 15.1166C73.2586 11.8706 77.3604 7.25235 81.1614 5.20263C82.7504 4.34082 84.3987 4.00203 86.2145 4.91678C87.1573 5.38897 87.9603 5.8887 88.7251 6.60652C89.7019 7.54668 89.8989 9.07973 89.4646 10.8796ZM85.9518 7.04907C85.0831 6.32913 81.3796 8.92727 78.5066 12.5969C75.7099 16.186 74.9091 19.3537 75.712 19.9043C76.6527 20.5713 79.4367 19.2267 82.6953 14.9028C85.9941 10.5281 86.6488 7.63138 85.9518 7.04907ZM139.888 6.92838C139.667 6.40324 139.229 5.8527 138.816 5.52237C138.294 5.10735 137.697 4.94007 136.752 4.92948C134.095 4.91042 130.051 5.12005 127.004 5.63248C126.006 5.79341 125.485 5.65154 125.326 5.44403C125.468 6.07927 125.915 7.15706 126.245 7.7436C123.442 11.3073 120.139 16.6158 118.429 20.0186C118.037 20.783 118.281 21.0583 118.73 21.4733C119.01 21.7486 119.567 22.1107 119.989 22.3584C120.51 22.693 120.758 22.8306 121.985 22.5405C124.249 22.0154 127.714 21.6236 130.159 21.3674C131.148 21.2743 131.676 21.3018 132.044 21.6258C131.64 21.071 130.79 19.8831 130.078 19.3516C129.661 18.9916 129.063 18.8752 128.292 18.873C126.817 18.8603 125.031 18.9577 123.029 19.2394C123.671 18.2357 124.377 17.1706 125.127 16.0547C127.654 15.555 130.317 15.2839 132.144 15.0743C132.938 14.9832 132.926 14.9091 132.572 14.3946C132.375 14.1066 131.983 13.5942 131.667 13.2893C131.32 12.9293 130.83 12.8192 130.095 12.8107C129.428 12.8065 128.449 12.8531 127.324 12.9251C128.493 11.3179 129.629 9.79967 130.654 8.52072C133.218 8.10357 137.148 7.7436 139.11 7.60385C139.998 7.54033 140.142 7.54033 139.888 6.92838ZM132.229 19.7518C132.229 19.756 132.265 19.8174 132.328 19.936H132.14C132.08 19.8153 132.04 19.7412 132.019 19.72C132 19.6967 131.976 19.684 131.957 19.684L131.938 19.6883L131.934 19.9381H131.775L131.781 19.3029L132.068 19.3071C132.148 19.3071 132.207 19.3241 132.243 19.3579C132.279 19.3897 132.298 19.4363 132.294 19.4871C132.294 19.5295 132.277 19.5655 132.252 19.5972C132.226 19.629 132.18 19.648 132.123 19.665C132.146 19.6756 132.165 19.684 132.178 19.6946C132.197 19.701 132.212 19.7222 132.229 19.7518ZM132.108 19.5443C132.127 19.5273 132.137 19.5083 132.137 19.485C132.137 19.4617 132.127 19.4426 132.112 19.4257C132.095 19.4088 132.063 19.4024 132.021 19.4024H131.947L131.943 19.5612H132.01C132.057 19.5676 132.089 19.5612 132.108 19.5443ZM132.572 19.3241C132.623 19.4151 132.65 19.5146 132.65 19.6226C132.65 19.7285 132.62 19.8259 132.57 19.9212C132.515 20.0122 132.443 20.0864 132.349 20.1372C132.256 20.188 132.159 20.2155 132.051 20.2155C131.945 20.2155 131.847 20.1859 131.756 20.1351C131.665 20.08 131.595 20.008 131.54 19.9148C131.489 19.8238 131.462 19.7243 131.462 19.6163C131.462 19.5104 131.491 19.413 131.542 19.3177C131.597 19.2267 131.669 19.1526 131.762 19.1017C131.856 19.0509 131.953 19.0234 132.061 19.0234C132.167 19.0276 132.265 19.053 132.356 19.1081C132.447 19.1589 132.517 19.2309 132.572 19.3241ZM132.534 19.6184C132.534 19.485 132.489 19.3728 132.398 19.2775C132.305 19.1843 132.19 19.1356 132.061 19.1356C131.928 19.1356 131.815 19.1801 131.72 19.2754C131.627 19.3685 131.578 19.4829 131.578 19.612C131.578 19.7454 131.623 19.8577 131.718 19.953C131.811 20.0461 131.921 20.0948 132.055 20.0948C132.188 20.0948 132.301 20.0504 132.396 19.9551C132.485 19.8661 132.534 19.7518 132.534 19.6184ZM108.889 5.84635C108.541 5.37627 108.007 5.09253 107.459 4.70926C106.681 4.16084 106.486 4.48481 106.194 4.94642C99.5983 15.3305 93.685 20.7131 92.0113 19.9339C90.7888 19.3474 93.6024 13.9542 98.6301 8.19251C99.3716 7.34975 99.45 6.66793 98.9649 6.03268C98.6534 5.6473 98.0453 5.03535 97.6661 4.67538C97.1089 4.17566 96.969 4.09943 96.2635 4.69232C92.8566 7.54033 89.2273 13.4502 88.3628 15.8789C87.6827 17.8164 87.598 19.3177 88.8523 20.3722C89.8989 21.2573 91.2951 21.8142 92.274 22.1255C93.8482 22.549 96.2317 22.9513 99.3356 20.4082C102.548 17.7783 106.478 13.1326 108.944 7.54244C109.3 6.75474 109.234 6.31431 108.889 5.84635ZM116.643 16.9144C115.773 16.1394 113.993 15.1145 113.224 14.4496C112.459 13.7848 111.834 13.1792 113.075 11.7096C114.845 9.61969 119.389 7.1126 120.12 7.44716C120.752 7.75419 118.309 10.5535 117.525 11.6969C117.207 12.1861 116.957 12.6498 117.198 13.1453C117.224 13.194 117.254 13.249 117.29 13.3041C117.624 13.861 118.275 14.6487 119.078 15.3898C118.832 14.9981 119.389 14.3565 120.033 13.8102C121.476 12.5397 123.006 10.8499 123.925 9.15172C124.353 8.36191 124.427 7.67796 123.802 6.98767C123.245 6.35242 122.063 5.60495 121.154 5.16029C119.722 4.46364 118.351 4.67115 116.84 5.23228C114.448 6.11738 110.997 7.75631 108.376 10.9918C107.349 12.2686 107.056 13.6895 108.622 15.1251C109.908 16.313 112.874 18.1171 113.431 18.7523C114.092 19.5231 113.522 20.0377 112.154 20.0292C110.421 20.0165 108.33 19.4596 106.132 18.3458C104.399 17.4289 104.304 16.1309 104.732 15.2437C104.073 16.4739 103.84 17.7677 104.018 18.7121C104.029 18.7862 104.043 18.8582 104.062 18.9281C104.202 19.4786 104.558 19.9551 105.175 20.4061C107.162 21.8735 109.647 22.4135 111.433 22.4304C112.836 22.4431 114.978 22.1043 116.853 20.3405C118.307 18.981 117.688 17.8249 116.643 16.9144Z" fill="var(--fill-0, white)"/>
</svg>
