<svg overflow="visible" style="display: block;" viewBox="0 0 103.075 50" fill="none" xmlns="http://www.w3.org/2000/svg" width="103.075" height="50">
<g id="Vector">
<path d="M93.6184 37.4363V30.1639C93.6184 29.3825 94.083 29.0928 94.6907 29.0928C94.998 29.0805 95.304 29.1396 95.5847 29.2654V42.7275C95.5847 47.7378 92.663 50 88.0935 50C85.5487 50 83.2931 49.5054 82.3085 48.9845C82.3085 48.4343 82.367 47.8841 82.7439 47.6236C83.0623 47.3925 83.4947 47.5066 83.9593 47.6529C85.3088 48.0062 86.6986 48.1813 88.0935 48.1738C91.6521 48.1738 93.6184 46.7252 93.6184 42.8709V41.5774C92.926 43.1402 90.9567 44.2113 88.672 44.2113C84.6225 44.2113 82.1069 42.1247 82.1069 37.8373V30.1639C82.1069 29.3825 82.5685 29.0928 83.1763 29.0928C83.4845 29.0803 83.7915 29.1394 84.0732 29.2654V37.4363C84.0732 40.5648 85.1163 42.5344 88.8473 42.5344C92.143 42.5344 93.6184 40.5648 93.6184 37.4363ZM68.7139 37.7729C68.9768 40.4946 71.2908 42.5519 74.6157 42.5519C75.8852 42.6019 77.1432 42.2947 78.2474 41.6652C78.4317 41.5519 78.6397 41.4828 78.8551 41.4633C79.3488 41.4633 79.5797 42.1013 79.5797 42.71C78.3642 43.7518 76.4564 44.2171 74.6332 44.2171C69.5436 44.2171 66.7446 41.0301 66.7446 36.7135C66.7446 32.5695 69.6371 28.8118 74.8144 28.8118C78.373 28.8118 80.2254 30.8984 80.2254 33.3889C80.2254 36.9827 76.135 37.9075 71.6326 37.9075C70.8818 37.9075 69.6663 37.8519 68.7109 37.7934M68.7109 36.2277C69.4355 36.257 70.3033 36.2862 71.1126 36.2862C75.1328 36.2862 78.4168 35.736 78.4168 33.3304C78.4168 31.3901 76.9706 30.4624 74.7998 30.4624C71.358 30.4624 68.8424 32.6368 68.6963 36.2277M57.9094 28.8118C61.582 28.8118 64.7053 30.8604 64.7053 35.6482V42.8622C64.7053 43.6465 64.2437 43.9362 63.636 43.9362C63.3273 43.9494 63.02 43.8892 62.739 43.7606V35.7858C62.7624 32.4817 61.0094 30.4565 57.927 30.4565C54.8446 30.4565 53.0974 32.4846 53.0974 35.7887V42.8563C53.0974 43.6406 52.6328 43.9304 52.0251 43.9304C51.7165 43.9432 51.4092 43.883 51.1282 43.7548V35.6394C51.1282 30.8604 54.2544 28.803 57.927 28.803M41.323 42.5344C37.5247 42.5344 35.5088 39.8127 35.5088 36.5086C35.5088 33.2046 37.5335 30.4829 41.323 30.4829C45.1124 30.4829 47.1371 33.2075 47.1371 36.5086C47.1371 39.8098 45.1124 42.5344 41.323 42.5344ZM41.323 44.2171C46.2898 44.2171 49.1034 40.7053 49.1034 36.5086C49.1034 32.312 46.2986 28.803 41.323 28.803C36.3473 28.803 33.5454 32.309 33.5454 36.5086C33.5454 40.7082 36.3502 44.2113 41.323 44.2113M20.8448 35.7243V42.8505C20.8448 43.6348 20.3831 43.9245 19.7754 43.9245C19.4668 43.9377 19.1594 43.8775 18.8785 43.7489V35.7243C18.8785 32.3354 17.3154 30.48 14.4521 30.48C11.5888 30.48 10.1718 32.3383 10.1718 35.7243V42.8505C10.1718 43.6348 9.71019 43.9245 9.10247 43.9245C8.79384 43.9377 8.48648 43.8775 8.20551 43.7489V35.5809C8.20551 30.7141 11.1856 28.803 14.4521 28.803C16.9706 28.803 19.0801 30.1054 19.8631 32.1335C20.6432 30.1054 22.7556 28.803 25.2711 28.803C28.5405 28.803 31.5177 30.7141 31.5177 35.5809V42.8534C31.5177 43.6377 31.0561 43.9274 30.4484 43.9274C30.1398 43.9406 29.8324 43.8804 29.5514 43.7518V35.7243C29.5514 32.3354 28.1344 30.48 25.2711 30.48C22.4079 30.48 20.8448 32.3354 20.8448 35.7243Z" fill="white"/>
<path d="M8.09894 15.8999C10.784 15.8999 12.686 13.705 12.686 11.0535C12.686 8.40206 10.9914 6.21007 8.09894 6.21007C5.28535 6.21007 3.50896 8.40499 3.50896 11.0535C3.50896 13.702 5.37008 15.8999 8.09894 15.8999ZM16.157 10.9247C16.157 15.3146 12.9431 18.8264 7.97623 18.8264C3.47098 18.8264 0 15.3906 0 11.0418C0 6.44713 3.55278 3.21915 8.10187 3.21915C12.6509 3.21915 16.1599 6.52907 16.1599 10.9189" fill="white"/>
<path d="M24.3788 3.47673C18.3835 3.8923 16.9781 9.482 17.1447 11.1384C17.0599 13.5792 18.7545 18.8382 25.4102 18.8382C26.2166 18.8466 27.0213 18.7632 27.8089 18.5894V15.6102C27.0432 15.7322 26.27 15.8006 25.4949 15.815C24.8637 15.8401 24.234 15.7362 23.6441 15.5097C23.0543 15.2831 22.5166 14.9387 22.064 14.4973C21.6113 14.056 21.2531 13.5269 21.0111 12.9424C20.7692 12.3579 20.6485 11.7302 20.6566 11.0975C20.6599 10.4678 20.7883 9.8452 21.0342 9.26576C21.2801 8.68632 21.6386 8.16167 22.0889 7.72235C22.5391 7.28304 23.0722 6.93785 23.6569 6.70687C24.2417 6.47589 24.8665 6.36373 25.4949 6.37694H30.8679V13.746C30.8679 13.746 30.4939 19.9971 38.3474 18.6743V15.7477C33.9649 16.6989 34.2161 13.9274 34.2161 13.9274V6.41791H38.3474V3.47673H34.222V0H30.8737V3.47673H24.3788Z" fill="white"/>
<path d="M47.285 15.8967C49.97 15.8967 51.872 13.7047 51.872 11.0533C51.872 8.4018 50.1775 6.20982 47.285 6.20982C44.4714 6.20982 42.695 8.40473 42.695 11.0533C42.695 13.7018 44.597 15.8967 47.285 15.8967ZM55.343 10.9216C55.343 15.3114 52.1291 18.8232 47.1623 18.8232C42.657 18.8232 39.1422 15.3875 39.1422 11.0386C39.1422 6.44394 42.6979 3.254 47.2441 3.254C51.7902 3.254 55.3489 6.54052 55.3489 10.9303" fill="white"/>
<path d="M73.1999 12.4497V4.92556C73.4921 2.77455 76.5073 3.93346 76.5073 3.93346V12.0078C76.5073 14.5334 78.2428 15.7333 80.3522 15.7333C82.4617 15.7333 84.1943 14.5334 84.1943 12.0078V4.96946C84.4865 2.81552 87.5016 3.97444 87.5016 3.97444V9.15149C87.9165 15.5255 94.0346 16.023 94.0346 16.023C100.109 16.8512 99.5712 14.3666 99.5712 14.3666C99.4075 13.1257 98.496 12.836 96.8452 12.6282C95.8518 12.5024 94.9841 12.4204 94.9841 12.4204C88.4541 12.0078 89.1144 7.69992 89.1144 7.69992C89.1962 4.05637 93.0821 3.5179 93.0821 3.5179C96.5122 2.89747 98.9518 3.5179 98.9518 3.5179C104.284 4.63584 101.681 7.16144 101.225 7.3224C101.225 7.3224 99.8195 5.99668 96.4712 5.83279C92.3809 5.58404 92.4218 7.53019 92.4218 7.53019C92.2961 8.93785 94.1164 9.18661 94.1164 9.18661L98.4989 9.80704C103.708 10.5533 103.048 14.2378 103.048 14.2378C102.715 18.8881 97.2163 18.8881 97.2163 18.8881C89.6929 19.3446 86.8822 15.4114 86.8822 15.4114C85.848 17.5214 83.7414 18.9232 80.2266 18.9232C76.0515 18.9232 73.2145 16.6873 73.2145 12.4643" fill="white"/>
<path d="M64.1899 15.8998C66.834 15.8998 68.7361 13.7049 68.7361 11.0534C68.7361 8.40197 67.0415 6.20998 64.1899 6.20998C61.3383 6.20998 59.6437 8.40489 59.6437 11.0534C59.6437 13.7019 61.5429 15.8998 64.1899 15.8998ZM59.6846 23.3098C59.3925 25.4637 56.3773 24.3048 56.3773 24.3048V11.0534C56.5847 6.83041 59.1061 3.35368 64.3126 3.27174C68.9026 3.18687 72.2012 6.58166 72.2509 10.9715C72.2918 15.61 69.037 19.0458 64.2717 18.838C63.3997 18.8101 62.5437 18.5962 61.7608 18.2107C60.9778 17.8251 60.286 17.2767 59.7314 16.6021C59.6905 16.5612 59.6905 21.7792 59.6905 23.3098" fill="white"/>
</g>
</svg>
