<svg overflow="visible" style="display: block;" viewBox="0 0 140.86 42.9911" fill="none" xmlns="http://www.w3.org/2000/svg" width="140.86" height="42.9911">
<g id="Vector">
<path d="M57.235 16.9208C57.3149 16.9208 57.3748 16.9407 57.4148 17.0007C57.4547 17.0406 57.4947 17.1006 57.4947 17.1805V25.9705C57.4947 26.0504 57.4747 26.1103 57.4148 26.1503C57.3748 26.1902 57.3149 26.2302 57.235 26.2302H55.3971C55.3172 26.2302 55.2572 26.2102 55.2173 26.1503C55.1773 26.1103 55.1374 26.0504 55.1374 25.9705V22.894C55.1374 22.8141 55.1174 22.7741 55.0774 22.7142C55.0375 22.6742 54.9776 22.6543 54.8976 22.6543H52.2606C52.1807 22.6543 52.1208 22.6742 52.0808 22.7142C52.0409 22.7541 52.0009 22.8141 52.0009 22.894V25.9705C52.0009 26.1303 51.921 26.2302 51.7412 26.2302H49.9033C49.7435 26.2302 49.6436 26.1503 49.6436 25.9705V17.1805C49.6436 17.0207 49.7235 16.9208 49.9033 16.9208H51.7412C51.901 16.9208 52.0009 17.0007 52.0009 17.1805V20.1571C52.0009 20.3169 52.0808 20.4168 52.2606 20.4168H54.8976C54.9776 20.4168 55.0175 20.3968 55.0774 20.3369C55.1174 20.2969 55.1374 20.237 55.1374 20.1571V17.1605C55.1374 17.0806 55.1574 17.0207 55.2173 16.9807C55.2572 16.9408 55.3172 16.9008 55.3971 16.9008H57.235V16.9208Z" fill="var(--fill-0, white)"/>
<path d="M69.4611 16.9807C69.4811 17.0207 69.4811 17.0806 69.4411 17.1405L66.4445 22.5544C66.4046 22.6143 66.3846 22.6942 66.3646 22.7741C66.3446 22.854 66.3247 22.9339 66.3247 23.0139V25.9705C66.3247 26.0504 66.3047 26.1103 66.2647 26.1503C66.2248 26.1902 66.1648 26.2302 66.0849 26.2302H64.247C64.1671 26.2302 64.1072 26.2102 64.0672 26.1503C64.0273 26.1103 63.9873 26.0504 63.9873 25.9705V23.0139C63.9873 22.9339 63.9673 22.854 63.9474 22.7741C63.9274 22.6942 63.8874 22.6143 63.8675 22.5544L60.8908 17.1405C60.8509 17.0806 60.8509 17.0207 60.8709 16.9807C60.8908 16.9408 60.9508 16.9208 61.0107 16.9208H63.0084C63.0883 16.9208 63.1483 16.9408 63.2082 16.9807C63.2681 17.0207 63.3281 17.0806 63.368 17.1405L65.146 20.6366L66.924 17.1405C66.9639 17.0806 67.0039 17.0207 67.0838 16.9807C67.1637 16.9408 67.2236 16.9208 67.3036 16.9208H69.3013C69.3812 16.9208 69.4411 16.9408 69.4611 16.9807Z" fill="var(--fill-0, white)"/>
<path d="M78.391 16.9208C78.6107 16.9208 78.8105 16.9607 78.9903 17.0406C79.1901 17.1205 79.3499 17.2404 79.4897 17.3803C79.6296 17.5201 79.7294 17.6799 79.8293 17.8797C79.9292 18.0795 79.9492 18.2792 79.9492 18.479V21.995C79.9492 22.2148 79.9092 22.4145 79.8293 22.5943C79.7494 22.7741 79.6296 22.9539 79.4897 23.0938C79.3499 23.2336 79.1901 23.3335 78.9903 23.4334C78.7905 23.5133 78.5907 23.5532 78.391 23.5532H75.4343C75.3544 23.5532 75.2945 23.5732 75.2545 23.6132C75.2146 23.6531 75.1746 23.7131 75.1746 23.793V25.9705C75.1746 26.1303 75.0947 26.2302 74.9149 26.2302H73.077C72.9172 26.2302 72.8173 26.1503 72.8173 25.9705V17.1805C72.8173 17.0207 72.8972 16.9208 73.077 16.9208H78.391ZM77.6918 21.3757V19.0184H75.0947V21.3757H77.6918Z" fill="var(--fill-0, white)"/>
<path d="M90.9367 16.9807C90.9767 17.0207 91.0166 17.0806 91.0166 17.1605V18.8386C91.0166 18.9185 90.9966 18.9585 90.9367 19.0184C90.8968 19.0583 90.8368 19.0783 90.7569 19.0783H86.3219C86.282 19.0783 86.262 19.0983 86.262 19.1383V20.5766C86.262 20.6166 86.282 20.6366 86.3219 20.6366H90.1176C90.1975 20.6366 90.2375 20.6565 90.2974 20.7165C90.3374 20.7564 90.3574 20.8163 90.3574 20.8963V22.2148C90.3574 22.2947 90.3374 22.3546 90.2974 22.3946C90.2575 22.4345 90.1975 22.4745 90.1176 22.4745H86.3219C86.282 22.4745 86.262 22.4944 86.262 22.5344V23.9927C86.262 24.0327 86.282 24.0527 86.3219 24.0527H90.7769C90.8568 24.0527 90.9167 24.0726 90.9567 24.1326C90.9966 24.1725 91.0366 24.2325 91.0366 24.3124V25.9905C91.0366 26.0704 91.0166 26.1303 90.9567 26.1703C90.9167 26.2102 90.8568 26.2502 90.7769 26.2502H84.1644C84.0046 26.2502 83.9047 26.1703 83.9047 25.9905V17.1605C83.9047 17.0806 83.9247 17.0207 83.9846 16.9807C84.0246 16.9408 84.0845 16.9008 84.1644 16.9008H90.7769C90.8168 16.9208 90.8768 16.9408 90.9367 16.9807Z" fill="var(--fill-0, white)"/>
<path d="M103.343 25.9905C103.383 26.0504 103.383 26.1103 103.363 26.1503C103.343 26.1902 103.283 26.2102 103.223 26.2102H101.105C101.025 26.2102 100.965 26.1902 100.885 26.1503C100.806 26.1103 100.766 26.0504 100.726 25.9905L99.3272 23.4733C99.3072 23.4334 99.2872 23.4134 99.2273 23.4134H97.6491C97.6091 23.4134 97.5892 23.4334 97.5892 23.4733V25.9505C97.5892 26.1103 97.5092 26.2102 97.3294 26.2102H95.4915C95.3317 26.2102 95.2318 26.1303 95.2318 25.9505V17.1605C95.2318 17.0007 95.3117 16.9008 95.4915 16.9008H101.485C101.704 16.9008 101.904 16.9408 102.084 17.0207C102.284 17.1006 102.444 17.2204 102.583 17.3603C102.723 17.5001 102.823 17.6599 102.923 17.8597C103.023 18.0595 103.043 18.2593 103.043 18.459V21.9551C103.043 22.2947 102.943 22.5943 102.743 22.874C102.544 23.1537 102.284 23.3335 101.984 23.4334L101.944 23.4534C101.884 23.4733 101.864 23.4933 101.904 23.5333L101.924 23.5532L103.343 25.9905ZM100.686 19.0783H97.4893V21.3358H100.686V19.0783Z" fill="var(--fill-0, white)"/>
<path d="M113.471 23.9528C113.551 23.9528 113.591 23.9728 113.651 24.0327C113.691 24.0726 113.711 24.1326 113.711 24.2125V25.9705C113.711 26.0504 113.691 26.1103 113.651 26.1503C113.611 26.1902 113.551 26.2302 113.471 26.2302H107.738C107.578 26.2302 107.478 26.1503 107.478 25.9705V17.1805C107.478 17.0207 107.558 16.9208 107.738 16.9208H109.576C109.735 16.9208 109.835 17.0007 109.835 17.1805V23.733C109.835 23.8129 109.855 23.8529 109.915 23.9128C109.955 23.9528 110.015 23.9728 110.095 23.9728H113.471V23.9528Z" fill="var(--fill-0, white)"/>
<path d="M119.464 25.9505C119.464 26.1103 119.384 26.2102 119.205 26.2102H117.367C117.207 26.2102 117.107 26.1303 117.107 25.9505V17.1605C117.107 17.0007 117.187 16.9008 117.367 16.9008H119.205C119.364 16.9008 119.464 16.9807 119.464 17.1605V25.9505Z" fill="var(--fill-0, white)"/>
<path d="M130.252 18.9185C130.252 18.9984 130.232 19.0583 130.172 19.0983C130.132 19.1383 130.072 19.1782 129.992 19.1782H128.114C128.035 19.1782 127.975 19.1982 127.935 19.2381C127.895 19.2781 127.855 19.338 127.855 19.4179V25.9705C127.855 26.0504 127.835 26.1103 127.795 26.1503C127.755 26.1902 127.695 26.2302 127.615 26.2302H125.777C125.697 26.2302 125.637 26.2102 125.597 26.1503C125.557 26.1103 125.517 26.0504 125.517 25.9705V19.4179C125.517 19.338 125.497 19.2981 125.457 19.2381C125.418 19.1982 125.358 19.1782 125.278 19.1782H123.4C123.32 19.1782 123.26 19.1582 123.22 19.0983C123.18 19.0583 123.14 18.9984 123.14 18.9185V17.1605C123.14 17.0007 123.22 16.9008 123.4 16.9008H129.992C130.072 16.9008 130.132 16.9208 130.172 16.9807C130.212 17.0207 130.252 17.0806 130.252 17.1605V18.9185Z" fill="var(--fill-0, white)"/>
<path d="M140.76 16.9807C140.8 17.0207 140.84 17.0806 140.84 17.1605V18.8386C140.84 18.9185 140.82 18.9585 140.76 19.0184C140.72 19.0583 140.66 19.0783 140.58 19.0783H136.145C136.105 19.0783 136.085 19.0983 136.085 19.1383V20.5766C136.085 20.6166 136.105 20.6366 136.145 20.6366H139.941C140.021 20.6366 140.061 20.6565 140.121 20.7165C140.161 20.7564 140.181 20.8163 140.181 20.8963V22.2148C140.181 22.2947 140.161 22.3546 140.121 22.3946C140.081 22.4345 140.021 22.4745 139.941 22.4745H136.145C136.105 22.4745 136.085 22.4944 136.085 22.5344V23.9927C136.085 24.0327 136.105 24.0527 136.145 24.0527H140.6C140.68 24.0527 140.74 24.0726 140.78 24.1326C140.82 24.1725 140.86 24.2325 140.86 24.3124V25.9905C140.86 26.0704 140.84 26.1303 140.78 26.1703C140.74 26.2102 140.68 26.2502 140.6 26.2502H133.988C133.828 26.2502 133.728 26.1703 133.728 25.9905V17.1605C133.728 17.0806 133.748 17.0207 133.808 16.9807C133.848 16.9408 133.908 16.9008 133.988 16.9008H140.6C140.66 16.9208 140.72 16.9408 140.76 16.9807Z" fill="var(--fill-0, white)"/>
<path d="M21.2758 0L0 33.6018L21.2359 42.9911L42.5517 33.6018L21.2758 0ZM21.2359 40.5339L3.35619 32.563L21.2758 4.33507L39.2155 32.563L21.2359 40.5339Z" fill="var(--fill-0, white)"/>
<path d="M33.2023 31.1047L24.2525 17.0406V24.612H19.338V26.9294H24.2525V31.1047H33.2023Z" fill="var(--fill-0, white)"/>
<path d="M18.2792 31.1047V17.0406L9.3294 31.1047H18.2792Z" fill="var(--fill-0, white)"/>
<path d="M49.8234 29.4465H50.8223L51.981 32.8027L53.1596 29.4465H54.0985V33.5219H53.5392V29.8461L52.2007 33.5219H51.6613L50.3628 29.8661V33.5219H49.8234V29.4465Z" fill="var(--fill-0, white)"/>
<path d="M59.3526 29.886C59.7721 29.4266 60.3315 29.3467 60.711 29.3467C61.8498 29.3467 62.5489 30.0658 62.5489 31.4642C62.5489 32.543 62.1094 33.6418 60.6511 33.6418C59.2527 33.6418 58.8132 32.6429 58.8132 31.5242C58.8332 31.0647 58.9131 30.3655 59.3526 29.886ZM59.7921 32.7827C60.0318 33.0624 60.3714 33.1623 60.6911 33.1623C61.0307 33.1623 61.3503 33.0624 61.59 32.7827C61.9297 32.3832 61.9496 31.724 61.9496 31.4443C61.9496 30.5253 61.65 29.8061 60.711 29.8061C59.6722 29.8061 59.4125 30.6452 59.4125 31.4842C59.4325 31.9437 59.5124 32.4232 59.7921 32.7827Z" fill="var(--fill-0, white)"/>
<path d="M67.823 29.4465V31.9837C67.823 32.4232 67.9229 32.603 68.0028 32.7228C68.2625 33.0624 68.662 33.1224 68.9417 33.1224C70.0404 33.1224 70.0404 32.2633 70.0404 31.9637V29.4465H70.5798V31.9637C70.5798 32.1834 70.5798 32.6429 70.2402 33.0425C69.8407 33.5419 69.2214 33.6018 68.9217 33.6018C68.5421 33.6018 67.8629 33.5019 67.4833 32.9426C67.3635 32.7628 67.2436 32.523 67.2436 31.9037V29.4465H67.823Z" fill="var(--fill-0, white)"/>
<path d="M75.5142 29.4465H76.2933L78.3111 32.8227V29.4465H78.8305V33.5219H78.1113L76.0336 30.0459V33.5219H75.5142V29.4465Z" fill="var(--fill-0, white)"/>
<path d="M84.5839 33.5419V29.946H83.2055V29.4465H86.5017V29.926H85.1233V33.5219H84.5839V33.5419Z" fill="var(--fill-0, white)"/>
<path d="M91.7358 29.4465H92.3351L93.9932 33.5219H93.3739L92.9344 32.4631H91.0366L90.5971 33.5219H90.0177L91.7358 29.4465ZM91.2164 32.0036H92.7546L91.9955 30.0059L91.2164 32.0036Z" fill="var(--fill-0, white)"/>
<path d="M98.3882 29.4465H98.9476V33.5219H98.3882V29.4465Z" fill="var(--fill-0, white)"/>
<path d="M103.842 29.4465H104.621L106.639 32.8227V29.4465H107.158V33.5219H106.439L104.361 30.0459V33.5219H103.842V29.4465Z" fill="var(--fill-0, white)"/>
<path d="M117.067 30.4654C117.007 30.0858 116.707 29.8261 116.148 29.8261C115.768 29.8261 115.449 29.926 115.229 30.1657C114.87 30.5653 114.79 31.0847 114.79 31.4842C114.79 31.8238 114.87 32.4032 115.169 32.7628C115.429 33.0624 115.848 33.1623 116.248 33.1623C116.707 33.1623 117.007 33.0624 117.127 33.0225V31.8039H116.188V31.3244H117.686V33.3421C117.447 33.422 116.927 33.5818 116.228 33.5818C115.469 33.5818 115.029 33.3621 114.75 33.0824C114.35 32.6829 114.17 32.1035 114.17 31.5242C114.17 31.1246 114.27 30.1457 115.049 29.6263C115.449 29.3467 115.988 29.3467 116.188 29.3467C116.508 29.3467 117.007 29.3866 117.387 29.7862C117.626 30.0459 117.646 30.2856 117.666 30.4454H117.067V30.4654Z" fill="var(--fill-0, white)"/>
<path d="M125.038 29.4465V29.926H123.04V31.2045H124.938V31.684H123.04V33.0425H125.078V33.5419H122.461V29.4465H125.038Z" fill="var(--fill-0, white)"/>
<path d="M131.111 29.4465H131.71L133.369 33.5219H132.749L132.31 32.4631H130.412L129.972 33.5219H129.393L131.111 29.4465ZM130.592 32.0036H132.13L131.371 30.0059L130.592 32.0036Z" fill="var(--fill-0, white)"/>
<path d="M137.764 29.4465H139.222C139.422 29.4465 139.861 29.4465 140.161 29.6463C140.46 29.8461 140.62 30.1457 140.62 30.4854C140.62 30.765 140.52 31.0247 140.341 31.2045C140.161 31.3843 139.981 31.4443 139.861 31.4642C140.261 31.5641 140.421 31.7439 140.48 32.2434C140.54 32.7228 140.58 33.0824 140.74 33.5219H140.141C140.041 33.2422 140.001 32.7428 139.961 32.4431C139.901 31.8438 139.761 31.684 139.062 31.684H138.343V33.5219H137.784V29.4465H137.764ZM138.303 31.2045H139.202C139.262 31.2045 139.581 31.2045 139.741 31.1047C139.821 31.0647 140.021 30.9049 140.021 30.5653C140.021 29.906 139.442 29.906 139.202 29.906H138.303V31.2045Z" fill="var(--fill-0, white)"/>
</g>
</svg>
