<svg overflow="visible" style="display: block;" viewBox="0 0 93.5729 36.6667" fill="none" xmlns="http://www.w3.org/2000/svg">
<path id="Calm Logo" d="M44.9595 4.84705C45.5097 5.87902 46.7343 12.3377 43.442 19.4103C43.442 19.179 43.442 18.9566 43.442 18.7342C43.442 7.24905 44.8708 4.64243 44.9772 4.84705H44.9595ZM28.7377 30.4239C27.4155 33.1461 24.5048 32.9771 24.5492 30.0147C24.5935 27.0522 28.365 25.0683 29.3767 27.1767C29.4588 27.3571 29.5241 27.5448 29.5719 27.7372C29.3902 28.6543 29.1105 29.5491 28.7377 30.4061V30.4239ZM93.4029 31.6249C93.363 31.5481 93.308 31.4802 93.2412 31.4254C93.1744 31.3705 93.0972 31.3298 93.0142 31.3057C92.9313 31.2816 92.8443 31.2745 92.7586 31.2851C92.6729 31.2956 92.5902 31.3234 92.5155 31.3669C91.8411 31.7405 89.5871 32.4967 88.8771 32.7458C86.2149 33.1906 82.9404 33.0839 81.3342 29.1873C80.8899 27.997 80.2933 26.8696 79.5594 25.8334C78.672 24.579 75.5483 23.0755 72.682 25.78C71.9921 26.4269 71.3949 27.1664 70.9072 27.9774C70.712 28.2888 70.5345 28.6001 70.357 28.867V28.7425C70.0997 27.8529 69.2921 24.6324 65.92 24.1075C65.4585 24.1075 63.5772 23.8584 60.986 26.7052C60.1187 27.6815 59.3266 28.7224 58.6167 29.8189V29.8189C58.5375 29.3575 58.3972 28.9087 58.1995 28.4845C55.9899 25.0861 52.6533 27.7995 51.2157 28.8137C47.9855 31.0822 46.4947 34.1514 44.5335 27.2034C44.2733 26.2194 44.0688 25.2215 43.9212 24.2143C45.8735 20.8871 49.8668 10.7364 47.5773 3.93964C47.4265 3.51261 46.6278 1.27074 44.7199 1.45756C44.4448 1.45756 42.2618 1.25295 41.0638 7.3647C40.2233 12.659 40.0237 18.0357 40.4692 23.378C40.4692 23.636 40.558 24.152 40.6556 24.8281C38.7743 28.0664 36.2895 31.7494 34.7809 31.9451C32.8198 32.1675 33.37 30.3616 32.172 26.3316C31.9743 25.4712 31.4791 24.7087 30.7741 24.1795C30.0691 23.6502 29.1999 23.3883 28.3206 23.4403C26.8653 23.5026 25.3301 23.8851 23.2181 26.1893C19.8016 29.9346 12.0102 35.5748 6.43726 32.0341C5.83382 31.5626 2.81663 29.0894 3.92589 21.6966C4.25739 19.6611 4.8541 17.6781 5.7007 15.7984C6.51632 13.9615 7.54385 12.2267 8.76226 10.6296C14.486 3.58377 19.4111 2.75643 20.4227 2.80091C22.9341 2.80091 23.5908 6.05695 23.5908 6.03026C23.5926 6.17446 23.6244 6.3167 23.684 6.44796C23.7436 6.57922 23.8297 6.69664 23.9369 6.79276C24.0442 6.88888 24.1701 6.96163 24.3069 7.00636C24.4437 7.05109 24.5882 7.06683 24.7314 7.0526C24.8745 7.03838 25.0132 6.99448 25.1385 6.9237C25.2639 6.85292 25.3732 6.7568 25.4595 6.64144C25.5458 6.52608 25.6073 6.39399 25.64 6.25356C25.6727 6.11312 25.676 5.96741 25.6495 5.82565C25.64 5.12338 25.4986 4.4292 25.2325 3.7795C24.8077 2.61231 24.0443 1.59919 23.0406 0.870406C19.8992 -1.32698 12.7911 0.44339 5.91367 8.39667C4.49398 10.2 3.30176 12.1721 2.36405 14.2682C1.36948 16.4428 0.668202 18.7404 0.278667 21.1006C-1.57601 34.2137 6.38399 36.2954 7.74172 36.5534C14.7167 37.3719 19.8548 33.5643 22.2863 31.2157C23.1737 35.5926 27.5309 35.6638 29.4388 33.671C29.9274 33.1454 30.3288 32.5447 30.6279 31.8918C31.7637 36.0285 35.3933 34.6229 35.8281 34.4361C37.8514 33.6799 39.9723 30.8776 41.472 28.4756C42.4215 31.7316 44.2584 35.219 47.7903 34.8453C49.9201 34.792 55.2534 29.1072 55.7769 29.8456C56.3005 30.584 56.3981 31.6249 56.3626 33.2707C56.324 33.5184 56.3501 33.772 56.4383 34.0066C56.5266 34.2412 56.674 34.4488 56.8662 34.6092C57.0584 34.7696 57.2888 34.8774 57.535 34.9219C57.7811 34.9664 58.0346 34.9461 58.2706 34.8631C59.158 34.6052 59.788 32.7636 60.7642 31.1712C61.3574 30.1627 62.0597 29.2229 62.8584 28.3688C63.24 27.9507 64.9705 26.1537 66.1951 26.7675C66.6383 27.0271 67.0044 27.4006 67.2556 27.8494C67.5067 28.2983 67.6339 28.8062 67.6238 29.3208C67.7038 30.0654 67.7453 30.8137 67.748 31.5626C67.748 34.3471 69.017 34.7386 69.3897 34.8453C72.4069 35.6638 72.5933 29.9702 74.8118 27.8618C75.0159 27.6394 76.9504 25.6377 78.0597 28.9115C79.657 34.8098 84.5644 37.0249 91.1755 33.7422C91.9418 33.3826 92.6603 32.9283 93.3142 32.39C93.439 32.2973 93.5259 32.1621 93.5586 32.0099C93.5913 31.8576 93.5675 31.6986 93.4917 31.5626" fill="var(--fill-0, white)"/>
</svg>
