<svg overflow="visible" style="display: block;" viewBox="0 0 99.75 50.7247" fill="none" xmlns="http://www.w3.org/2000/svg">
<g id="Vector">
<path d="M34.3097 0V14.5254C34.306 17.0494 34.9677 19.2686 36.4523 21.7216C37.4884 23.4303 39.1273 24.9848 41.7687 26.7643C44.6368 28.6875 48.2999 29.7846 49.7403 30.1657L49.875 30.2029L50.008 30.1657C51.4504 29.7846 55.1115 28.6928 57.9833 26.7661C60.6281 24.983 62.267 23.4268 63.3014 21.7181C64.7896 19.2703 65.4513 17.0494 65.4476 14.5219V0H34.3097ZM61.4563 14.5999C61.46 16.796 60.9669 18.7262 59.86 20.8549C59.0919 22.3403 57.8716 23.6927 55.9062 25.2436C53.7706 26.9185 51.0477 27.8686 49.9744 28.1983L49.875 28.2302L49.7756 28.1983C48.7043 27.8668 45.9798 26.9132 43.8474 25.2418C41.882 23.6962 40.6634 22.3438 39.8937 20.8585C38.7885 18.728 38.2974 16.7977 38.3007 14.6034V2.99371C38.3007 2.70302 38.5261 2.46728 38.8044 2.46728C38.8044 2.46728 44.2218 2.03834 49.8803 2.03834C55.5388 2.03834 60.9562 2.46728 60.9562 2.46728C61.2349 2.46728 61.46 2.70302 61.46 2.99371V14.5999H61.4563Z" fill="var(--fill-0, white)"/>
<path d="M12.3087 44.03C11.9362 43.4256 11.3774 42.9346 10.6483 42.5714C10.3681 42.4382 10.063 42.3372 9.74903 42.2575C10.1322 42.1192 10.4692 41.9421 10.7512 41.7259C10.8701 41.6335 10.9783 41.5361 11.0812 41.4351C11.2515 41.2684 11.4022 41.0913 11.5246 40.9016C11.7233 40.5949 11.8723 40.2583 11.9681 39.9018C12.0657 39.5367 12.1153 39.1523 12.1153 38.7586C12.1153 38.0303 11.9468 37.4027 11.5991 36.8392C11.2568 36.2824 10.7406 35.8305 10.0701 35.4956C9.73836 35.3378 9.37474 35.2172 8.99512 35.1428C8.60842 35.0684 8.19869 35.0295 7.77651 35.0295C7.71619 35.0295 0 35.0311 0 35.0311V35.4016C0.209313 35.6657 0.555212 36.2967 0.658094 36.8568V50.4164H7.04035C7.21598 50.4164 7.33837 50.4164 7.35789 50.4144C7.56188 50.4074 7.76055 50.3968 7.9539 50.3825C8.13305 50.3702 8.30868 50.3559 8.47719 50.3383C9.0448 50.2798 9.59648 50.1592 10.1162 49.9768L10.1251 49.9731C10.6129 49.8153 11.035 49.601 11.3827 49.3349C11.5122 49.2359 11.6293 49.1296 11.741 49.0196C11.9255 48.8389 12.0887 48.6455 12.2217 48.4398C12.4382 48.1066 12.5996 47.7415 12.7042 47.3551C12.8107 46.96 12.8639 46.5417 12.8639 46.1145C12.8639 45.3241 12.6812 44.6416 12.3033 44.03H12.3087ZM3.67539 36.8568C3.67539 36.8568 5.79867 36.8568 5.91042 36.8568C6.03105 36.8568 6.12329 36.8568 6.16053 36.8568C6.42307 36.8568 6.68029 36.8797 6.92152 36.9276C7.15743 36.9738 7.38625 37.0499 7.59204 37.1475C8.01066 37.3565 8.33172 37.6386 8.54635 37.9858C8.76277 38.3386 8.86741 38.7303 8.86741 39.1842C8.86741 39.4304 8.83725 39.6696 8.77517 39.8985C8.71486 40.1198 8.62262 40.3308 8.49847 40.5221C8.42219 40.6411 8.32816 40.7511 8.22173 40.8554C8.15789 40.9192 8.09049 40.9796 8.01598 41.0365C7.81731 41.1886 7.57428 41.3129 7.29402 41.4032H7.2887C6.98892 41.5096 6.67318 41.5787 6.34679 41.6122C6.24924 41.6229 6.14812 41.6302 6.04525 41.6388C5.9335 41.6461 5.81998 41.6531 5.70291 41.6568C5.69223 41.6568 5.62128 41.6568 5.5202 41.6568H3.67539V36.8532V36.8568ZM9.62484 46.8128C9.56453 47.0378 9.47229 47.2507 9.34814 47.4438C9.27186 47.5644 9.17783 47.676 9.0714 47.7823C9.00756 47.8461 8.94016 47.9083 8.86565 47.9667C8.66698 48.1209 8.42395 48.2468 8.14369 48.3388H8.13837C7.83859 48.4472 7.52285 48.5163 7.19646 48.5515C7.09891 48.5621 6.99779 48.5711 6.89492 48.5781C6.78317 48.5854 6.66962 48.5923 6.55254 48.596C6.5419 48.596 6.47095 48.596 6.36987 48.596H3.67539V43.7359C3.67539 43.7359 6.64834 43.7359 6.75833 43.7359C6.87896 43.7359 6.97119 43.7359 7.00843 43.7359C7.27098 43.7359 7.52817 43.7605 7.76943 43.8067C8.00534 43.8545 8.23416 43.9306 8.43991 44.03C8.85856 44.2409 9.17963 44.528 9.39425 44.8792C9.61065 45.2353 9.71532 45.6324 9.71532 46.0915C9.71532 46.3394 9.68516 46.5843 9.62308 46.8145L9.62484 46.8128Z" fill="var(--fill-0, white)"/>
<path d="M30.9801 35.0328V35.4033C31.1894 35.6674 31.5353 36.2983 31.6382 36.8585V50.4164H34.6272V35.0348H30.9801V35.0328Z" fill="var(--fill-0, white)"/>
<path d="M75.1327 34.7261C70.228 34.7261 66.5349 37.7801 66.5349 42.7256C66.5349 47.6707 70.2297 50.7247 75.1327 50.7247C80.0357 50.7247 83.7092 47.6707 83.7092 42.7256C83.7092 37.7801 80.0145 34.7261 75.1327 34.7261ZM75.1274 48.5993C72.362 48.5993 70.2795 46.3553 70.2795 42.7236C70.2795 39.0918 72.362 36.8479 75.1274 36.8479C77.8928 36.8479 79.9629 39.0918 79.9629 42.7236C79.9629 46.3553 77.8805 48.5993 75.1274 48.5993Z" fill="var(--fill-0, white)"/>
<path d="M27.8706 48.5907L24.3867 43.2927C24.4009 43.2874 24.4382 43.2748 24.4382 43.2748C24.8905 43.11 25.2843 42.8867 25.6054 42.6103C25.726 42.5056 25.836 42.3957 25.9389 42.2807C26.1109 42.091 26.2617 41.8907 26.3859 41.676C26.5863 41.3288 26.7371 40.9477 26.8346 40.5454C26.934 40.1324 26.9836 39.6982 26.9836 39.2513C26.9836 38.4273 26.8134 37.7183 26.4639 37.0801C26.118 36.4508 25.5983 35.9405 24.9224 35.5611C24.5872 35.382 24.22 35.2474 23.8386 35.1624C23.4484 35.0773 23.0351 35.0348 22.6094 35.0348C22.5473 35.0348 15.1078 35.0348 15.1078 35.0348V35.4053C15.3171 35.6694 15.663 36.3003 15.7659 36.8605V50.4164H18.7548V43.7376H20.9561L25.3482 50.4164H29.0714V50.0459C28.8621 49.7818 28.2395 49.1186 27.8723 48.5924L27.8706 48.5907ZM23.938 39.1859C23.938 39.4324 23.9078 39.6716 23.8457 39.9002C23.7854 40.1218 23.6932 40.3328 23.569 40.5241C23.4927 40.6427 23.3987 40.7527 23.2923 40.8574C23.2284 40.9212 23.161 40.9813 23.0865 41.0381C22.8879 41.1906 22.6448 41.3145 22.3646 41.4049H22.3593C22.0595 41.5112 21.7437 41.5803 21.4174 41.6142C21.3198 41.6249 21.2187 41.6318 21.1158 41.6388C21.004 41.6461 20.8905 41.6531 20.7734 41.6568C20.7628 41.6568 18.7477 41.6568 18.7477 41.6568V36.8532C18.7477 36.8532 21.1956 36.8532 21.2329 36.8532C21.4954 36.8532 21.7526 36.8764 21.9938 36.9243C22.2298 36.9701 22.4586 37.0465 22.6644 37.1439C23.083 37.3532 23.404 37.6349 23.6187 37.9825C23.8351 38.335 23.9397 38.7267 23.9397 39.1805L23.938 39.1859Z" fill="var(--fill-0, white)"/>
<path d="M97.0697 35.0328V35.4033C97.2792 35.6674 97.6213 36.2967 97.7277 36.8532V45.5596L88.8729 35.0328H85.5556V35.4033C85.765 35.6674 86.1109 36.2983 86.2139 36.8585V50.4164H88.2379V38.9217L97.907 50.4164H99.75V35.0348H97.068L97.0697 35.0328Z" fill="var(--fill-0, white)"/>
<path d="M53.0963 35.0328V37.525H53.467C53.7313 37.3745 54.3628 37.1299 54.9217 37.0552H58.269V50.4144H61.2578V37.0552H64.6051C65.1637 37.1299 65.7951 37.3761 66.0594 37.525H66.4302V35.0328H53.0963Z" fill="var(--fill-0, white)"/>
<path d="M50.4143 48.5977L46.3202 42.3781L51.8138 35.0328H48.825L44.9208 40.253L41.4847 35.0328H37.9921V35.4033C38.2013 35.6674 38.824 36.3306 39.1911 36.8585V36.8552L43.0617 42.7379L37.3181 50.418H40.307L44.4612 44.8649L48.1171 50.418H51.61V50.0459C51.4005 49.7818 50.7781 49.1186 50.4107 48.5924V48.5993L50.4143 48.5977Z" fill="var(--fill-0, white)"/>
</g>
</svg>
