<svg overflow="visible" style="display: block;" viewBox="0 0 112.196 27.5" fill="none" xmlns="http://www.w3.org/2000/svg" width="112.196" height="27.5">
<g id="Vector">
<path d="M24.2779 9.3163H20.1655V7.29159H30.781V9.3163H26.6687V20.6249H24.2779V9.3163Z" fill="var(--fill-0, white)"/>
<path d="M37.0493 12.4869C35.7889 12.4869 34.8924 13.3202 34.8924 14.7655V20.6249H32.5406V7.29159H34.8404V12.3242H34.9574C35.4186 11.1913 36.3931 10.4947 37.9263 10.4947C39.9987 10.4947 41.363 11.8423 41.363 14.2577V20.6249H39.0112V14.6223C39.0112 13.2746 38.2836 12.4869 37.0493 12.4869Z" fill="var(--fill-0, white)"/>
<path d="M43.5773 20.6249H45.9292V14.746C45.9292 13.4765 46.8841 12.5781 48.177 12.5781C48.5732 12.5781 49.067 12.6496 49.2684 12.7147V10.5468C49.0541 10.5077 48.6837 10.4817 48.4239 10.4817C47.2804 10.4817 46.3254 11.1327 45.9616 12.2916H45.8577V10.6249H43.5773V20.6249Z" fill="var(--fill-0, white)"/>
<path fill-rule="evenodd" clip-rule="evenodd" d="M58.9945 17.9426C58.5787 19.6809 56.9805 20.8203 54.6547 20.8203C51.6468 20.8203 49.8082 18.8215 49.8082 15.6835C49.8082 12.5976 51.6728 10.4947 54.5313 10.4947C56.987 10.4947 59.0919 12.0376 59.0919 15.5468V16.2694H52.1405C52.16 17.9817 53.167 18.9843 54.6872 18.9843C55.7007 18.9843 56.4803 18.5416 56.7986 17.6952L58.9945 17.9426ZM54.5638 12.3306C53.1605 12.3306 52.2185 13.4048 52.147 14.6809H56.8376C56.8246 13.3202 55.915 12.3306 54.5638 12.3306Z" fill="var(--fill-0, white)"/>
<path fill-rule="evenodd" clip-rule="evenodd" d="M65.3163 20.8203C67.6423 20.8203 69.2405 19.6809 69.6562 17.9426L67.4601 17.6952C67.1416 18.5416 66.362 18.9843 65.349 18.9843C63.8286 18.9843 62.8216 17.9817 62.8021 16.2694H69.7534V15.5468C69.7534 12.0376 67.6487 10.4947 65.1929 10.4947C62.3344 10.4947 60.4698 12.5976 60.4698 15.6835C60.4698 18.8215 62.3083 20.8203 65.3163 20.8203ZM62.8086 14.6809C62.8801 13.4048 63.8221 12.3306 65.2255 12.3306C66.5769 12.3306 67.4863 13.3202 67.4991 14.6809H62.8086Z" fill="var(--fill-0, white)"/>
<path d="M80.1874 17.2069C80.0186 19.3293 78.4204 20.8203 75.9128 20.8203C72.9313 20.8203 71.1316 18.6913 71.1316 15.664C71.1316 12.6106 72.9767 10.4947 75.9 10.4947C78.336 10.4947 80.025 11.9205 80.1874 14.0884H77.9401C77.7579 13.1249 77.0627 12.3957 75.9326 12.3957C74.4834 12.3957 73.5158 13.6067 73.5158 15.6249C73.5158 17.6692 74.4642 18.8997 75.9326 18.8997C76.9655 18.8997 77.7387 18.2812 77.9401 17.2069H80.1874Z" fill="var(--fill-0, white)"/>
<path fill-rule="evenodd" clip-rule="evenodd" d="M86.2886 20.8203C89.2119 20.8203 91.0704 18.7564 91.0704 15.664C91.0704 12.565 89.2119 10.4947 86.2886 10.4947C83.3653 10.4947 81.5074 12.565 81.5074 15.664C81.5074 18.7564 83.3653 20.8203 86.2886 20.8203ZM86.3014 18.9322C84.684 18.9322 83.8916 17.4869 83.8916 15.6575C83.8916 13.828 84.684 12.3632 86.3014 12.3632C87.8932 12.3632 88.6862 13.828 88.6862 15.6575C88.6862 17.4869 87.8932 18.9322 86.3014 18.9322Z" fill="var(--fill-0, white)"/>
<path d="M92.8835 7.29159H95.2351V20.6249H92.8835V7.29159Z" fill="var(--fill-0, white)"/>
<path d="M102.453 10.6249H100.485V8.22909H98.1334V10.6249H96.7169V12.4478H98.1334V18.0077C98.12 19.8892 99.4848 20.8137 101.252 20.7616C101.921 20.7421 102.382 20.6119 102.635 20.5273L102.239 18.6848C102.109 18.7173 101.843 18.776 101.55 18.776C100.96 18.776 100.485 18.5676 100.485 17.6171V12.4478H102.453V10.6249Z" fill="var(--fill-0, white)"/>
<path d="M107.966 10.4947C110.305 10.4947 111.656 11.5755 111.981 13.2681L109.838 13.5025C109.656 12.8449 109.084 12.2525 107.999 12.2525C107.018 12.2525 106.271 12.7212 106.277 13.3983C106.271 13.9778 106.674 14.3294 107.687 14.5572L109.389 14.9218C111.273 15.332 112.189 16.2043 112.196 17.6301C112.189 19.5247 110.428 20.8203 107.934 20.8203C105.485 20.8203 103.945 19.733 103.653 17.8971L105.946 17.6757C106.147 18.5741 106.849 19.0429 107.927 19.0429C109.045 19.0429 109.786 18.5285 109.786 17.8449C109.786 17.2786 109.357 16.9074 108.441 16.7056L106.738 16.3475C104.822 15.9504 103.926 14.9869 103.932 13.5285C103.926 11.6796 105.563 10.4947 107.966 10.4947Z" fill="var(--fill-0, white)"/>
<path d="M12.971 7.43012C12.971 3.02048 8.77966 1.12307 4.77724 2.21121C4.62278 2.25321 4.61584 2.46281 4.76513 2.52062L5.65643 2.86571C5.81495 2.92709 5.79983 3.17554 5.64073 3.23539C2.96382 4.24233 1.97723 8.14691 1.97723 10.7195C1.97723 11.2132 2.22276 11.5722 2.70163 11.5722C3.378 11.5722 3.60223 11.0448 3.86307 10.4312C4.02948 10.0397 4.21079 9.61323 4.53392 9.26628C4.82906 8.94939 5.25977 8.70567 5.70739 8.45241C6.16456 8.19372 6.6394 7.92505 7.0054 7.55821C7.24248 7.32069 7.36303 6.8271 7.42199 6.46301C7.45794 6.24128 7.68491 6.10244 7.84402 6.26073C8.17556 6.59047 8.41155 7.17884 8.41155 7.81441C8.41155 8.8745 7.72226 9.26021 7.01589 9.65551C6.58408 9.89712 6.14588 10.1423 5.85488 10.5473C5.70367 10.7578 5.5708 11.0168 5.42979 11.2915C4.94564 12.235 4.36541 13.3657 2.6164 13.3657C1.03978 13.3657 0.187541 12.272 0.187541 10.889C0.187541 8.24603 0.871354 5.6084 2.48969 3.38437C2.59789 3.23567 2.42954 3.02321 2.26401 3.10291L0.880185 3.76921C0.591162 3.90838 0.33028 3.62936 0.516156 3.36752C1.38075 2.14959 3.42582 0 7.09059 0C11.7779 0 15.4425 2.94643 15.4425 7.34474C15.4425 10.1355 14.0747 11.9351 13.2615 12.7584C13.0009 13.0223 13.0228 13.5079 13.3103 13.7419C14.3077 14.5537 16.1243 16.4319 16.1243 19.3439C16.1243 23.8277 12.6727 27.5 7.68721 27.5C2.70633 27.5 0.767525 24.3494 0.0162855 21.7309C-0.122713 21.2464 0.665839 21.0445 0.946627 21.4629C2.04895 23.1049 3.94233 24.7671 7.09059 24.7671C10.2487 24.7671 12.9284 22.7601 12.9284 19.2158C12.9284 16.7705 10.8152 14.7624 9.69183 13.8676C9.3901 13.6273 9.40321 13.124 9.71383 12.8953C10.853 12.0565 12.971 10.1336 12.971 7.43012Z" fill="var(--fill-0, white)"/>
<path d="M6.25239 5.39593C6.25239 5.75586 5.96123 6.04764 5.60206 6.04764C5.24289 6.04764 4.95172 5.75586 4.95172 5.39593C4.95172 5.036 5.24289 4.74421 5.60206 4.74421C5.96123 4.74421 6.25239 5.036 6.25239 5.39593Z" fill="var(--fill-0, white)"/>
</g>
</svg>
