<svg overflow="visible" style="display: block;" viewBox="0 0 106.406 26.975" fill="none" xmlns="http://www.w3.org/2000/svg" width="106.406" height="26.975">
<g id="Vector">
<path d="M34.7849 8.52111L36.2033 7.04807L39.9991 12.2753H43.2337L38.0298 5.20678L43.0092 0H39.7542L34.7849 5.37045V0H32.0911V12.2753H34.7849V8.52111Z" fill="white"/>
<path d="M53.5396 9.8714H46.8969V7.29358H52.6621V4.88967H46.8969V2.40392H53.4478V0H44.2133V12.2753H53.5396V9.8714Z" fill="white"/>
<path d="M57.7742 0H55.0804V12.2753H57.7742V0Z" fill="white"/>
<path d="M62.9068 12.2753H65.6006V2.49598H69.325V0H59.1823V2.49598H62.9068V12.2753Z" fill="white"/>
<path d="M73.4575 7.34473H78.4166V12.2753H81.1104V0H78.4166V4.85898H73.4575V0H70.7535V12.2753H73.4575V7.34473Z" fill="white"/>
<path d="M37.1012 14.4951H32.1013V26.7704H34.7951V23.0878H36.8461C39.5909 23.0878 41.795 21.6148 41.795 18.771V18.7403C41.795 16.2341 40.0297 14.4951 37.1012 14.4951ZM39.0603 18.8221C39.0603 19.8758 38.2746 20.6839 36.9277 20.6839H34.7951V16.9297H36.8767C38.2236 16.9297 39.0603 17.5742 39.0603 18.7915V18.8221Z" fill="white"/>
<path d="M53.3968 18.5766V18.5357C53.3968 17.3798 53.0294 16.4182 52.3458 15.7329C51.5397 14.9247 50.3356 14.4849 48.7744 14.4849H43.1725V26.7602H45.8663V22.8321H47.9785L50.6009 26.7602H53.7539L50.7642 22.3718C52.3254 21.7887 53.3866 20.5509 53.3866 18.5664L53.3968 18.5766ZM50.6723 18.7198C50.6723 19.753 49.9172 20.4589 48.6112 20.4589H45.8867V16.9297H48.5601C49.8764 16.9297 50.6825 17.523 50.6825 18.6789V18.7096L50.6723 18.7198Z" fill="white"/>
<path d="M61.0497 14.2803C57.2742 14.2803 54.5294 17.1445 54.5294 20.6328V20.6634C54.5294 24.1517 57.2436 26.975 61.019 26.975C64.7945 26.975 67.5393 24.121 67.5393 20.6225V20.5918C67.5393 17.1036 64.8251 14.2803 61.0497 14.2803ZM64.723 20.6634C64.723 22.7707 63.2129 24.4892 61.0497 24.4892C58.8864 24.4892 57.3457 22.7298 57.3457 20.6328V20.6021C57.3457 18.4948 58.8456 16.7763 61.019 16.7763C63.1925 16.7763 64.7332 18.5357 64.7332 20.6328V20.6634H64.723Z" fill="white"/>
<path d="M80.7329 22.8014L77.988 14.4542H75.682L72.9371 22.8014L70.3964 14.4951H67.5087L71.6923 26.8522H74.029L76.7942 18.8221L79.5594 26.8522H81.9063L86.0899 14.4951H83.2736L80.7329 22.8014Z" fill="white"/>
<path d="M91.9061 19.4155C89.7939 18.8733 89.2633 18.6073 89.2633 17.7992V17.7685C89.2633 17.1752 89.8041 16.6944 90.8347 16.6944C91.8653 16.6944 92.9367 17.1547 94.0183 17.9015L95.4162 15.8658C94.1714 14.8634 92.651 14.3007 90.8653 14.3007C88.3654 14.3007 86.5797 15.7738 86.5797 18.0038V18.0345C86.5797 20.4691 88.1715 21.1545 90.6408 21.7887C92.6918 22.3206 93.1102 22.6684 93.1102 23.3538V23.3845C93.1102 24.1005 92.4469 24.5404 91.3449 24.5404C89.947 24.5404 88.7939 23.9675 87.6919 23.0469L86.1001 24.9598C87.5695 26.2794 89.4368 26.9239 91.2939 26.9239C93.9367 26.9239 95.7938 25.5531 95.7938 23.1185V23.0776C95.7938 20.9396 94.3958 20.0497 91.9061 19.395V19.4155Z" fill="white"/>
<path d="M99.7631 24.3665V21.7887H105.538V19.3848H99.7631V16.8888H106.324V14.4951H97.0897V26.7704H106.406V24.3665H99.7631Z" fill="white"/>
<path d="M7.33657 0H3.74481V26.7704H7.33657V0Z" fill="white"/>
<path d="M1.19385 0H0V26.7704H1.19385V0Z" fill="white"/>
<path d="M12.5916 17.7787L21.5505 26.7704H26.6321L15.1425 15.2316L12.5916 17.7787Z" fill="white"/>
<path d="M16.5098 0L8.9998 7.53909V9.41107L18.3771 0H16.5098Z" fill="white"/>
<path d="M9.77529 20.5202L15.9894 26.7704H17.8465L10.7038 19.5791L9.77529 20.5202Z" fill="white"/>
<path d="M8.9998 13.0118V18.1675L27.1218 0H21.9791L8.9998 13.0118Z" fill="white"/>
</g>
</svg>
