<svg overflow="visible" style="display: block;" viewBox="0 0 83.125 52.6316" fill="none" xmlns="http://www.w3.org/2000/svg">
<g id="Vector">
<path d="M22.1359 46.3936H21.0991C20.8566 46.3936 20.6441 46.4079 20.4618 46.4349C20.3413 46.4508 20.2827 46.5588 20.2827 46.7574C20.2827 46.9067 20.2827 47.0353 20.2732 47.145L20.2684 47.2323H19.8087V46.041H25.3858V47.2323H24.9261L24.9213 47.145C24.9134 47.0353 24.9086 46.9083 24.9086 46.7574C24.9086 46.5588 24.85 46.4508 24.7327 46.4349C24.5535 46.4079 24.3363 46.3936 24.097 46.3936H23.057V51.4148C23.057 51.804 23.0919 52.0407 23.1632 52.1249C23.2345 52.209 23.4438 52.2567 23.7926 52.2774L23.9812 52.2805V52.5537H21.2164V52.2805L21.4051 52.2774C21.7538 52.2583 21.9615 52.2106 22.0297 52.1249C22.0994 52.0423 22.1327 51.8056 22.1327 51.4148V46.3936H22.1359Z" fill="white"/>
<path d="M29.7027 49.3911C30.8394 49.3911 31.4053 48.8462 31.4053 47.7581C31.4053 47.2403 31.2959 46.8733 31.0914 46.6589C30.8726 46.4428 30.5112 46.3364 30.0007 46.3364H29.3793V49.3911H29.7027ZM29.3682 49.6833V51.4148C29.3682 51.8072 29.3999 52.0438 29.4601 52.1249C29.5204 52.2059 29.6979 52.2567 29.9928 52.2774L30.0768 52.2805V52.5522H27.6465V52.2805L27.7289 52.2774C28.0825 52.2535 28.2917 52.2027 28.3567 52.1249C28.4233 52.047 28.455 51.8103 28.455 51.4148V47.1799C28.455 46.7828 28.4217 46.5477 28.3567 46.4714C28.2901 46.3952 28.0825 46.3459 27.7289 46.3221L27.6465 46.3142V46.0425H29.2001L29.9896 46.0235L30.3384 46.0171C31.6764 46.0171 32.347 46.5636 32.347 47.658C32.347 48.5682 31.8999 49.1766 31.0153 49.4832L32.2757 51.4005C32.5531 51.8072 32.7386 52.0518 32.8242 52.1312C32.9098 52.209 33.0192 52.2535 33.1571 52.2567C33.1983 52.2646 33.2966 52.271 33.452 52.2774L33.5392 52.2805V52.5522H31.8825L30.1228 49.6833H29.3682Z" fill="white"/>
<path d="M37.225 50.1869H39.7093L38.4759 47.2276L37.225 50.1869ZM37.0792 50.5427L36.7082 51.4116C36.564 51.7531 36.4926 51.9803 36.4926 52.0947C36.4926 52.2202 36.6813 52.2805 37.0586 52.2805H37.1283V52.5522H35.4447V52.2805L35.5367 52.2774C35.7872 52.2646 35.9378 52.2329 35.9869 52.182C36.0376 52.1312 36.1565 51.8739 36.3531 51.4132L38.6439 45.9584H38.9499L41.2216 51.445C41.4024 51.8373 41.5244 52.0708 41.599 52.1471C41.6719 52.2218 41.8161 52.2662 42.027 52.2774L42.13 52.2805V52.5522H39.7203V52.2805H39.8012C40.2102 52.2805 40.4147 52.2218 40.4147 52.1042C40.4147 51.9311 40.3497 51.7007 40.2308 51.4132L39.8678 50.5427H37.0792Z" fill="white"/>
<path d="M46.3724 52.6316L44.1434 47.2021C43.9532 46.7637 43.8295 46.508 43.7693 46.4381C43.7106 46.3682 43.5838 46.3301 43.3872 46.3205L43.2953 46.3126V46.041H45.6463V46.3126H45.5496C45.0978 46.3126 44.8742 46.3698 44.8742 46.4841C44.8742 46.5302 44.963 46.7701 45.1374 47.2037L46.8226 51.2973L48.4032 47.199C48.4396 47.11 48.4682 47.0353 48.492 46.9734C48.5855 46.7351 48.633 46.5779 48.633 46.5048C48.633 46.3761 48.419 46.3126 47.9958 46.3126H47.899V46.041H49.5716V46.3126L49.478 46.3205C49.2735 46.3301 49.1499 46.3618 49.1055 46.419C49.0595 46.4746 48.9438 46.7351 48.7599 47.1974L46.6609 52.63H46.3676L46.3724 52.6316Z" fill="white"/>
<path d="M56.3298 52.5522H51.6483V52.2805L51.7308 52.2774C52.0859 52.2535 52.2952 52.2027 52.3586 52.1249C52.4252 52.047 52.4584 51.8103 52.4584 51.4148V47.1799C52.4584 46.7828 52.4252 46.5461 52.3586 46.4714C52.2936 46.3952 52.0859 46.3459 51.7308 46.3221L51.6483 46.3142V46.0425H56.0873V47.1799H55.6021L55.5926 47.0973C55.5689 46.6938 55.5371 46.4762 55.5023 46.4444C55.4658 46.4111 55.2312 46.3952 54.7968 46.3952H53.3811V48.9987L54.5638 48.9939C54.8285 48.9939 54.9902 48.9781 55.0489 48.9511C55.1123 48.9225 55.1472 48.7859 55.1583 48.5365L55.163 48.457H55.515V49.8851H55.163L55.1583 49.8057C55.1472 49.5849 55.1123 49.4546 55.0489 49.4133C54.9902 49.3704 54.8285 49.3498 54.5638 49.3498H53.3811V51.4116C53.3811 51.7531 53.4223 51.9644 53.5032 52.047C53.5809 52.1312 53.7901 52.1709 54.1246 52.1709H54.8158C55.3326 52.1709 55.6259 52.1455 55.6988 52.0947C55.7702 52.0423 55.8178 51.8246 55.8384 51.4386L55.8415 51.3592H56.3282V52.5506L56.3298 52.5522Z" fill="white"/>
<path d="M63.3148 52.5522H58.6238V52.2805L58.7062 52.2774C59.0597 52.2535 59.2674 52.2027 59.334 52.1249C59.4006 52.047 59.4339 51.8103 59.4339 51.4148V47.1799C59.4339 46.7828 59.4006 46.5461 59.334 46.4714C59.2674 46.3952 59.0597 46.3459 58.7062 46.3221L58.6238 46.3142V46.0425H61.1666V46.3142L61.0826 46.3221C60.7275 46.3459 60.5182 46.3952 60.4517 46.4714C60.3882 46.5461 60.3565 46.7828 60.3565 47.1799V51.4116C60.3565 51.8008 60.3867 52.0264 60.4453 52.0851C60.5056 52.1439 60.7291 52.1725 61.1207 52.1725H61.7913C62.3208 52.1725 62.6251 52.1439 62.7028 52.0836C62.7805 52.0216 62.8312 51.7754 62.8518 51.3338L62.855 51.248H63.3148V52.5537V52.5522Z" fill="white"/>
<path d="M82.6129 27.5637C82.4639 27.5637 82.2864 27.5351 82.0739 27.4843C82.1278 28.4167 82.1643 29.4127 82.1801 30.4674C82.196 31.5222 82.2039 32.6055 82.2039 33.7222V35.8873C81.7156 35.3981 81.1449 34.8072 80.4949 34.113C79.8418 33.4172 79.1522 32.6802 78.4277 31.8987C77.7016 31.1203 76.9692 30.3292 76.232 29.527C75.4948 28.7264 74.8068 27.9751 74.1568 27.2746H73.9031C73.9222 27.6352 73.9333 28.1816 73.9396 28.9139C73.9444 29.6446 73.946 30.5214 73.946 31.5397C73.946 31.8907 73.9428 32.2878 73.9301 32.7326C73.9222 33.179 73.9079 33.6349 73.8921 34.1019C73.8762 34.5705 73.854 35.0359 73.8271 35.5013C73.8033 35.9699 73.7763 36.402 73.7557 36.7991C73.7351 37.1978 73.7113 37.5394 73.6844 37.8253C73.659 38.1112 73.6352 38.3082 73.613 38.4146C73.7922 38.3908 73.9903 38.3813 74.2012 38.3813C74.412 38.3813 74.5896 38.3908 74.7592 38.4146C74.7481 38.3289 74.737 38.1668 74.7275 37.927C74.7164 37.6903 74.7053 37.4091 74.6942 37.093C74.68 36.7721 74.6736 36.4274 74.6609 36.0573C74.6514 35.6872 74.6435 35.3187 74.6403 34.9597C74.634 34.5991 74.6292 34.2544 74.6245 33.924C74.6181 33.5952 74.615 33.3188 74.615 33.0964C74.615 32.237 74.6197 31.5571 74.6292 31.0583C74.6403 30.5596 74.6483 30.1624 74.6578 29.8638C76.037 31.3284 77.4162 32.8009 78.7955 34.2798C80.1763 35.7634 81.4747 37.209 82.6954 38.6211H82.9173V38.0953C82.9173 37.8396 82.9173 37.541 82.911 37.1963C82.9062 36.8516 82.9015 36.4799 82.8935 36.0811C82.8935 35.6856 82.8872 35.2885 82.8824 34.8961C82.8777 34.5038 82.8761 34.1273 82.8761 33.7667V32.8136C82.8761 32.5039 82.8856 32.0956 82.9078 31.5857C82.9284 31.0774 82.9522 30.5564 82.976 30.0258C83.0029 29.4953 83.0283 28.9965 83.0552 28.5295C83.0806 28.0625 83.1044 27.7114 83.125 27.4795C82.9141 27.5319 82.7429 27.5589 82.6161 27.5589M68.2467 35.252C68.0248 35.8953 67.714 36.4258 67.3177 36.8452C66.9198 37.2646 66.4537 37.5743 65.9179 37.7776C65.3852 37.9746 64.8034 38.0795 64.1772 38.0795C63.551 38.0795 62.985 37.9746 62.4539 37.7776C61.9197 37.5743 61.4536 37.2646 61.0541 36.8452C60.6578 36.4258 60.3502 35.8953 60.1251 35.252C59.9031 34.6102 59.7922 33.8477 59.7922 32.9661C59.7922 32.0845 59.9031 31.3236 60.1251 30.6803C60.3502 30.0385 60.6578 29.5064 61.0541 29.087C61.4536 28.6661 61.9197 28.3579 62.4539 28.1546C62.985 27.9529 63.5637 27.8512 64.1772 27.8512C64.7907 27.8512 65.3836 27.9529 65.9179 28.1546C66.4537 28.3563 66.9198 28.6661 67.3177 29.087C67.714 29.5064 68.0248 30.0369 68.2467 30.6803C68.4702 31.322 68.5812 32.0845 68.5812 32.9661C68.5812 33.8477 68.4702 34.6086 68.2467 35.252ZM68.475 28.7678C67.9518 28.2785 67.324 27.9068 66.5932 27.6526C65.8624 27.3953 65.057 27.2698 64.1772 27.2698C63.2973 27.2698 62.5094 27.3953 61.7786 27.6526C61.0493 27.9068 60.4215 28.2785 59.8968 28.7678C59.372 29.2554 58.963 29.8527 58.6729 30.558C58.3828 31.2633 58.2354 32.0686 58.2354 32.9693C58.2354 33.87 58.3828 34.6753 58.6729 35.3822C58.9614 36.0891 59.372 36.6848 59.8968 37.1724C60.4215 37.6601 61.0477 38.0254 61.7786 38.2621C62.5094 38.5004 63.31 38.6211 64.1772 38.6211C65.0443 38.6211 65.8608 38.5004 66.5932 38.2621C67.324 38.0239 67.9518 37.6601 68.475 37.1724C68.9997 36.6832 69.4072 36.0875 69.7005 35.3822C69.9906 34.6753 70.1364 33.8716 70.1364 32.9693C70.1364 32.067 69.9906 31.2633 69.7005 30.558C69.4072 29.8527 69.0013 29.2554 68.475 28.7678ZM53.2717 32.8232C52.9007 32.6008 52.5012 32.4117 52.0685 32.2592C51.642 32.1052 51.2409 31.9288 50.8699 31.7319C50.499 31.5365 50.1898 31.2934 49.9394 31.0059C49.6905 30.7216 49.5668 30.3292 49.5668 29.8304C49.5668 29.5429 49.616 29.2792 49.7174 29.0346C49.8173 28.79 49.9616 28.5803 50.1423 28.4024C50.3325 28.2293 50.5497 28.0958 50.7986 27.9989C51.0475 27.9036 51.3154 27.8544 51.6182 27.8544C51.921 27.8544 52.1683 27.9068 52.3808 28.0069C52.5916 28.1085 52.7755 28.2308 52.9277 28.3802C53.0815 28.5311 53.2051 28.6915 53.2939 28.8662C53.3827 29.041 53.4572 29.203 53.5079 29.3523H53.6982C53.7616 29.0441 53.825 28.79 53.8884 28.5883C53.9502 28.3865 54.0311 28.1943 54.1262 28.0164C53.8076 27.7622 53.4635 27.5748 53.0926 27.4541C52.7232 27.3318 52.2825 27.273 51.772 27.273C51.2615 27.273 50.7653 27.3492 50.342 27.4954C49.9172 27.6431 49.551 27.8496 49.2529 28.1165C48.9501 28.3817 48.7202 28.6979 48.5601 29.0632C48.4 29.4317 48.3207 29.8368 48.3207 30.2832C48.3207 30.909 48.446 31.4078 48.6949 31.7795C48.9438 32.1512 49.2545 32.4546 49.6255 32.6945C49.9964 32.9344 50.3975 33.1329 50.8271 33.2933C51.2552 33.4506 51.6579 33.6269 52.0304 33.8175C52.3998 34.0082 52.7089 34.2464 52.9594 34.534C53.2083 34.8183 53.332 35.2059 53.332 35.6967C53.332 36.0144 53.2781 36.3147 53.1734 36.5958C53.0672 36.877 52.9166 37.1216 52.7184 37.3265C52.5219 37.5346 52.2841 37.6998 52.0035 37.8205C51.7229 37.9444 51.4074 38.0048 51.057 38.0048C50.7067 38.0048 50.4102 37.954 50.1344 37.8523C49.8585 37.7506 49.6175 37.622 49.4099 37.4615C49.2038 37.3027 49.0278 37.1264 48.8804 36.9278C48.7424 36.7324 48.6283 36.5386 48.5427 36.3464H48.3524C48.3207 36.6546 48.2859 36.9072 48.251 37.1025C48.2098 37.2995 48.1464 37.5203 48.0512 37.7665C48.3271 37.9873 48.6695 38.1859 49.0769 38.359C49.486 38.5322 50.0186 38.6195 50.6765 38.6195C51.2916 38.6195 51.8402 38.5306 52.3173 38.3559C52.804 38.1827 53.2115 37.9317 53.5476 37.6077C53.8805 37.2836 54.1341 36.904 54.3101 36.4687C54.4845 36.0335 54.5733 35.5712 54.5733 35.0836C54.5733 34.499 54.448 34.032 54.1991 33.6825C53.9486 33.3331 53.6395 33.0455 53.2685 32.8216M42.008 31.5873C41.8225 31.932 41.5831 32.2036 41.293 32.399C41.0013 32.596 40.6811 32.731 40.3291 32.8041C39.9803 32.8788 39.6411 32.9185 39.3129 32.9185C38.9198 32.9185 38.544 32.8756 38.1842 32.7882V28.0593H39.6157C40.0295 28.0593 40.4005 28.0879 40.7286 28.1467C41.0584 28.2054 41.3358 28.3134 41.5641 28.4723C41.7924 28.6327 41.9731 28.8551 42.0936 29.141C42.2252 29.4286 42.287 29.7987 42.287 30.2562C42.287 30.7978 42.1935 31.241 42.008 31.5873ZM43.0543 28.2848C42.8482 28.0847 42.6167 27.929 42.3631 27.8242C42.1094 27.7178 41.8526 27.6383 41.5894 27.5859C41.3342 27.5335 41.0869 27.5001 40.8554 27.489C40.6224 27.4763 40.4258 27.4747 40.2673 27.4747C40.15 27.4747 40.0089 27.4763 39.8377 27.489C39.668 27.4985 39.4905 27.5065 39.3066 27.5128C39.1227 27.5144 38.9388 27.524 38.7596 27.5351C38.5789 27.5446 38.4251 27.5478 38.2983 27.5478C38.0447 27.5478 37.7863 27.5414 37.5294 27.5271C37.2694 27.5128 37.011 27.4938 36.7574 27.4731C36.7875 28.1737 36.8113 28.8615 36.8382 29.535C36.8636 30.2085 36.8747 30.8963 36.8747 31.5968V34.3354C36.8747 35.0327 36.862 35.7269 36.8382 36.4036C36.8113 37.0835 36.7859 37.7538 36.7574 38.4099C36.9999 38.3892 37.2599 38.3765 37.5342 38.3765C37.8084 38.3765 38.0684 38.3876 38.3126 38.4099C38.2825 37.7522 38.2508 37.0835 38.2222 36.402C38.1984 35.7221 38.1826 35.0327 38.1826 34.3306V33.4554C38.395 33.4728 38.6011 33.4856 38.8024 33.4903C39.0022 33.4951 39.2257 33.4983 39.4699 33.4983C39.8503 33.4983 40.2879 33.4554 40.7809 33.3712C41.274 33.287 41.7385 33.1218 42.1744 32.8788C42.6183 32.6341 42.9893 32.2942 43.2889 31.8605C43.5917 31.4253 43.7423 30.8598 43.7423 30.1593C43.7423 29.7145 43.6789 29.3412 43.5521 29.0378C43.4253 28.7328 43.2588 28.4818 43.0527 28.2817M30.7125 33.0201C30.6063 32.102 30.5033 31.168 30.405 30.218C30.3019 29.2681 30.191 28.2848 30.0752 27.265H29.8691C29.6044 27.7527 29.3174 28.2785 29.0115 28.8424C28.7039 29.4031 28.3948 29.9766 28.0825 30.5612C27.7702 31.1441 27.4626 31.7192 27.1614 32.2878C26.8586 32.8565 26.5748 33.3839 26.3101 33.8716C26.0485 34.3592 25.8123 34.7929 25.6109 35.1693C25.4096 35.5458 25.2558 35.8365 25.1496 36.0367C24.3332 34.5403 23.5532 33.0821 22.8049 31.6604C22.0582 30.2371 21.3195 28.7725 20.5886 27.2666H20.3191C20.2335 28.1149 20.1336 29.0092 20.0163 29.948C19.9006 30.8868 19.7738 31.8399 19.6327 32.8073C19.4963 33.7715 19.3552 34.7325 19.2046 35.6872C19.0572 36.6419 18.9145 37.5505 18.7766 38.4099C18.9446 38.3892 19.1285 38.3765 19.3315 38.3765C19.5344 38.3765 19.7151 38.3876 19.8879 38.4099C19.8879 37.9857 19.9133 37.4409 19.9656 36.7785C20.0195 36.1145 20.0845 35.4092 20.1574 34.661C20.2319 33.9144 20.3144 33.1536 20.4031 32.3831C20.4935 31.6143 20.5759 30.9027 20.6489 30.2435H20.6822C21.3813 31.6429 22.0788 33.017 22.7716 34.3608C23.466 35.7015 24.1303 37.0406 24.766 38.3781H24.9086C25.5444 36.9357 26.215 35.5538 26.9188 34.2321C27.6227 32.9105 28.3409 31.581 29.0733 30.2435H29.105C29.2746 31.6223 29.4173 32.9757 29.5346 34.3036C29.6504 35.63 29.7677 36.9993 29.8834 38.4099C30.0102 38.3892 30.1355 38.3765 30.256 38.3765H31.0026C31.1247 38.3765 31.2484 38.3876 31.3768 38.4099C31.2484 37.5298 31.1326 36.6403 31.0248 35.7428C30.9186 34.8453 30.814 33.9399 30.7078 33.0217M13.3199 29.5334C13.3405 28.8599 13.3722 28.1721 13.4023 27.4715C13.2644 27.4906 13.1376 27.5097 13.006 27.5256C12.8792 27.5398 12.7524 27.5462 12.6255 27.5462C12.4987 27.5462 12.3703 27.5398 12.2435 27.5256C12.1166 27.5113 11.9851 27.4922 11.8471 27.4715C11.8788 28.1721 11.909 28.8599 11.9359 29.5334C11.9629 30.2069 11.9756 30.8947 11.9756 31.5953V34.3338C11.9756 35.0312 11.9629 35.7253 11.9359 36.402C11.909 37.0819 11.8788 37.7522 11.8471 38.4083C12.0897 38.3876 12.3497 38.3749 12.624 38.3749C12.8982 38.3749 13.1566 38.386 13.4008 38.4083C13.3706 37.7506 13.3389 37.0819 13.3183 36.402C13.2945 35.7237 13.2819 35.0312 13.2819 34.3338V31.5953C13.2819 30.8931 13.2945 30.2069 13.3183 29.5334M5.21097 32.8184C4.84159 32.596 4.44208 32.407 4.01246 32.2545C3.58284 32.1004 3.18333 31.9241 2.81237 31.7271C2.4414 31.5317 2.13068 31.2887 1.88178 31.0012C1.63289 30.7168 1.50923 30.3245 1.50923 29.8257C1.50923 29.5382 1.55838 29.2745 1.65984 29.0298C1.7613 28.7852 1.90556 28.5755 2.08787 28.3976C2.27336 28.2245 2.49213 28.0911 2.7442 27.9942C2.98993 27.8988 3.2626 27.8496 3.55906 27.8496C3.85551 27.8496 4.11075 27.902 4.32318 28.0021C4.53403 28.1038 4.71793 28.2261 4.87171 28.3754C5.02548 28.5263 5.14755 28.6867 5.23792 28.8615C5.32828 29.0362 5.39962 29.1982 5.45194 29.3475H5.64218C5.70559 29.0394 5.769 28.7852 5.83242 28.5835C5.89583 28.3817 5.97668 28.1895 6.0718 28.0116C5.75473 27.7575 5.40913 27.57 5.03817 27.4493C4.67354 27.327 4.22807 27.2682 3.71918 27.2682C3.21029 27.2682 2.71249 27.3445 2.28763 27.4906C1.85959 27.6383 1.5013 27.8448 1.19851 28.1117C0.900465 28.377 0.665837 28.6931 0.507304 29.0584C0.347186 29.427 0.26792 29.832 0.26792 30.2784C0.26792 30.9043 0.393161 31.403 0.642057 31.7748C0.890953 32.1465 1.20168 32.4499 1.57264 32.6897C1.94361 32.9296 2.34311 33.1281 2.77274 33.2886C3.20077 33.4458 3.60186 33.6222 3.97441 33.8128C4.34538 34.0034 4.6561 34.2417 4.905 34.5292C5.1539 34.8135 5.27914 35.2011 5.27914 35.692C5.27914 36.0097 5.22524 36.3099 5.11902 36.591C5.0128 36.8722 4.8622 37.1168 4.6672 37.3217C4.47062 37.5298 4.23124 37.695 3.95063 37.8158C3.67003 37.9397 3.35614 38 3.00578 38C2.65542 38 2.35897 37.9492 2.08312 37.8475C1.80727 37.7459 1.5663 37.6172 1.35862 37.4568C1.15412 37.2979 0.976561 37.1216 0.833882 36.923C0.688032 36.7277 0.575473 36.5339 0.491451 36.3417H0.301212C0.26792 36.6498 0.234628 36.9024 0.198166 37.0978C0.160118 37.2947 0.0951196 37.5155 0 37.7618C0.275847 37.9826 0.616692 38.1811 1.02412 38.3543C1.43472 38.5274 1.96739 38.6148 2.6253 38.6148C3.23882 38.6148 3.78893 38.5258 4.27087 38.3511C4.75756 38.1779 5.16182 37.927 5.49633 37.6029C5.83083 37.2789 6.08448 36.8992 6.25887 36.464C6.43484 36.0287 6.52203 35.5665 6.52203 35.0788C6.52203 34.4942 6.39679 34.0272 6.14789 33.6778C5.899 33.3283 5.58828 33.0408 5.21572 32.8168" fill="white"/>
<path d="M48.0306 5.3741C48.0306 5.3741 48.2843 3.35196 46.3565 2.69433C44.08 1.91597 42.0381 3.53305 41.9493 5.75534C41.8542 8.14919 42.8371 12.8654 39.7521 14.4047C36.6004 15.9757 35.3036 14.0472 35.1181 12.7606C34.7551 14.7843 37.1981 17.0511 40.7064 15.245C43.7534 13.6724 43.6092 9.98866 43.4237 8.14919C43.2398 6.30813 43.1906 4.06678 45.1311 3.38214C46.2566 2.98979 47.3886 3.57911 48.0306 5.3741ZM30.5857 15.5547C29.3729 13.4849 31.2626 8.76394 35.7618 4.75777C40.2594 0.753197 44.1149 -0.36351 45.957 0.0971515C49.1308 0.892983 53.3288 6.09845 52.8611 9.44222C52.2095 14.1187 46.8575 17.7071 39.7013 18.2901C34.9374 18.6777 31.6177 17.3179 30.5857 15.5563" fill="white"/>
</g>
</svg>
