<svg overflow="visible" style="display: block;" viewBox="0 0 99.75 24.6154" fill="none" xmlns="http://www.w3.org/2000/svg" width="99.75" height="24.6154">
<g id="Vector">
<path fill-rule="evenodd" clip-rule="evenodd" d="M6.60703 1.4978C6.9003 2.99902 7.0768 4.51991 7.13502 6.04735C7.15288 7.65288 7.08484 9.25823 6.93116 10.8568L6.96785 11.1486L6.97483 11.2081C7.17644 12.9245 7.38413 14.6929 8.12579 16.2698C8.24111 16.4512 8.31094 16.6567 8.32959 16.8695L11.3691 16.9755C11.5032 16.9898 11.6384 16.9632 11.7565 16.8995C11.6666 16.7368 11.6196 16.5548 11.6199 16.3698C11.605 15.8302 12.0046 15.3653 12.5495 15.2884C12.5637 15.0645 12.5861 14.8406 12.6086 14.6248C12.656 14.2561 12.6798 13.8849 12.6799 13.5133C12.6799 13.3474 12.6673 13.1703 12.6548 12.996L12.6473 12.8897L12.6469 12.8828C12.6307 12.6293 12.6147 12.3777 12.6127 12.1241V11.9962C12.6127 11.3965 12.6127 10.503 12.0622 10.2671C11.5639 10.0658 11.0221 9.99092 10.4864 10.0492C10.3495 10.0622 10.2135 10.0822 10.0787 10.1092L10.0708 10.1105C9.66516 10.1802 9.21199 10.2579 8.84337 10.0772C8.4723 9.89531 8.37447 9.41754 8.34186 9.19769C8.31033 8.93231 8.29736 8.66515 8.30311 8.39808V8.23015C8.30311 7.92139 8.28171 7.60563 8.26053 7.29433L8.25623 7.23072C8.25623 7.13889 8.2481 7.04794 8.24027 6.96024C8.23636 6.91622 8.23244 6.87302 8.22976 6.83093C8.22416 6.74464 8.21764 6.65552 8.21073 6.56231L8.20121 6.43115C8.14106 5.98772 8.1452 5.53817 8.21341 5.09586C8.29705 4.67982 8.36933 4.26489 8.4354 3.88592L8.43555 3.88482C8.45796 3.75642 8.47975 3.63149 8.50085 3.51272C8.52448 3.37306 8.65914 3.27865 8.80156 3.30183C8.94397 3.32501 9.04027 3.45702 9.01663 3.59667C8.93714 4.07042 8.8413 4.63012 8.72713 5.19581C8.6715 5.59373 8.6715 5.99725 8.72713 6.39517C8.73089 6.44522 8.73495 6.495 8.73894 6.54442C8.74585 6.62899 8.7526 6.71306 8.75774 6.79495L8.78222 7.19474C8.80662 7.52856 8.8291 7.87439 8.8311 8.22015V8.39008C8.82488 8.63646 8.83647 8.88292 8.86578 9.12769C8.89632 9.34762 8.94527 9.55946 9.07978 9.62746C9.28243 9.73269 9.6581 9.66823 9.98283 9.61246L9.98904 9.61146C10.1458 9.57992 10.3045 9.55792 10.464 9.54546C11.0821 9.47792 11.7076 9.56454 12.2824 9.79731C13.1203 10.1732 13.1284 11.2625 13.1325 11.9962V12.1181C13.1325 12.3212 13.1448 12.5228 13.1571 12.7243C13.1599 12.7688 13.1626 12.8132 13.1652 12.8577C13.1794 13.0716 13.1937 13.2855 13.1998 13.4994C13.2015 13.8937 13.1763 14.2877 13.1243 14.6787C13.1019 14.8786 13.0836 15.0985 13.0693 15.3084C13.5779 15.4129 13.9364 15.8605 13.9194 16.3698C13.919 16.4711 13.9052 16.5718 13.8786 16.6696C14.3475 16.8855 14.7613 17.0695 15.275 17.0395C15.8904 16.9896 16.4997 16.8845 17.0955 16.7256C18.3567 16.4502 19.5939 16.0779 20.7955 15.6122C20.9463 15.5502 21.0829 15.4863 21.2154 15.4123C21.2021 15.3908 21.189 15.3692 21.1761 15.3477C21.1554 15.3135 21.1348 15.2796 21.1135 15.2464C20.8387 14.8182 20.5955 14.3714 20.3858 13.9092C20.0943 13.2315 19.8516 12.7238 19.5989 12.26C19.444 11.9762 19.2421 11.6603 18.916 11.5604C18.3807 11.4053 17.8283 11.314 17.2708 11.2885C16.8631 11.2605 16.4554 11.2405 16.0477 11.2205L15.4524 11.1966C15.3061 11.1839 15.1609 11.1605 15.0182 11.1266C14.7618 11.0607 14.5116 10.9738 14.27 10.8668L14.0865 10.7908C13.422 10.5249 13.5178 10.0432 13.6483 9.70339C13.7788 9.36354 13.9154 9.00777 14.5616 9.10369C14.8143 9.13769 15.0019 8.88985 15.2567 8.504C15.3118 8.42208 15.3647 8.34416 15.4177 8.27216L15.3892 8.21816C15.2222 7.99192 15.1421 7.71515 15.1629 7.43661C15.2241 7.08879 15.5258 6.83693 15.7745 6.64903C15.8214 6.61305 15.8662 6.57707 15.905 6.54309C15.9569 6.49792 16.0249 6.47484 16.0941 6.47896C16.1633 6.48309 16.2281 6.51408 16.274 6.56508C16.3211 6.61544 16.3453 6.68242 16.3411 6.75065C16.3368 6.81888 16.3045 6.88249 16.2515 6.92689C16.2217 6.95335 16.1879 6.98079 16.1529 7.00921L16.1521 7.0099C16.1371 7.02203 16.122 7.03434 16.1068 7.04682L16.079 7.06902C15.9063 7.20682 15.6983 7.37279 15.6828 7.52256C15.6917 7.68203 15.7493 7.83523 15.8479 7.96231C15.8886 8.03231 15.9274 8.10023 15.96 8.16223L16.4513 8.598C16.5113 8.52569 16.5685 8.452 16.6239 8.38046L16.6552 8.34015C16.9059 8.06031 17.1791 7.80239 17.4461 7.55255C17.8576 7.19253 18.2287 6.79047 18.5531 6.35319C18.9508 5.74442 19.2913 5.10145 19.5703 4.43222L19.7375 4.06042C19.7635 4.00075 19.7882 3.93959 19.8126 3.87875C19.8282 3.83981 19.8439 3.80078 19.8598 3.76258C19.964 3.46152 20.1131 3.17725 20.3022 2.91903C20.3734 2.83095 20.4497 2.74686 20.5305 2.66717C16.5398 -0.403641 11.0722 -0.862838 6.60703 1.4978ZM10.6069 24.4455C10.5584 24.4391 10.4764 24.4261 10.361 24.4065C10.3115 24.3982 10.2195 24.3812 10.0848 24.3555C8.88788 24.1153 7.73285 23.7059 6.65595 23.1402L6.69264 22.9263C6.96378 21.2632 7.2451 19.5461 7.95046 17.9929C8.11643 17.8255 8.23574 17.6189 8.29697 17.3932L10.992 17.4772C11.2246 17.4805 11.3999 17.4835 11.518 17.4862V17.4852C11.7363 17.4729 11.9474 17.4039 12.1295 17.2853C12.3255 17.4061 12.5525 17.4698 12.7839 17.4692C13.1053 17.4715 13.4138 17.3452 13.638 17.1194C14.1274 17.3533 14.5962 17.5532 15.1894 17.5532H15.3138C15.9712 17.5003 16.6223 17.3879 17.2586 17.2174C17.8844 17.0695 18.5674 16.8915 19.2625 16.6916C18.7386 17.262 18.1694 17.7907 17.5603 18.2728C16.7011 18.8767 15.7842 19.3975 14.8225 19.8279C14.3058 20.0772 13.8336 20.4066 13.424 20.8035C13.1532 21.0945 12.9235 21.4198 12.7411 21.7709C12.7214 21.8042 12.7022 21.8379 12.6828 21.8718C12.6579 21.9152 12.6329 21.9591 12.6066 22.0028C12.5189 22.1467 12.421 22.2846 12.3151 22.4305C12.1019 22.6989 11.9276 22.9949 11.7972 23.3101C11.6633 23.6809 11.5464 24.0648 11.4339 24.4348L11.4221 24.4735L11.3977 24.5494C11.1307 24.5235 10.8678 24.4875 10.6069 24.4455ZM15.7602 19.9439C16.7163 21.2132 18.1209 21.9628 19.5642 22.6165C17.5084 23.9222 15.1111 24.6165 12.6616 24.6154C12.415 24.6154 12.1703 24.6074 11.9297 24.5934C12.0398 24.2276 12.156 23.8498 12.2865 23.488C12.4017 23.2172 12.5539 22.9629 12.7391 22.7324C12.8512 22.5845 12.9572 22.4305 13.055 22.2666C13.0837 22.2191 13.1114 22.1708 13.1395 22.1222C13.1573 22.0912 13.1754 22.0599 13.1937 22.0288C13.3532 21.7183 13.554 21.4299 13.791 21.1712C14.1603 20.8145 14.5857 20.5182 15.0508 20.2937L15.7602 19.9439ZM10.0421 6.29522H10.0379C10.0255 6.50166 10.0365 6.70882 10.0705 6.91289C10.0848 7.03682 10.1745 7.50657 10.2887 7.56054C10.3696 7.5988 10.5397 7.58282 10.6732 7.57027C10.728 7.56512 10.7768 7.56054 10.8106 7.56054H12.1397V6.57707H11.84V5.33174H10.5028C10.4705 5.33174 10.4424 5.33037 10.4176 5.32915C10.3259 5.32468 10.2762 5.32225 10.2153 5.3977C10.0756 5.56891 10.0569 5.97569 10.0456 6.22111C10.0444 6.24791 10.0432 6.27279 10.0421 6.29522ZM5.75083 18.1288C5.76917 17.3673 5.79567 16.6217 5.82829 15.8981C5.06382 15.96 4.32382 16.3158 4.32382 17.0175C4.32382 17.7191 5.01898 18.0509 5.75083 18.1288ZM6.56422 15.9341C6.82931 15.9738 7.08446 16.062 7.31645 16.1939C7.62628 16.3567 7.82032 16.6728 7.82201 17.0175C7.82201 17.6632 7.1921 18.0149 6.49491 18.1148C6.50714 17.3713 6.5316 16.6417 6.56422 15.9341ZM25.0949 14.6168L22.4508 15.2644C22.4366 15.2664 22.4223 15.2664 22.408 15.2644C22.0986 15.5231 21.7559 15.7408 21.3887 15.9121C21.4473 16.1178 21.5614 16.3042 21.719 16.4518C21.8248 16.5281 21.9374 16.595 22.0553 16.6517C22.2666 16.7425 22.4603 16.8683 22.6282 17.0235C23.0159 17.436 23.3736 17.8748 23.6985 18.3368C24.3675 17.1796 24.8392 15.9231 25.0949 14.6168ZM23.0746 13.6792C22.8044 14.0985 22.4871 14.4867 22.1288 14.8366C21.988 14.9582 21.8381 15.0692 21.6803 15.1685C21.6435 15.1105 21.6089 15.0525 21.5742 14.9945C21.3087 14.5832 21.0736 14.1536 20.8709 13.7092C20.5652 13.0176 20.3165 12.4959 20.0555 12.0182C19.9578 11.8278 19.8367 11.6498 19.6947 11.4885L19.2686 6.21127C19.5549 5.70056 19.8122 5.1747 20.0392 4.63612L20.2023 4.26631C20.244 4.17561 20.2825 4.08015 20.3206 3.98559L20.3348 3.95048C20.4218 3.69606 20.5454 3.4551 20.7017 3.23486C20.7716 3.15062 20.8464 3.07052 20.926 2.99499C23.2593 4.94049 24.7828 7.65852 25.207 10.6329L25.0439 10.8688C24.4711 11.7023 23.8778 12.5638 23.2785 13.3994C23.2051 13.4913 23.1399 13.5853 23.0746 13.6792ZM16.4841 10.7282C16.7593 10.7432 17.035 10.7582 17.3095 10.7768C17.9123 10.8037 18.5095 10.9038 19.0872 11.0747L19.1423 11.0986L18.8038 6.90089C18.5004 7.26543 18.1707 7.60813 17.8172 7.92631C17.5603 8.16623 17.2933 8.41608 17.0588 8.67992C16.5702 9.26039 16.1286 9.87723 15.7378 10.5249L15.6338 10.6848L16.066 10.7048C16.2052 10.7129 16.3448 10.7205 16.4841 10.7282ZM23.5048 13.9691L23.7005 13.6952C24.2194 12.9725 24.7288 12.2331 25.2287 11.5074L25.2845 11.4265C25.3048 11.7103 25.3212 12.0122 25.3212 12.31C25.3202 12.8966 25.2766 13.4825 25.1907 14.0631L23.0542 14.5868C23.1662 14.4447 23.2721 14.2956 23.3754 14.1501C23.4188 14.0889 23.462 14.0282 23.5048 13.9691ZM15.2893 10.2571C15.5584 9.84131 15.8336 9.41954 16.1333 9.01377L15.7663 8.68592L15.7032 8.77992C15.4484 9.16369 15.0916 9.68739 14.4943 9.60346C14.3952 9.58954 14.3391 9.58169 14.2976 9.60269C14.2433 9.63015 14.2138 9.70669 14.1457 9.88331C14.0254 10.1952 14.0662 10.2251 14.2945 10.3171L14.4739 10.397C14.6649 10.48 14.861 10.5515 15.061 10.6109L15.2893 10.2571ZM6.58868 15.4143C6.62741 14.6248 6.69061 13.8272 6.75584 13.0356C6.88186 13.9239 7.09276 14.7986 7.38576 15.6482C7.13315 15.5325 6.8646 15.4537 6.58868 15.4143ZM5.79159 22.6465C5.37756 21.0721 4.85238 19.5278 4.21985 18.0249V18.0069C3.98088 17.7695 3.83629 17.4562 3.81214 17.1234C3.67555 17.0295 3.53285 16.9455 3.37792 16.8575C3.17494 16.7476 2.97949 16.6247 2.79285 16.4898C2.6462 16.3786 2.50228 16.2648 2.35774 16.1506L2.26078 16.074C2.02227 15.8741 1.77356 15.6922 1.52486 15.5103C1.31811 15.7315 1.07903 15.9215 0.815433 16.074L0.65846 16.1779L0.646229 16.1939C1.56235 18.8563 3.37747 21.1325 5.79159 22.6465ZM0.505567 9.86131C0.436255 9.79731 0.364905 9.73539 0.301709 9.68539C0.737413 7.74708 1.64688 5.94155 2.95186 4.42422L3.00079 5.29575L3.00304 5.33822C3.0798 6.78827 3.15921 8.28854 3.30861 9.75739L3.32288 9.87131C3.36365 10.2291 3.35346 10.3531 3.20465 10.429C3.0331 10.494 2.85035 10.5259 2.66646 10.5229C2.63522 10.5246 2.60433 10.5276 2.57393 10.5306C2.53094 10.5348 2.48894 10.5389 2.44833 10.5389C2.34795 10.5481 2.23911 10.5688 2.12488 10.5905L2.09158 10.5969L2.06061 10.6024C1.79736 10.6492 1.50714 10.7008 1.36789 10.5969C1.09041 10.3848 0.820114 10.1429 0.557003 9.90731L0.505567 9.86131ZM1.04987 10.9967C0.744081 10.7708 0.456641 10.5129 0.177356 10.2611C0.0602049 10.938 0.000880209 11.6234 0 12.31C0.00022205 13.4495 0.163542 14.5832 0.485181 15.6782L0.532068 15.6482C0.801161 15.4723 1.17014 15.2304 1.22314 14.9945C1.24905 14.8155 1.24905 14.6338 1.22314 14.4548C1.21091 14.3489 1.20072 14.2429 1.19868 14.145L1.10083 11.0307L1.04987 10.9967ZM23.3723 18.7705L23.407 18.8265C22.5338 20.1838 21.4004 21.3623 20.0698 22.2966C18.6163 21.631 17.1689 20.9134 16.2312 19.698C16.8067 19.4021 17.3575 19.0618 17.8783 18.6805C18.5223 18.1732 19.123 17.6149 19.6743 17.0115C19.8944 16.7836 20.1147 16.5577 20.3389 16.3358C20.5305 16.2678 20.7221 16.1979 20.9097 16.1219C20.9999 16.4107 21.1716 16.6685 21.405 16.8655C21.5332 16.957 21.6696 17.0367 21.8128 17.1034C21.9729 17.1683 22.1211 17.2588 22.2511 17.3713C22.6574 17.8117 23.032 18.2792 23.3723 18.7705ZM12.3355 15.9392C12.2153 16.051 12.1486 16.2073 12.1519 16.3698C12.1519 16.7098 12.4331 16.9855 12.7798 16.9855C13.1266 16.9855 13.4077 16.7098 13.4077 16.3698C13.4174 16.2032 13.3492 16.0412 13.2222 15.9301C13.0985 15.8315 12.9433 15.7792 12.7839 15.7822C12.6186 15.7703 12.4559 15.8273 12.3355 15.9392ZM6.48879 18.6326C6.75537 18.6023 7.0166 18.5372 7.26548 18.4387C6.95063 19.2984 6.70925 20.1823 6.54383 21.0813C6.54018 20.998 6.5364 20.9147 6.53262 20.8314C6.52162 20.5891 6.51064 20.3473 6.50306 20.1078C6.48879 19.6121 6.48879 19.1223 6.48879 18.6326ZM5.70803 13.8352C5.60814 14.195 5.50416 14.5688 5.37369 14.9266C5.29541 15.1338 5.19996 15.3344 5.08829 15.5262C5.33641 15.4498 5.59314 15.4035 5.85275 15.3883C5.8976 14.4848 5.97099 13.5773 6.04642 12.6798L5.85275 13.3355C5.80179 13.4953 5.75491 13.6652 5.70803 13.8352ZM5.76713 20.1298C5.77733 20.4376 5.79159 20.7475 5.80586 21.0533C5.53881 20.1758 5.24525 19.2962 4.89666 18.4387C5.16974 18.5464 5.45759 18.6138 5.75083 18.6386C5.74878 19.1303 5.75083 19.6281 5.76713 20.1298ZM3.4452 3.87452C3.47237 4.33694 3.49819 4.79736 3.52266 5.25578L3.52459 5.29207C3.60145 6.74001 3.68088 8.23639 3.83048 9.69339L3.84272 9.79931C3.88145 10.1272 3.93853 10.6209 3.435 10.8728C3.19847 10.9739 2.94284 11.025 2.6848 11.0227L2.48094 11.0367C2.40483 11.0367 2.31468 11.0573 2.22912 11.0769C2.21156 11.0809 2.19421 11.0849 2.1772 11.0886C1.99765 11.1289 1.81484 11.1537 1.63086 11.1626L1.71648 14.131C1.71648 14.2029 1.72504 14.279 1.73379 14.3569C1.73551 14.3722 1.73724 14.3875 1.7389 14.4028C1.7665 14.6118 1.7665 14.8235 1.7389 15.0325C1.97843 15.1979 2.21099 15.3825 2.43771 15.5625C2.485 15.5999 2.53202 15.6373 2.5788 15.6742C2.75208 15.8121 2.92739 15.948 3.10272 16.074C3.2713 16.1949 3.44766 16.3051 3.6307 16.4038L3.87329 16.5437C3.96349 16.2852 4.12768 16.0575 4.34625 15.8881C4.37705 15.8295 4.4087 15.7713 4.44023 15.7134C4.47757 15.6448 4.51473 15.5765 4.5501 15.5083C4.69881 15.273 4.82506 15.0247 4.92724 14.7667C5.05159 14.4228 5.15352 14.0591 5.25137 13.7072C5.26768 13.6499 5.28377 13.5924 5.29984 13.5349C5.33201 13.4198 5.36417 13.3048 5.39815 13.1915L6.21358 10.423C6.32774 8.97377 6.41744 7.50257 6.37666 6.05535C6.32632 4.65339 6.17029 3.25699 5.90983 1.87759C5.00595 2.439 4.17787 3.10994 3.4452 3.87452Z" fill="var(--fill-0, white)"/>
<path fill-rule="evenodd" clip-rule="evenodd" d="M34.1155 1.08042V1.07641C36.1598 1.31768 38.044 2.37425 39.3926 4.03554C39.4902 4.15622 39.6324 4.22497 39.7815 4.22361C39.9286 4.22201 40.0683 4.15452 40.1667 4.03754C40.3318 3.83374 40.3318 3.53107 40.1667 3.32727C38.6506 1.45902 36.5319 0.270939 34.2334 0H34.1698C33.9031 0.0038539 33.6849 0.228162 33.6705 0.513081C33.6563 0.798 33.8508 1.04602 34.1155 1.08042ZM32.0211 23.507V23.509C29.5902 23.509 27.2677 22.3845 25.4762 20.3398C25.3719 20.2148 25.2234 20.1422 25.0667 20.1397C24.8624 20.1396 24.677 20.2682 24.5937 20.4678C24.5123 20.6826 24.5579 20.9286 24.7096 21.0941C26.7048 23.3649 29.3003 24.6154 32.0211 24.6154C32.3073 24.6154 32.5391 24.3672 32.5391 24.0612C32.5391 23.7551 32.3073 23.507 32.0211 23.507ZM34.1623 13.9013C33.994 13.8553 33.8238 13.8092 33.6593 13.7712V11.3103C34.1061 11.4304 34.3549 11.6345 34.4596 11.9645C34.5423 12.2596 34.5988 12.5625 34.6279 12.8689C34.6617 13.2396 34.7332 13.6052 34.8411 13.9593C34.8542 13.9973 34.8692 14.0354 34.8841 14.0734C34.6447 14.0294 34.4016 13.9653 34.1623 13.9013ZM33.6686 10.6081C34.2128 10.7361 34.8279 11.0002 35.0655 11.7365C35.1626 12.0735 35.2283 12.42 35.2618 12.7708C35.2933 13.0931 35.356 13.4108 35.4488 13.7192C35.4966 13.8558 35.5515 13.9894 35.6134 14.1194C35.7669 14.1194 35.9441 14.1208 36.1196 14.1221C36.4655 14.1248 36.8046 14.1273 36.941 14.1194C37.0019 13.9832 37.0544 13.8428 37.0981 13.6992C37.1262 13.6092 37.1542 13.5272 37.1767 13.4752C37.2639 13.2437 37.4546 13.0752 37.6834 13.027L37.7975 12.9869L38.1977 12.8349L38.1248 12.7968C38.0532 12.7465 38.0123 12.6592 38.0173 12.5677C38.0224 12.4762 38.0727 12.3946 38.1492 12.3536C38.2257 12.3125 38.3169 12.3183 38.3884 12.3687C38.5511 12.4828 39.6375 13.169 39.7292 13.209H39.7516C39.8273 13.1532 39.8985 13.091 39.9648 13.023L39.9984 12.9908C40.037 12.9538 40.0744 12.9179 40.1106 12.8869L40.5557 12.5108C39.2034 9.78508 36.5528 8.08331 33.6686 8.08908V10.6081ZM35.6582 24.2852C35.6513 24.2904 35.6451 24.2965 35.6395 24.3032C35.2657 24.4102 34.8851 24.4878 34.5008 24.5354C34.4439 24.5418 34.393 24.5498 34.346 24.5572C34.1613 24.586 34.0395 24.605 33.8724 24.4853C33.7434 24.3985 33.6633 24.2483 33.6593 24.0852V18.6451L35.8658 23.8471C35.7892 23.9912 35.7219 24.1392 35.6582 24.2852ZM39.9404 21.2141C39.3814 20.914 38.7213 20.4878 38.3117 19.8235C37.965 19.2271 37.8439 18.5115 37.9733 17.8228C38.0997 17.1518 38.3091 16.5019 38.596 15.8901L38.6427 15.776C38.8727 15.2258 39.0448 14.6856 38.7474 14.4735C38.596 14.3655 38.3641 14.4315 38.3024 15.2558C38.2927 15.5336 38.229 15.8062 38.1154 16.0562C38.0097 16.2628 37.8244 16.4092 37.6086 16.4563C37.1075 16.5703 36.4866 16.2062 36.2174 15.9981C35.7694 15.6285 35.3997 15.1613 35.1328 14.6276C34.7676 14.5807 34.4064 14.5045 34.052 14.3995C33.9366 14.3673 33.8211 14.3382 33.7071 14.3096L33.6667 14.2995V17.4026L36.208 23.3909L36.2454 23.3509L37.4403 22.2405C37.4917 22.1933 37.5593 22.1715 37.6265 22.1802C37.6938 22.1889 37.7545 22.2275 37.7937 22.2865L38.2575 22.9888C38.8999 22.4925 39.4674 21.8941 39.9404 21.2141ZM40.9446 14.4795C41.0095 14.5148 41.0751 14.5442 41.1404 14.5735C41.1826 14.5924 41.2245 14.6112 41.2663 14.6316C41.6779 16.6967 41.3281 18.852 40.2902 20.6478H40.279C39.7815 20.3758 39.1888 20.0016 38.8466 19.4474C38.5883 18.9962 38.502 18.4562 38.6053 17.9388C38.7212 17.3295 38.9123 16.7395 39.1738 16.1842L39.2206 16.0702C39.4206 15.5939 39.8302 14.4695 39.013 13.9573C38.0668 13.3645 37.9177 14.2575 37.7963 14.9844C37.737 15.3393 37.6844 15.6546 37.5488 15.738C37.5382 15.744 37.5309 15.7523 37.5232 15.7609C37.5105 15.7752 37.4969 15.7905 37.4665 15.798C37.2589 15.8421 36.8382 15.66 36.5895 15.4599C36.3154 15.2358 36.0774 14.9655 35.8845 14.6596H36.3314C36.6069 14.6771 36.8833 14.6576 37.1542 14.6015C37.3281 14.4955 37.4235 14.2355 37.5395 13.8833L37.5508 13.8485C37.5702 13.7888 37.5873 13.7365 37.603 13.7012C37.6495 13.5878 37.6572 13.5852 37.8152 13.5302L37.8181 13.5292L37.9471 13.4852L38.5623 13.2511L38.6446 13.2151C38.6669 13.204 38.7065 13.1829 38.7042 13.1795C38.7637 13.1992 39.5104 13.6672 39.5104 13.6672L40.0713 13.9973C40.1076 14.0202 40.149 14.0319 40.191 14.0314C40.2773 14.0319 40.3569 13.982 40.3986 13.9013C40.4303 13.8422 40.4386 13.772 40.4218 13.7063C40.4049 13.6405 40.3643 13.5848 40.3089 13.5512L40.1966 13.4852L40.2148 13.4681L40.2286 13.455C40.2404 13.4436 40.2538 13.4308 40.2771 13.4091C40.2909 13.3962 40.3045 13.3832 40.318 13.3702C40.3465 13.3429 40.3744 13.3162 40.4024 13.2931L40.7633 12.9829C40.9019 13.3153 41.0206 13.6568 41.1186 14.0053C40.9962 13.9539 40.8581 14.0185 40.81 14.1494C40.762 14.2803 40.8223 14.4282 40.9446 14.4795ZM36.2847 24.0992C36.8354 23.8916 37.3624 23.6178 37.8554 23.2828L37.5469 22.8147L36.5521 23.7411C36.446 23.8447 36.3557 23.9655 36.2847 24.0992ZM28.7188 12.2147L26.905 10.516C26.6868 8.65654 26.1215 6.86298 25.2425 5.242L26.66 6.53049C26.7597 6.61929 26.8261 6.74362 26.8469 6.88062C26.9259 7.19568 26.9821 7.51674 27.0152 7.841C27.0474 8.12469 27.0929 8.40654 27.1517 8.68531C27.2762 9.397 27.586 10.0566 28.0456 10.588C28.6332 11.2451 29.449 11.6123 30.2989 11.6025C30.4471 11.6023 30.5951 11.5922 30.7421 11.5724C31.3068 11.4964 31.8697 11.3843 32.4157 11.2623V13.4632L29.4743 12.5968C29.422 12.5788 29.3547 12.5628 29.2874 12.5468C29.1784 12.5273 29.0718 12.4951 28.9694 12.4508C28.9114 12.411 28.8585 12.3632 28.8123 12.3087L28.7188 12.2147ZM32.4232 13.9953L29.3546 13.091C29.3122 13.078 29.2673 13.0677 29.2201 13.0568L29.1863 13.049C29.0371 13.0232 28.8917 12.9762 28.7543 12.9089C28.6513 12.8476 28.5578 12.7693 28.4776 12.6768C28.4691 12.6685 28.4609 12.6601 28.4528 12.6518C28.4357 12.6345 28.4192 12.6177 28.4027 12.6028L26.9704 11.2643C26.991 11.5904 27.004 11.9185 27.004 12.2507C27.0029 12.7715 26.9742 13.2919 26.918 13.8092C28.3565 15.4162 30.3435 16.329 32.4232 16.3382V13.9953ZM31.9538 0.0100038C32.4606 -0.0200076 32.4232 0.592226 32.4232 0.592226V10.578C31.851 10.7061 31.2582 10.8282 30.6711 10.9062C29.877 11.0347 29.0739 10.7448 28.515 10.1278C28.1343 9.68462 27.8799 9.13408 27.7819 8.54123C27.7284 8.30446 27.6968 8.05792 27.6637 7.79969L27.6623 7.789L27.6978 7.813C27.9302 8.00669 28.2088 8.12662 28.5019 8.15908C28.6951 8.15915 28.8846 8.10239 29.0498 7.99508C29.19 7.911 29.2554 7.893 29.3172 7.911C29.5496 7.99546 29.7672 8.12123 29.9605 8.28315C30.0649 8.367 30.0781 8.37754 29.9044 8.72131L29.8595 8.81138C29.7784 8.97885 29.8385 9.185 29.9941 9.27354C30.0404 9.29915 30.0916 9.31285 30.1437 9.31354C30.2627 9.314 30.3719 9.24285 30.4261 9.12946L30.4691 9.04546L30.4772 9.02877C30.6304 8.71577 30.8949 8.17515 30.3438 7.73492C30.0913 7.52059 29.8059 7.35473 29.5004 7.24476C29.252 7.18368 28.9911 7.23044 28.7749 7.37481C28.6985 7.43055 28.6091 7.46242 28.5168 7.46685C28.2323 7.43698 27.8873 7.19879 27.6915 7.06358C27.6119 7.00861 27.5569 6.97065 27.5407 6.97065C27.5219 6.88363 27.5031 6.819 27.48 6.7393L27.4659 6.69055C27.4099 6.42572 27.2739 6.18803 27.0788 6.01429L25.6352 4.69979C25.5965 4.6665 25.551 4.64322 25.5025 4.63177C25.9973 3.54086 26.7104 2.57979 27.5912 1.81669L27.6043 1.84671C27.6433 1.93842 27.7289 1.99715 27.823 1.99676C27.8573 1.99739 27.8911 1.98987 27.9222 1.97475C28.0426 1.91574 28.096 1.76393 28.0419 1.63462L27.9839 1.49857C29.1508 0.614332 30.5263 0.0985538 31.9538 0.0100038ZM36.7549 11.5215C36.7514 11.4536 36.7733 11.3869 36.8157 11.3363C36.9047 11.2304 37.0569 11.2214 37.1561 11.3163C37.3113 11.4664 37.4702 11.6185 37.6311 11.7625C37.7076 11.8325 37.7354 11.946 37.7007 12.0472C37.6662 12.1484 37.5765 12.2159 37.4758 12.2167C37.4192 12.2163 37.3644 12.1951 37.3206 12.1566C37.1561 12.0066 36.9934 11.8525 36.8345 11.6985C36.787 11.6532 36.7584 11.5895 36.7549 11.5215ZM36.0678 10.1498V10.1538C35.9939 10.0362 35.8449 10.0048 35.7349 10.0838C35.6249 10.1628 35.5956 10.3223 35.6695 10.44C35.716 10.5111 35.768 10.578 35.8247 10.6401L36.0117 10.8402L36.1276 10.9722C36.1726 11.0237 36.2356 11.0527 36.3015 11.0522C36.3633 11.0519 36.4226 11.027 36.4679 10.9822C36.5632 10.8838 36.5674 10.7219 36.4773 10.6181L36.3613 10.488C36.3105 10.4398 36.263 10.3868 36.2154 10.3335L36.1992 10.3155L36.1743 10.2879C36.1357 10.2448 36.1001 10.1986 36.0678 10.1498ZM34.9664 8.59731L34.9626 8.59331C35.0116 8.54985 35.0747 8.52915 35.1379 8.53592C35.2012 8.54269 35.2593 8.57631 35.2992 8.62931C35.4417 8.82562 35.5622 9.03915 35.6582 9.26554C35.6863 9.32669 35.6903 9.39746 35.6692 9.46177C35.6481 9.52615 35.6038 9.57869 35.5461 9.60769C35.5135 9.625 35.4776 9.63392 35.4413 9.63369C35.3499 9.63315 35.2667 9.57738 35.2263 9.48962C35.1465 9.299 35.046 9.11908 34.9271 8.95338C34.8463 8.84338 34.8639 8.68415 34.9664 8.59731ZM28.4981 3.58137C28.5271 3.58384 28.5564 3.58044 28.5841 3.57136C28.6432 3.54492 28.6899 3.49426 28.7138 3.43073C28.7377 3.36719 28.7368 3.29606 28.7113 3.23323C28.6721 3.13319 28.6309 3.03115 28.5879 2.93312L28.4514 2.58298C28.3961 2.45425 28.2538 2.39782 28.1335 2.45694C28.0132 2.51605 27.9605 2.66834 28.0157 2.79707L28.1578 3.13519C28.191 3.20783 28.223 3.28828 28.2547 3.36813L28.2775 3.42531C28.315 3.52003 28.402 3.5815 28.4981 3.58137ZM29.4786 4.91022C29.4673 4.97747 29.4315 5.03713 29.3789 5.07594C29.3385 5.10515 29.2911 5.12114 29.2424 5.12195C29.1631 5.12172 29.089 5.07983 29.0441 5.00991C28.9488 4.86185 28.8479 4.70179 28.7581 4.53373C28.7338 4.48772 28.7094 4.44169 28.687 4.39368C28.6469 4.31255 28.6503 4.2147 28.6959 4.13699C28.7416 4.05928 28.8225 4.01352 28.9082 4.01695C28.9939 4.02037 29.0714 4.07245 29.1115 4.15358C29.1321 4.1976 29.1545 4.23962 29.177 4.27963C29.2554 4.42969 29.349 4.57975 29.4388 4.7178C29.4754 4.77368 29.4898 4.84295 29.4786 4.91022ZM30.6635 6.16035C30.6833 6.09428 30.677 6.02251 30.6463 5.96142C30.6157 5.90033 30.5632 5.85516 30.5009 5.83622L30.2634 5.75619C30.172 5.72909 30.085 5.68726 30.0053 5.63215C29.9867 5.61545 29.9697 5.59668 29.9549 5.57612C29.8722 5.46563 29.7215 5.44772 29.6182 5.53611C29.515 5.62451 29.4982 5.78575 29.5809 5.89625C29.6199 5.95068 29.6651 5.99975 29.7154 6.0423C29.842 6.13293 29.9816 6.20053 30.1287 6.24238L30.2073 6.26839L30.2652 6.2884L30.3644 6.32241C30.4176 6.34255 30.4757 6.34255 30.5289 6.32241C30.5939 6.29216 30.6431 6.2329 30.6635 6.16035ZM31.9389 6.44245C32.062 6.49529 32.1221 6.64455 32.0735 6.77658C32.037 6.87398 31.9491 6.93805 31.851 6.93865C31.8203 6.93848 31.7899 6.93238 31.7612 6.92064L31.1591 6.66454C31.0793 6.63095 31.0222 6.55433 31.0095 6.46356C30.9968 6.37278 31.0303 6.28165 31.0974 6.22447C31.1645 6.16729 31.2551 6.15276 31.3349 6.18636L31.9389 6.44245Z" fill="white"/>
<path fill-rule="evenodd" clip-rule="evenodd" d="M64.6381 10.3642C64.1179 10.9508 63.3811 11.2848 62.6089 11.2842C60.7919 11.2842 59.4739 9.81054 59.4739 7.78523C59.4739 5.622 61.1025 4.28621 62.6089 4.28621C63.3792 4.27487 64.1175 4.60214 64.6381 5.18565V1.64961C64.6381 1.58822 64.6865 1.53846 64.7463 1.53846H65.814C65.8741 1.53845 65.923 1.58789 65.9242 1.64961V10.9816C65.923 11.0434 65.8741 11.0928 65.814 11.0928H64.7463C64.6865 11.0928 64.6381 11.043 64.6381 10.9816V10.3642ZM60.7599 7.78523C60.7599 8.91723 61.2627 10.1357 62.699 10.1418C63.9129 10.1418 64.6381 8.94192 64.6381 7.78523C64.6381 6.30739 63.9129 5.42647 62.699 5.42647C61.3608 5.42647 60.7599 6.64905 60.7599 7.78523ZM67.1618 11.0582C67.182 11.079 67.2096 11.0907 67.2383 11.0907H68.306C68.366 11.0908 68.415 11.0413 68.4161 10.9796V6.96191C68.4161 6.07069 69.5178 5.42647 70.2611 5.42647C70.862 5.42647 71.2206 5.65905 71.4089 6.16125C71.5811 6.61407 71.5811 7.22948 71.5811 7.78523V10.9796C71.5811 11.041 71.6296 11.0907 71.6893 11.0907H72.757C72.8171 11.0908 72.8661 11.0413 72.8672 10.9796V7.50322C72.8672 5.36678 72.0479 4.28208 70.4353 4.28208C69.654 4.26035 68.9038 4.59674 68.3881 5.20006L68.326 4.56612C68.3208 4.50879 68.2738 4.46502 68.2178 4.46527H67.2383C67.1785 4.46527 67.1301 4.51503 67.1301 4.57642V10.9796C67.1301 11.0091 67.1414 11.0373 67.1618 11.0582ZM84.2396 15.2442C84.2934 15.2483 84.3363 15.2933 84.3394 15.3492C84.3425 15.3662 84.3425 15.3836 84.3394 15.4007L81.551 22.3019C81.0039 23.6089 80.1307 24.4302 79.091 24.6154H79.0895C79.0565 24.6148 79.0258 24.5998 79.0051 24.5742L78.4242 23.8435C78.4004 23.8136 78.3928 23.7733 78.405 23.7366C78.4165 23.7 78.4457 23.672 78.4818 23.6625C79.49 23.4052 80.0747 22.835 80.433 21.7585L77.8434 15.3986C77.8257 15.3658 77.8257 15.3265 77.8434 15.2936C77.8641 15.2629 77.8986 15.2445 77.9354 15.2442H79.0511C79.0964 15.2432 79.1378 15.2722 79.1532 15.3163L81.0822 20.4207L83.0611 15.3142C83.0779 15.271 83.1186 15.2429 83.1639 15.2442H84.2396ZM54.9727 6.40618C54.9727 3.72225 52.9675 1.53846 50.5036 1.53846C48.0417 1.53846 46.0385 3.72225 46.0385 6.40618C46.0385 9.09015 48.0417 11.2842 50.5036 11.2842C52.9655 11.2842 54.9727 9.09015 54.9727 6.40618ZM53.6867 6.40618C53.6867 4.35001 52.2604 2.67666 50.5036 2.67666C48.7468 2.67666 47.3185 4.35001 47.3185 6.40618C47.3185 8.46238 48.7487 10.1357 50.5036 10.1357C52.2583 10.1357 53.6867 8.46438 53.6867 6.40618ZM60.1727 15.2761C60.1519 15.2552 60.1239 15.2437 60.0948 15.2442H59.0271C58.9984 15.2442 58.971 15.2559 58.9506 15.2768C58.9304 15.2976 58.9189 15.3259 58.9189 15.3554V19.3813C58.9189 20.2705 57.8173 20.9147 57.074 20.9147C56.4731 20.9147 56.1145 20.6821 55.9242 20.1819C55.754 19.7271 55.754 19.1364 55.754 18.5559V15.3554C55.754 15.3259 55.7425 15.2976 55.7223 15.2768C55.7019 15.2559 55.6745 15.2442 55.6458 15.2442H54.5761C54.516 15.2442 54.467 15.2937 54.4659 15.3554V18.8318C54.4659 20.9702 55.2852 22.0528 56.8978 22.0528C57.6792 22.0755 58.4297 21.7389 58.945 21.1349L59.0091 21.7688C59.0133 21.8267 59.0609 21.8709 59.1173 21.8697H60.0948C60.1239 21.8702 60.1519 21.8588 60.1727 21.8378C60.1934 21.817 60.205 21.7884 60.205 21.7585V15.3554C60.205 15.3255 60.1934 15.297 60.1727 15.2761ZM71.9016 15.2936C71.9223 15.3253 71.9261 15.3655 71.9117 15.4007L69.2594 21.8018C69.2425 21.8432 69.2029 21.8699 69.1593 21.8697H68.1336C68.0901 21.8694 68.0509 21.8428 68.0335 21.8018L65.4194 15.3986C65.4052 15.3642 65.4088 15.3248 65.4289 15.2938C65.4491 15.2627 65.4831 15.2441 65.5195 15.2442H66.6332C66.6788 15.2432 66.7199 15.2722 66.7354 15.3163L68.6445 20.3569L70.6216 15.3142C70.6375 15.2717 70.6774 15.2438 70.7218 15.2442H71.8095C71.8463 15.2438 71.8809 15.2624 71.9016 15.2936ZM77.9193 18.7082C77.9193 16.3536 76.8697 15.0611 74.9625 15.0611C73.1456 15.0611 71.8255 16.5306 71.8255 18.5601C71.8255 20.6533 73.0875 22.0591 74.9625 22.0591C75.7297 22.0591 76.8213 21.9047 77.6584 21.1678C77.693 21.1362 77.7045 21.0865 77.6891 21.0423L77.3761 20.1778C77.3646 20.1425 77.3354 20.1159 77.3001 20.1078C77.2633 20.0993 77.2257 20.1101 77.1981 20.1367C76.6953 20.6348 75.878 20.9208 74.9625 20.9208C73.7166 20.9208 73.1977 19.8568 73.1196 18.8215H77.8111C77.8403 18.8215 77.8679 18.8095 77.8886 18.7882C77.9086 18.7669 77.9201 18.7381 77.9193 18.7082ZM73.1316 17.8705H76.6151C76.4268 16.7385 75.898 16.2095 74.9625 16.2095C74.027 16.2095 73.3199 16.8558 73.1316 17.8705ZM55.824 10.9796C55.824 11.041 55.8725 11.0907 55.9322 11.0907H56.9999C57.0289 11.0913 57.057 11.0798 57.0777 11.0589C57.0984 11.038 57.1101 11.0094 57.1101 10.9796V7.50322C57.1101 7.01542 57.2163 5.42029 58.6045 5.42029C58.8359 5.39645 59.0682 5.45612 59.2616 5.58907C59.2951 5.60896 59.3364 5.60892 59.3699 5.58895C59.4034 5.56898 59.4239 5.53212 59.4238 5.49233V4.49203C59.4241 4.43989 59.3892 4.39452 59.3397 4.38294C59.1174 4.32212 58.8886 4.28962 58.6585 4.28621C58.0229 4.28759 57.4296 4.61401 57.076 5.15684L57.0199 4.57642C57.0148 4.51908 56.9678 4.47532 56.9117 4.47556H55.9322C55.8725 4.47556 55.824 4.52532 55.824 4.58671V10.9796ZM96.7936 4.28621C98.7003 4.28621 99.75 5.57672 99.75 7.92515C99.75 7.98654 99.7017 8.03631 99.6418 8.03631H94.9505C95.0288 9.07369 95.549 10.1357 96.7936 10.1357C97.7205 10.1357 98.5223 9.84346 99.0326 9.34946C99.0587 9.32323 99.0955 9.31239 99.1308 9.32062C99.1676 9.32854 99.1975 9.35485 99.2114 9.39062L99.5236 10.2551C99.5467 10.3028 99.5321 10.3607 99.4899 10.3909C98.652 11.1298 97.5624 11.2842 96.7936 11.2842C94.9183 11.2842 93.6583 9.87431 93.6583 7.78523C93.6583 5.75578 94.9766 4.28621 96.7936 4.28621ZM98.4456 7.0854H94.962C95.1508 6.07275 95.8575 5.42441 96.7936 5.42441C97.7289 5.42441 98.2576 5.95338 98.4456 7.0854ZM50.6919 16.2713C52.6329 16.7982 53.6165 17.8129 53.6145 19.2887C53.6065 20.9168 52.3905 22.0528 50.6578 22.0528C49.3637 22.0385 48.1959 21.5939 47.5349 20.8632C47.5026 20.8225 47.5026 20.7641 47.5349 20.7232L48.0938 19.9C48.112 19.8734 48.1404 19.8562 48.1719 19.8526C48.2028 19.8472 48.2344 19.858 48.256 19.8815C48.9097 20.512 49.7637 20.8776 50.6598 20.9105C51.0842 20.9257 51.4957 20.7589 51.7957 20.4502C52.0958 20.1415 52.2576 19.7185 52.2424 19.2825C52.2523 18.1731 51.399 17.8458 50.3633 17.5556C48.7007 17.0884 47.7912 16.1087 47.7912 14.8038C47.7912 13.1016 49.2777 12.3133 50.6578 12.3133C51.4507 12.3165 52.2269 12.5467 52.8994 12.9782C52.9243 12.9954 52.9415 13.022 52.9475 13.0522C52.9535 13.0817 52.947 13.1125 52.9294 13.1366L52.3826 13.9352C52.3501 13.9814 52.2896 13.9962 52.2403 13.9702C51.759 13.6745 51.2171 13.4984 50.6578 13.4556C49.8786 13.4556 49.0773 13.8735 49.0773 14.8079C49.0573 15.7094 49.9887 16.0655 50.6919 16.2713ZM65.0127 15.2648C65.0124 15.2125 64.9779 15.1668 64.9286 15.1537C64.7053 15.0938 64.4761 15.0606 64.2454 15.0549C63.6098 15.0563 63.0164 15.3827 62.663 15.9255L62.6069 15.3451C62.6016 15.2878 62.5547 15.244 62.4987 15.2442H61.5191C61.4904 15.2442 61.4629 15.2559 61.4426 15.2768C61.4224 15.2976 61.4109 15.3259 61.4109 15.3554V21.7585C61.4109 21.8199 61.4594 21.8697 61.5191 21.8697H62.5888C62.6175 21.8697 62.645 21.858 62.6653 21.8372C62.6856 21.8163 62.697 21.788 62.697 21.7585V18.2822C62.697 17.7944 62.8051 16.1992 64.1894 16.1992C64.4214 16.1758 64.6543 16.2354 64.8484 16.3681C64.8822 16.3867 64.9228 16.3867 64.9566 16.3681C64.991 16.3476 65.0123 16.3101 65.0127 16.2692V15.2648ZM92.8573 9.48938C92.8918 9.50285 92.9171 9.53415 92.9233 9.57177L93.1995 10.4362C93.2133 10.48 93.1995 10.5281 93.1657 10.5576C92.5987 11.0393 91.8391 11.2842 90.9098 11.2842C89.0108 11.2842 87.6826 9.80231 87.6826 7.77285C87.6826 5.74343 89.0453 4.27385 90.9221 4.27385C91.3887 4.27385 92.5442 4.36648 93.1458 5.2227C93.1726 5.26145 93.1726 5.31362 93.1458 5.35237L92.6946 6.02335C92.677 6.05331 92.6447 6.07187 92.611 6.07275C92.5764 6.06928 92.545 6.05404 92.5204 6.02953C92.0739 5.45734 91.5529 5.41206 90.9183 5.41206C89.488 5.41206 88.9808 6.68199 88.9808 7.77077C88.9808 9.26715 89.686 10.1275 90.9183 10.1275C91.5835 10.1568 92.2365 9.93754 92.7568 9.51C92.7844 9.48523 92.8227 9.47738 92.8573 9.48938ZM73.5402 7.78523C73.5402 9.80431 74.8584 11.2842 76.6752 11.2842C77.4451 11.2874 78.181 10.9572 78.7028 10.3745V10.9919C78.7028 11.0533 78.7511 11.1031 78.8109 11.1031H79.8806C79.9404 11.1031 79.9888 11.0533 79.9888 10.9919V4.57642C79.9888 4.51503 79.9404 4.46527 79.8806 4.46527H78.9007C78.8447 4.46502 78.7979 4.50879 78.7925 4.56612L78.7288 5.21447C78.2078 4.61354 77.4582 4.27479 76.6752 4.28621C75.1668 4.28621 73.5402 5.622 73.5402 7.78523ZM74.8263 7.78523C74.8263 8.91723 75.3351 10.1357 76.7638 10.1418C77.9776 10.1418 78.7028 8.94192 78.7028 7.78523C78.7028 6.30739 77.9776 5.42647 76.7638 5.42647C75.4273 5.42647 74.8263 6.64905 74.8263 7.78523ZM86.9237 7.50322C86.9314 5.36678 86.1142 4.28621 84.4998 4.28621C83.7179 4.26443 82.9667 4.60077 82.4503 5.20418L82.3881 4.57024C82.3835 4.51291 82.336 4.46914 82.2799 4.46938H81.2947C81.2349 4.46938 81.1865 4.51915 81.1865 4.58053V10.9796C81.1865 11.041 81.2349 11.0907 81.2947 11.0907H82.3643C82.3927 11.0907 82.4204 11.079 82.4411 11.0582C82.461 11.0373 82.4725 11.0091 82.4725 10.9796V6.96191C82.4725 6.07069 83.5759 5.42647 84.3171 5.42647C84.9187 5.42647 85.277 5.65905 85.4673 6.16125C85.6377 6.61407 85.6377 7.22948 85.6377 7.78523V10.9796C85.6377 11.041 85.686 11.0907 85.7459 11.0907H86.8155C86.8753 11.0907 86.9237 11.041 86.9237 10.9796V7.50322Z" fill="var(--fill-0, white)"/>
</g>
</svg>
