<svg overflow="visible" style="display: block;" viewBox="0 0 104.737 27.5" fill="none" xmlns="http://www.w3.org/2000/svg" width="104.737" height="27.5">
<path id="Vector" d="M25.104 0.916512C24.1279 0.916512 23.7 1.34124 23.7 2.57071V8.37528C23.7 10.7746 22.2547 13.0026 18.786 13.0026C15.2047 13.0026 13.8007 10.7672 13.8007 8.37528V2.57071C13.8007 1.34124 13.3727 0.916512 12.4004 0.916512C12.1789 0.916512 12.1789 0.312954 12.4004 0.312954H17.6297C17.8475 0.312954 17.8475 0.916512 17.6297 0.916512C16.6575 0.916512 16.2295 1.34124 16.2295 2.57071V8.37528C16.2295 10.0742 17.2393 11.7843 19.3754 11.7843C21.5114 11.7843 22.5212 10.0742 22.5212 8.37528V2.57071C22.5212 1.34124 22.0933 0.916512 21.1172 0.916512C20.8957 0.916512 20.8957 0.312954 21.1172 0.312954H25.104C25.3217 0.312954 25.3217 0.916512 25.104 0.916512ZM36.6738 9.89535C36.2767 10.5597 35.7068 11.1057 35.0238 11.476C34.3408 11.8464 33.57 12.0275 32.7922 12.0004C30.4759 12.0004 28.5689 10.0742 28.5689 6.48265C28.5689 2.73463 30.4459 0.894156 32.7584 0.894156C35.495 0.894156 36.1032 3.31211 36.2121 3.87469C36.2534 4.09823 36.8728 4.05724 36.854 3.83743L36.5837 0.916512C36.5837 0.916512 35.2285 0 32.4543 0C29.4061 0 25.9899 1.78459 25.9899 6.54971C25.9899 11.4303 29.6125 13.0659 32.4543 13.0659C34.0453 13.086 35.5944 12.5595 36.839 11.5756C36.9328 11.1099 36.9028 9.58612 36.6738 9.89535V9.89535ZM51.6635 12.0972C50.6875 12.0972 50.2595 11.6725 50.2595 10.443V2.57071C50.2595 1.34124 50.6875 0.916512 51.6635 0.916512C51.8813 0.916512 51.8813 0.312954 51.6635 0.312954H46.468C46.2465 0.312954 46.2465 0.916512 46.468 0.916512C47.444 0.916512 47.872 1.33006 47.872 2.57071V5.55123C47.872 5.65555 47.7969 5.70771 47.688 5.70771H42.6877C42.6632 5.71062 42.6383 5.70802 42.6149 5.70012C42.5915 5.69221 42.5702 5.6792 42.5526 5.66204C42.5349 5.64488 42.5214 5.62401 42.5129 5.60096C42.5045 5.57792 42.5013 5.55328 42.5038 5.52888V2.58188C42.5038 1.34124 42.9317 0.927689 43.9078 0.927689C44.1255 0.927689 44.1255 0.324131 43.9078 0.324131H38.7122C38.4907 0.324131 38.4907 0.927689 38.7122 0.927689C39.6883 0.927689 40.1162 1.35241 40.1162 2.58188V10.443C40.1162 11.6725 39.6883 12.0972 38.7122 12.0972C38.4907 12.0972 38.4907 12.7008 38.7122 12.7008H43.9078C44.1255 12.7008 44.1255 12.0972 43.9078 12.0972C42.9317 12.0972 42.5038 11.6725 42.5038 10.443V6.83659C42.5007 6.81189 42.5034 6.78683 42.5116 6.76331C42.5198 6.73979 42.5332 6.71843 42.5509 6.70084C42.5687 6.68325 42.5902 6.66989 42.6139 6.66178C42.6376 6.65367 42.6628 6.65102 42.6877 6.65403H47.688C47.7969 6.65403 47.872 6.70991 47.872 6.81423V10.443C47.872 11.6725 47.444 12.0972 46.468 12.0972C46.2465 12.0972 46.2465 12.7008 46.468 12.7008H51.6635C51.8813 12.7008 51.8813 12.0972 51.6635 12.0972ZM64.0518 9.60848C63.7627 11.0056 62.9443 11.788 60.8834 11.788C59.2616 11.788 58.3644 11.6241 58.3644 10.4766V7.00052C58.3608 6.97176 58.3638 6.94255 58.3732 6.91513C58.3827 6.88771 58.3983 6.8628 58.419 6.8423C58.4397 6.82181 58.4648 6.80627 58.4924 6.79689C58.52 6.7875 58.5494 6.78451 58.5784 6.78815H59.8961C61.255 6.78815 61.7956 7.31347 61.7956 8.27842C61.7956 8.49823 62.4375 8.49451 62.4375 8.27842V4.42236C62.4375 4.20254 61.7956 4.20254 61.7956 4.42236C61.7956 5.38731 61.255 5.91262 59.8961 5.91262H58.5747C58.5457 5.91626 58.5163 5.91328 58.4886 5.90389C58.461 5.8945 58.4359 5.87897 58.4152 5.85847C58.3946 5.83798 58.3789 5.81307 58.3695 5.78564C58.36 5.75822 58.357 5.72901 58.3607 5.70026V1.49026C58.3607 1.33006 58.447 1.25555 58.6085 1.24437C58.8825 1.24437 59.318 1.24437 60.0537 1.24437C62.6515 1.24437 63.1433 1.83302 63.5149 3.42388C63.5675 3.6437 64.1794 3.60644 64.1606 3.39035L63.8791 0.331584H54.5804C54.3627 0.331584 54.3627 0.935139 54.5804 0.935139C55.5564 0.935139 55.9844 1.35987 55.9844 2.58933V10.443C55.9844 11.6725 55.5564 12.0972 54.5804 12.0972C54.3627 12.0972 54.3627 12.7008 54.5804 12.7008H64.4009L64.7162 9.64201C64.7275 9.42592 64.1081 9.38866 64.063 9.60848H64.0518ZM6.77316 12.7008H0.166115C-0.0553716 12.7008 -0.0553716 12.0972 0.166115 12.0972C1.14216 12.0972 1.57011 11.6725 1.57011 10.443V2.57071C1.57011 1.34124 1.14216 0.916512 0.166115 0.916512C-0.0553716 0.916512 -0.0553716 0.312954 0.166115 0.312954H6.54792C8.71774 0.312954 10.4221 1.12887 10.4221 3.31956C10.4221 4.80983 9.24705 5.71889 7.97069 6.10636C9.51358 6.38206 11.0114 7.33582 11.0114 9.32905C10.9964 11.5272 9.05935 12.7008 6.77316 12.7008ZM3.96141 5.45064C3.96141 5.77105 4.24672 5.87164 5.02004 5.87164C6.65679 5.87164 7.95192 5.242 7.95192 3.41643C7.95192 1.69517 6.5742 1.09907 4.94872 1.09907C4.43066 1.09907 3.96141 1.16613 3.96141 1.47163V5.45064ZM8.46622 9.32533C8.46622 7.49975 6.79193 6.68011 5.15519 6.68011C4.13785 6.68011 3.95766 6.7807 3.95766 7.10111V10.7299C3.95766 11.6837 4.39688 11.8998 5.4968 11.8998C7.13355 11.9072 8.46622 11.1733 8.46622 9.33278V9.32533ZM78.9552 12.6784C78.5857 12.7603 78.2073 12.7954 77.829 12.7827C75.7868 12.7827 74.8595 12.0376 74.0449 10.6368C73.3842 9.51906 73.0689 8.90433 72.472 7.73447C72.4005 7.5177 72.2566 7.33163 72.0641 7.20699C71.8716 7.08235 71.6421 7.0266 71.4134 7.04895H71.038C71.0134 7.04604 70.9885 7.04864 70.9652 7.05654C70.9418 7.06445 70.9205 7.07746 70.9028 7.09462C70.8852 7.11178 70.8716 7.13265 70.8632 7.1557C70.8547 7.17874 70.8516 7.20338 70.854 7.22778V10.4207C70.854 11.6501 71.282 12.0749 72.2543 12.0749C72.4757 12.0749 72.4757 12.6784 72.2543 12.6784H67.0925C66.871 12.6784 66.871 12.0749 67.0925 12.0749C68.0648 12.0749 68.4927 11.6501 68.4927 10.4207V2.57071C68.4927 1.34124 68.0648 0.916512 67.0925 0.916512C66.871 0.916512 66.871 0.312954 67.0925 0.312954H73.1627C75.4151 0.312954 77.2133 1.47163 77.2133 3.66605C77.2133 5.30907 75.9482 6.30382 74.6193 6.72854L76.5789 10.2456C77.1532 11.2738 77.889 12.019 78.9176 12.1084C79.1391 12.1121 79.1616 12.63 78.9552 12.7008V12.6784ZM74.7544 3.66978C74.7544 1.90754 73.3279 1.14005 71.7287 1.14005C71.2106 1.14005 70.884 1.20711 70.884 1.49399V5.7785C70.884 6.09891 71.098 6.1995 71.8713 6.1995C73.5081 6.19577 74.7544 5.49162 74.7544 3.66978ZM80.2203 12.0972C80.0025 12.0972 80.0025 12.7008 80.2203 12.7008H90.0295L90.3448 9.64201C90.3673 9.42592 89.7479 9.38866 89.7029 9.60848C89.4176 11.0056 88.5767 11.788 86.5382 11.788C84.9128 11.788 84.0155 11.6241 84.0155 10.4766V7.00052C84.0119 6.97176 84.0149 6.94255 84.0243 6.91513C84.0338 6.88771 84.0495 6.8628 84.0701 6.8423C84.0908 6.82181 84.1159 6.80627 84.1435 6.79689C84.1711 6.7875 84.2006 6.78451 84.2295 6.78815H85.5509C86.9099 6.78815 87.4505 7.31347 87.4505 8.27842C87.4505 8.49823 88.0924 8.49451 88.0924 8.27842V4.42236C88.0924 4.20254 87.4505 4.20254 87.4505 4.42236C87.4505 5.38731 86.9099 5.91262 85.5509 5.91262H84.2295C84.2006 5.91626 84.1711 5.91328 84.1435 5.90389C84.1159 5.8945 84.0908 5.87897 84.0701 5.85847C84.0495 5.83798 84.0338 5.81307 84.0243 5.78564C84.0149 5.75822 84.0119 5.72901 84.0155 5.70026V1.49026C84.0155 1.33006 84.1019 1.25555 84.2633 1.24437C84.5411 1.24437 84.9728 1.24437 85.7086 1.24437C88.3064 1.24437 88.8019 1.83302 89.1736 3.42388C89.2224 3.6437 89.8343 3.60644 89.8155 3.39035L89.5527 0.312954H80.2203C80.0025 0.312954 80.0025 0.916512 80.2203 0.916512C81.1963 0.916512 81.6243 1.34124 81.6243 2.57071V10.443C81.6243 11.6725 81.1963 12.0972 80.2203 12.0972V12.0972ZM104.595 12.7008C104.226 12.7827 103.847 12.8177 103.469 12.8051C101.427 12.8051 100.499 12.06 99.6848 10.6591C99.024 9.54142 98.7087 8.92668 98.1118 7.75682C98.0406 7.54141 97.8978 7.35633 97.7069 7.23182C97.516 7.10731 97.2882 7.05072 97.0607 7.0713H96.7041C96.6795 7.0684 96.6547 7.07099 96.6313 7.0789C96.6079 7.0868 96.5866 7.09981 96.5689 7.11697C96.5513 7.13413 96.5377 7.15501 96.5293 7.17805C96.5208 7.2011 96.5177 7.22573 96.5201 7.25014V10.443C96.5201 11.6725 96.9481 12.0972 97.9204 12.0972C98.1419 12.0972 98.1419 12.7008 97.9204 12.7008H92.7323C92.5109 12.7008 92.5109 12.0972 92.7323 12.0972C93.7046 12.0972 94.1326 11.6725 94.1326 10.443V2.57071C94.1326 1.34124 93.7046 0.916512 92.7323 0.916512C92.5109 0.916512 92.5109 0.312954 92.7323 0.312954H98.8026C101.055 0.312954 102.853 1.47163 102.853 3.66605C102.853 5.30907 101.588 6.30382 100.259 6.72854L102.219 10.2456C102.793 11.2738 103.529 12.019 104.557 12.1084C104.779 12.1121 104.801 12.63 104.595 12.7008V12.7008ZM100.394 3.66978C100.394 1.90754 98.9677 1.14005 97.3685 1.14005C96.8505 1.14005 96.5239 1.20711 96.5239 1.49399V5.7785C96.5239 6.09891 96.7379 6.1995 97.5112 6.1995C99.1479 6.19577 100.394 5.49162 100.394 3.66978ZM7.88435 25.5431H8.729V22.8197H11.0264V22.0745H8.729V20.4427H11.0264V19.6976H7.88435V25.5431ZM14.131 25.5431H14.9757V19.6976H14.131V25.5431ZM23.1406 24.2391L19.1839 19.6976H18.5007V25.5431H19.2928V21.0425L23.2307 25.5431H23.9552V19.6976H23.1519L23.1406 24.2391ZM28.2498 22.9612H30.6636V22.2161H28.2498V20.4315H30.7462V19.6864H27.4089V25.5357H30.8288V24.7905H28.2498V22.9612ZM38.0102 25.3568C38.0334 25.6753 37.9952 25.9952 37.8976 26.2994C37.8354 26.4343 37.7279 26.5436 37.5935 26.6087C37.4168 26.6771 37.2274 26.7075 37.0379 26.6981H36.824L36.9779 27.4767C37.1093 27.4767 37.1994 27.4991 37.2519 27.4991C37.5672 27.5095 37.8787 27.4293 38.1491 27.2681C38.3875 27.1212 38.5748 26.9054 38.6859 26.6497C38.8152 26.2646 38.8712 25.8591 38.8511 25.4537V19.6976H38.0102V25.3568ZM43.6638 22.9612H46.0738V22.2161H43.6638V20.4315H46.1564V19.6864H42.8191V25.5357H46.239V24.7905H43.6638V22.9612ZM55.3012 23.7064L53.6569 19.6752H52.8611L51.2393 23.7287L49.6176 19.6976H48.7655L51.1417 25.5692H51.3219L53.2665 20.8153L55.1923 25.5692H55.3913L57.7751 19.6976H56.9342L55.3012 23.7064ZM61.2212 22.9612H63.6501V22.2161H61.24V20.4315H63.7364V19.6864H60.3954V25.5357H63.8153V24.7905H61.24L61.2212 22.9612ZM67.7307 19.6827H66.8898V25.5431H70.4073V24.798H67.7419L67.7307 19.6827ZM74.0712 19.6827H73.2265V25.5431H76.7215V24.798H74.0712V19.6827ZM80.5093 22.9612H82.9194V22.2161H80.5093V20.4315H83.0057V19.6864H79.6647V25.5357H83.0846V24.7905H80.5093V22.9612ZM90.341 25.1259L90.6564 25.5431H89.6503L89.395 25.1706C89.3792 25.1458 89.3617 25.1221 89.3425 25.0998L89.1773 24.8576L88.9183 24.4515L88.6367 23.9933C88.4932 23.7899 88.3338 23.5981 88.16 23.4195C88.0485 23.3021 87.9224 23.1994 87.7846 23.114C87.5979 23.0385 87.3962 23.0066 87.1952 23.0209H86.9775V25.5618H86.1328V19.6976H87.6081C88.1189 19.6711 88.6223 19.8271 89.0271 20.1372C89.1994 20.2831 89.3361 20.4659 89.4271 20.6717C89.5182 20.8775 89.5611 21.1011 89.5527 21.3257C89.5623 21.6397 89.4717 21.9488 89.2937 22.2087C89.11 22.4698 88.8469 22.6656 88.5429 22.7675C88.7492 22.9078 88.9349 23.0758 89.0947 23.2668C89.3689 23.623 89.6196 23.9963 89.8455 24.3844C90.0557 24.7086 90.2172 24.9582 90.341 25.1259ZM88.5279 21.8175C88.6163 21.6659 88.6617 21.4934 88.6592 21.3182C88.6611 21.1411 88.6102 20.9674 88.5128 20.819C88.414 20.6697 88.2671 20.5581 88.0961 20.5023C87.8068 20.4298 87.5083 20.3997 87.2102 20.4129H86.9587V22.2571H87.2778C87.5748 22.2752 87.8726 22.2386 88.1562 22.1491C88.311 22.0783 88.4405 21.9627 88.5279 21.8175V21.8175ZM94.2339 21.7132L92.6573 19.6976H91.6399L93.8135 22.4546V25.5431H94.6807V22.4546L96.8542 19.6976H95.8294L94.2339 21.7132Z" fill="var(--fill-0, white)"/>
</svg>
