<svg overflow="visible" style="display: block;" viewBox="0 0 123 45" fill="none" xmlns="http://www.w3.org/2000/svg" width="123" height="45">
<g id="Vector">
<path d="M12.9228 34.4602C14.4797 33.5163 15.4139 32.1005 15.4139 30.2128C15.4139 26.9093 12.7671 25.1788 8.4076 25.1788H0L1.86835 27.0666V42.483L0 44.5281H9.34177C13.3899 44.5281 15.881 42.1684 15.881 39.1795C16.0367 36.9771 14.7911 35.404 12.9228 34.4602ZM8.4076 27.0666C11.0544 27.0666 12.3 28.3251 12.3 30.2128C12.3 31.9432 11.5215 33.6736 9.03038 33.6736H4.67089V27.0666H8.4076ZM8.87468 42.7976H4.67089V35.5614H9.18608C11.6772 35.5614 12.7671 37.2918 12.7671 39.1795C12.7671 40.9099 11.3658 42.7976 8.87468 42.7976ZM35.6544 44.5281L37.5228 42.6403V27.2239L35.6544 25.1788H42.8165C44.2177 25.1788 45.3076 25.3362 46.2418 25.6508C48.7329 26.4373 49.9785 28.1677 49.9785 30.5274C49.9785 32.5724 48.4215 34.4602 46.0861 35.2467L50.6013 42.6403L52.6253 44.6854H48.5772L43.5949 35.876H40.481V42.7976L42.3494 44.6854L35.6544 44.5281ZM42.8165 33.9882C45.7747 33.9882 46.8646 32.4151 46.8646 30.5274C46.8646 28.6397 45.4633 27.0666 42.9722 27.0666H40.1696V33.9882H42.8165ZM53.7152 44.5281L55.5835 42.6403V27.2239L53.7152 25.1788H60.8772C62.2785 25.1788 63.3684 25.3362 64.3025 25.6508C66.7937 26.4373 68.0392 28.1677 68.0392 30.5274C68.0392 32.5724 66.4823 34.4602 64.1468 35.2467L68.662 42.6403L70.6861 44.6854H66.638L61.6557 35.876H58.5418V42.7976L60.4101 44.6854L53.7152 44.5281ZM60.8772 33.9882C63.8354 33.9882 64.9253 32.4151 64.9253 30.5274C64.9253 28.6397 63.5241 27.0666 61.0329 27.0666H58.2304V33.9882H60.8772ZM87.5013 34.9321C87.5013 39.8087 84.543 45 78.938 45C73.3329 45 70.3747 39.8087 70.3747 34.9321C70.3747 30.0555 73.3329 24.8642 78.938 24.8642C84.543 24.8642 87.5013 30.0555 87.5013 34.9321ZM79.0937 26.5946C75.0456 26.5946 73.6443 30.9993 73.6443 34.7748C73.6443 38.7076 75.0456 42.955 79.0937 42.955C83.1418 42.955 84.543 38.5503 84.543 34.7748C84.3873 30.9993 83.1418 26.5946 79.0937 26.5946ZM108.832 25.1788L110.7 27.0666L106.808 39.4941L102.292 27.0666L104.161 25.1788H97.4658L99.3342 27.2239L99.957 28.797L96.5316 39.4941L92.0165 27.0666L93.8848 25.1788H87.1899L89.0582 27.2239L95.4418 44.5281H96.843L101.047 31.7859L105.718 44.5281H106.963L112.724 27.2239L114.748 25.1788H108.832ZM27.7139 44.5281H34.5646L32.6962 42.483L25.8456 25.1788H24.4443L17.438 42.483L15.4139 44.5281H21.3304L19.462 42.6403L20.8633 39.3368H28.3367L29.5823 42.6403L27.7139 44.5281ZM21.4861 37.4491L24.6 29.7409L27.5582 37.4491H21.4861ZM8.87468 20.1449C3.42532 20.1449 0 15.7402 0 9.9197C0 4.0992 3.26962 0.166432 9.34177 0.166432C11.0544 0.166432 13.0785 0.795675 14.4797 1.58223V5.67231L11.8329 2.99803C11.0544 2.21147 10.2759 1.89685 9.03038 1.89685C5.13797 1.89685 3.11392 5.20038 3.11392 9.9197C3.11392 14.639 5.29367 18.2572 9.03038 18.2572C10.2759 18.2572 11.0544 17.9425 11.9886 17.156L14.4797 14.639V18.7291C13.0785 19.5157 11.3658 20.1449 8.87468 20.1449ZM33.0076 10.2343C33.0076 15.111 30.0494 20.3022 24.4443 20.3022C18.8392 20.3022 15.881 15.111 15.881 10.2343C15.881 5.35769 18.8392 0.166432 24.4443 0.166432C30.0494 0.166432 33.0076 5.35769 33.0076 10.2343ZM24.4443 2.05416C20.3962 2.05416 18.9949 6.45886 18.9949 10.2343C18.9949 14.0098 20.3962 18.4145 24.4443 18.4145C28.4924 18.4145 29.8937 14.0098 29.8937 10.2343C29.738 6.45886 28.4924 2.05416 24.4443 2.05416ZM64.6139 2.6834L62.5899 0.638364H68.8177L66.7937 2.6834V21.2461L55.2722 4.57113V17.7852L57.2962 19.8303H51.0684L53.0924 17.7852V2.52609L51.2241 0.638364H55.8949L64.6139 13.5378V2.6834ZM70.3747 19.8303L72.3987 17.9425V2.52609L70.3747 0.638364H83.2975V4.72844L80.8063 2.36878H75.0456V8.81852H79.4051L81.1177 6.93079V12.2794L79.4051 10.5489H75.0456V18.0999H82.0519L84.3873 15.7402V19.8303H70.3747ZM99.957 2.6834L94.6633 11.0209V17.9425L96.5316 19.8303H90.1481L92.0165 17.9425V11.0209L86.8785 2.6834L84.543 0.638364H91.5494L89.8367 2.52609L93.7291 9.13315L97.7772 2.52609L96.0646 0.638364H102.137L99.957 2.6834ZM33.6304 19.8303L35.4987 17.9425V2.52609L33.6304 0.638364H40.7924C42.1937 0.638364 43.2835 0.795675 44.2177 1.1103C46.7089 1.73954 47.9544 3.62727 47.9544 5.98693C47.9544 8.03197 46.3975 9.9197 44.062 10.7063L48.5772 18.0999L50.6013 20.1449H46.5532L41.4152 11.0209H38.3013V17.9425L40.1696 19.8303H33.6304ZM40.7924 9.29046C43.7506 9.29046 44.8405 7.71735 44.8405 5.82962C44.8405 3.94189 43.4392 2.36878 40.9481 2.36878H38.1456V9.29046H40.7924Z" fill="white"/>
<path d="M123 6.30155L120.197 7.0881H109.922L112.101 9.44777C113.347 11.0209 113.97 12.9086 113.658 14.639L107.897 8.5039C106.808 7.08811 106.029 5.67231 106.029 4.57113C106.029 2.6834 107.43 1.58223 108.832 1.58223C109.61 1.58223 110.233 1.89685 111.011 2.6834L113.347 4.88575V1.58223C111.79 0.638364 110.544 0.166432 108.987 0.00912088C106.185 -0.14819 103.071 1.73954 103.071 4.88575C103.071 6.45886 103.694 7.87466 104.784 9.29046C102.915 10.2343 101.203 12.2794 101.203 14.7963C101.203 18.8864 104.628 21.0888 108.209 21.0888C110.7 21.0888 112.568 20.3022 113.97 18.8864L115.059 19.9876H119.886L116.772 17.7852L115.527 16.3694C116.305 14.1671 115.994 11.6501 114.748 9.44777H120.976L123 6.30155ZM108.365 19.0437C105.718 19.0437 104.005 17.3133 104.005 14.639C104.005 12.9086 104.628 11.4928 105.873 10.3916L112.413 17.3133C111.634 18.4145 110.233 19.0437 108.365 19.0437Z" fill="var(--fill-0, white)"/>
</g>
</svg>
