<svg overflow="visible" style="display: block;" viewBox="0 0 116.375 25" fill="none" xmlns="http://www.w3.org/2000/svg">
<g id="Vector">
<path d="M40.5405 9.996C40.5405 7.52194 38.8115 5.7861 36.1685 5.7861H30.2861V19.2338H32.6311V14.2059H34.9562L37.9371 19.2338H40.6398L37.3608 13.9465C38.9705 13.6672 40.5405 12.3903 40.5405 9.996ZM32.6311 12.1309V7.86113H35.8505C37.182 7.86113 38.1359 8.69911 38.1359 9.996C38.1359 11.2929 37.182 12.1309 35.8505 12.1309H32.6311Z" fill="white"/>
<path d="M43.6406 19.2139H52.802V17.1389H45.9856V13.4078H51.9872V11.3328H45.9856V7.86113H52.802V5.76615H43.6406V19.2139Z" fill="white"/>
<path d="M61.1287 5.76615H56.1406V19.2139H61.1287C65.302 19.2139 68.1438 16.4605 68.1438 12.51C68.1438 8.55945 65.302 5.76615 61.1287 5.76615ZM61.1287 17.1389H58.5055V7.86113H61.1287C64.1295 7.86113 65.7193 9.91619 65.7193 12.51C65.7193 15.0439 64.0301 17.1389 61.1287 17.1389Z" fill="white"/>
<path d="M81.3989 9.996C81.3989 7.52194 79.67 5.7861 77.0269 5.7861H71.1446V19.2338H73.4895V14.2059H75.8147L78.7956 19.2338H81.4983L78.2193 13.9465C79.829 13.6672 81.3989 12.3903 81.3989 9.996ZM73.4895 12.1309V7.86113H76.7089C78.0404 7.86113 78.9943 8.69911 78.9943 9.996C78.9943 11.2929 78.0404 12.1309 76.7089 12.1309H73.4895Z" fill="white"/>
<path d="M113.752 5.76615L111.148 16.1413L108.386 5.76615H106.518L103.756 16.1413L101.133 5.76615H98.5094L102.345 19.2139H104.849L107.432 9.29768L110.055 19.2139H112.559L116.375 5.76615H113.752Z" fill="white"/>
<path d="M90.4013 5.54668C89.0295 5.54668 87.6886 5.95507 86.5481 6.7202C85.4075 7.48534 84.5186 8.57286 83.9936 9.84523C83.4687 11.1176 83.3313 12.5177 83.5989 13.8684C83.8666 15.2192 84.5271 16.4599 85.4971 17.4338C86.467 18.4076 87.7028 19.0708 89.0482 19.3395C90.3936 19.6081 91.7881 19.4702 93.0554 18.9432C94.3227 18.4162 95.4059 17.5237 96.168 16.3786C96.9301 15.2335 97.3369 13.8872 97.3369 12.51C97.3377 11.5953 97.1589 10.6894 96.8106 9.84424C96.4624 8.99904 95.9515 8.23107 95.3074 7.58431C94.6632 6.93754 93.8982 6.42466 93.0564 6.07502C92.2146 5.72538 91.3123 5.54584 90.4013 5.54668ZM90.4013 16.9194C89.5287 16.9194 88.6757 16.6596 87.9502 16.1729C87.2247 15.6862 86.6593 14.9944 86.3253 14.1851C85.9914 13.3757 85.9041 12.4851 86.0743 11.6259C86.2445 10.7667 86.6647 9.97744 87.2817 9.35798C87.8987 8.73852 88.6848 8.31666 89.5406 8.14576C90.3964 7.97485 91.2834 8.06256 92.0896 8.39781C92.8957 8.73306 93.5847 9.30078 94.0695 10.0292C94.5543 10.7576 94.813 11.614 94.813 12.49C94.8143 13.0721 94.7011 13.6486 94.4799 14.1866C94.2586 14.7246 93.9337 15.2134 93.5238 15.625C93.1138 16.0366 92.627 16.3628 92.0911 16.5849C91.5553 16.807 90.981 16.9207 90.4013 16.9194Z" fill="white"/>
<path d="M12.4404 8.0806C13.2354 8.07863 14.0121 7.84024 14.6724 7.39553C15.3326 6.95082 15.8469 6.31971 16.1502 5.58185C16.4536 4.84399 16.5324 4.03244 16.3768 3.24963C16.2212 2.46682 15.8382 1.74782 15.276 1.18338C14.7138 0.618934 13.9976 0.234337 13.2179 0.078123C12.4382 -0.0780909 11.6299 0.00107959 10.895 0.305643C10.1601 0.610207 9.53147 1.12651 9.08853 1.78941C8.64559 2.4523 8.40815 3.23207 8.40619 4.03032C8.40377 4.56289 8.50646 5.09066 8.70834 5.58316C8.91022 6.07566 9.20728 6.52313 9.58237 6.89972C9.95746 7.27631 10.4031 7.57455 10.8937 7.77724C11.3842 7.97992 11.9099 8.08303 12.4404 8.0806ZM12.4404 1.9553C12.8491 1.9553 13.2487 2.077 13.5886 2.305C13.9285 2.53301 14.1934 2.85708 14.3498 3.23624C14.5062 3.6154 14.5472 4.03262 14.4674 4.43513C14.3877 4.83765 14.1908 5.20738 13.9018 5.49758C13.6127 5.78778 13.2445 5.9854 12.8436 6.06547C12.4427 6.14553 12.0271 6.10444 11.6494 5.94739C11.2718 5.79033 10.949 5.52437 10.7219 5.18314C10.4948 4.8419 10.3736 4.44072 10.3736 4.03032C10.3734 3.75776 10.4267 3.48784 10.5305 3.23599C10.6343 2.98415 10.7865 2.75531 10.9785 2.56259C11.1704 2.36986 11.3983 2.21703 11.6492 2.11282C11.9 2.00862 12.1689 1.95509 12.4404 1.9553Z" fill="white"/>
<path d="M12.4404 13.4278C11.4882 11.1639 9.89293 9.23175 7.85363 7.87271C5.81433 6.51366 3.42143 5.78792 0.973766 5.7861H0V6.76376C0.00224015 9.89769 1.17881 12.9161 3.29589 15.219C5.41297 17.522 8.31557 18.941 11.4268 19.1939C11.2875 20.7171 10.8269 22.193 10.0755 23.5235C10.0099 23.6345 9.967 23.7574 9.94947 23.8853C9.93194 24.0131 9.94008 24.1431 9.97342 24.2677C10.0068 24.3923 10.0646 24.5089 10.1436 24.6107C10.2226 24.7125 10.321 24.7974 10.4332 24.8603C10.5794 24.9431 10.7426 24.9909 10.9102 25C11.0786 24.9993 11.244 24.9549 11.3903 24.871C11.5366 24.787 11.6587 24.6665 11.7448 24.5211C12.6775 22.9043 13.2345 21.097 13.3744 19.2338C16.5007 18.9928 19.4217 17.5773 21.5544 15.2696C23.6872 12.9619 24.8749 9.93178 24.8807 6.78371V5.7861H23.907C21.4587 5.78518 19.0646 6.50983 17.0248 7.86922C14.985 9.2286 13.3902 11.1622 12.4404 13.4278ZM1.98728 7.80127C4.40263 8.03679 6.66182 9.10623 8.37958 10.8272C10.0973 12.5482 11.1673 14.8141 11.407 17.2386C8.99286 16.9998 6.73554 15.9292 5.01842 14.2089C3.30131 12.4886 2.23029 10.2245 1.98728 7.80127ZM13.4539 17.2386C13.6962 14.8132 14.7664 12.5464 16.4832 10.8228C18.2001 9.09912 20.4578 8.02457 22.8736 7.78132C22.6379 10.2093 21.5697 12.4797 19.8517 14.2046C18.1336 15.9296 15.8722 17.002 13.4539 17.2386Z" fill="white"/>
</g>
</svg>
