<svg overflow="visible" style="display: block;" viewBox="0 0 139.442 16.4324" fill="none" xmlns="http://www.w3.org/2000/svg" width="139.442" height="16.4324">
<g id="g687">
<path id="path294" d="M66.4914 0.183998C66.5248 0.186824 66.5554 0.195325 66.5804 0.209477C66.6083 0.22363 66.6333 0.243442 66.6583 0.266095C66.6834 0.291574 66.7112 0.32554 66.7446 0.365171L69.9325 4.60844C69.9242 4.50654 69.9131 4.40746 69.9103 4.30839C69.9046 4.21214 69.9046 4.11873 69.9046 4.0338V0.175511H70.9005V6.52202H70.3163C70.2273 6.52202 70.1522 6.51069 70.0938 6.47956C70.0354 6.45126 69.9769 6.39747 69.9213 6.32104L66.7445 2.09475C66.7528 2.18817 66.7583 2.28158 66.7639 2.37216C66.7667 2.46558 66.7696 2.54767 66.7696 2.62693V6.52202H65.7737V0.175514H66.3662C66.4163 0.175514 66.458 0.178331 66.4914 0.183998Z" fill="var(--fill-0, white)"/>
<path id="path296" d="M73.4321 5.84547C73.5378 5.84547 73.6352 5.83698 73.7242 5.81717C73.816 5.79735 73.8994 5.76621 73.9801 5.72658C74.058 5.68695 74.1359 5.636 74.211 5.57655C74.2861 5.51711 74.3584 5.44917 74.4335 5.36708V4.6141C74.1331 4.6141 73.88 4.63109 73.6769 4.67355C73.4738 4.71318 73.3097 4.76413 73.1873 4.8264C73.0621 4.88868 72.9759 4.95945 72.9258 5.04154C72.8729 5.12363 72.8479 5.21422 72.8479 5.31329C72.8479 5.50295 72.9007 5.64166 73.0092 5.72375C73.1177 5.80584 73.2568 5.84547 73.4321 5.84547ZM75.4489 6.52202H74.9816C74.8842 6.52202 74.8063 6.50786 74.7507 6.47672C74.6951 6.44558 74.6533 6.38331 74.6227 6.2899L74.5309 5.97002C74.4224 6.07193 74.3139 6.16251 74.211 6.24177C74.1053 6.3182 73.9968 6.38048 73.8827 6.43426C73.7715 6.48805 73.6546 6.52485 73.5267 6.55315C73.4015 6.57863 73.2596 6.59279 73.1066 6.59279C72.9258 6.59279 72.7589 6.56731 72.6031 6.51636C72.4473 6.46257 72.3166 6.38614 72.2053 6.28707C72.094 6.18233 72.0078 6.05495 71.9466 5.90209C71.8854 5.74923 71.8548 5.57089 71.8548 5.36991C71.8548 5.19723 71.8965 5.03022 71.9827 4.86321C72.069 4.69902 72.2109 4.549 72.4111 4.41595C72.6087 4.28291 72.8729 4.16968 73.204 4.08192C73.535 3.99417 73.9467 3.94888 74.4335 3.94888V3.68562C74.4335 3.38273 74.3751 3.15627 74.2527 3.01191C74.1303 2.86471 73.9523 2.79394 73.7214 2.79394C73.5517 2.79394 73.4126 2.81375 73.2986 2.85338C73.1901 2.89584 73.0927 2.94114 73.0092 2.99209C72.9258 3.04304 72.8479 3.08834 72.7784 3.12797C72.7088 3.17042 72.6309 3.19024 72.5502 3.19024C72.4779 3.19024 72.4167 3.17326 72.3666 3.13362C72.3166 3.09683 72.2776 3.0487 72.2442 2.99209L72.0551 2.64674C72.553 2.17401 73.1511 1.93622 73.8494 1.93622C74.1025 1.93622 74.3278 1.97868 74.5253 2.06644C74.7229 2.15136 74.8898 2.27308 75.0289 2.42594C75.1652 2.5788 75.2681 2.7628 75.3404 2.97793C75.4128 3.19024 75.4489 3.42519 75.4489 3.67713V6.52202Z" fill="var(--fill-0, white)"/>
<path id="path298" d="M77.8858 6.59278C77.513 6.59278 77.2265 6.48239 77.0234 6.26159C76.8231 6.04079 76.7202 5.73507 76.7202 5.34726V2.83074H76.2835C76.2278 2.83074 76.1805 2.81375 76.1416 2.77412C76.0999 2.73732 76.0776 2.6807 76.0776 2.60427V2.174L76.7703 2.05511L76.9901 0.826572C77.0012 0.767128 77.0263 0.724666 77.068 0.690697C77.1097 0.656732 77.1598 0.639744 77.221 0.639744H77.7579V2.06077H78.8956V2.83073H77.7579V5.27083C77.7579 5.41236 77.794 5.52276 77.8608 5.59919C77.9275 5.67845 78.0166 5.71808 78.1306 5.71808C78.1946 5.71808 78.2475 5.71243 78.292 5.69544C78.3365 5.67845 78.3727 5.66147 78.406 5.64731C78.4367 5.6275 78.4672 5.61051 78.4923 5.59353C78.5173 5.57938 78.5423 5.57088 78.5674 5.57088C78.598 5.57088 78.623 5.57938 78.6425 5.59353C78.6619 5.61051 78.6814 5.63316 78.7064 5.66713L79.0152 6.19364C78.865 6.32386 78.6897 6.42293 78.495 6.4937C78.3003 6.55881 78.0972 6.59278 77.8858 6.59278Z" fill="var(--fill-0, white)"/>
<path id="path300" d="M80.829 6.52202H79.7886V2.02115H80.829V6.52202ZM80.982 0.707684C80.982 0.801098 80.9653 0.888851 80.9291 0.970942C80.893 1.05303 80.8429 1.1238 80.7845 1.18608C80.7233 1.24836 80.6537 1.29648 80.5731 1.33328C80.4896 1.37007 80.4034 1.38706 80.3088 1.38706C80.2226 1.38706 80.1363 1.37007 80.0556 1.33328C79.9778 1.29648 79.9082 1.24835 79.847 1.18608C79.7886 1.1238 79.7441 1.05303 79.7079 0.970942C79.6717 0.888851 79.6551 0.801098 79.6551 0.707684C79.6551 0.611438 79.6717 0.520855 79.7079 0.435933C79.7441 0.351011 79.7886 0.277412 79.847 0.215136C79.9082 0.155691 79.9778 0.104737 80.0556 0.0679374C80.1363 0.0311387 80.2226 0.0141534 80.3088 0.0141534C80.4034 0.0141534 80.4896 0.0311387 80.5731 0.0679374C80.6537 0.104736 80.7233 0.15569 80.7845 0.215136C80.8429 0.277414 80.893 0.351011 80.9291 0.435933C80.9653 0.520855 80.982 0.611438 80.982 0.707684Z" fill="var(--fill-0, white)"/>
<path id="path302" d="M83.8417 5.75489C84.2006 5.75489 84.4648 5.63033 84.6373 5.3784C84.8098 5.12363 84.896 4.75847 84.896 4.27158C84.896 3.78469 84.8098 3.4167 84.6373 3.1591C84.4648 2.90717 84.2006 2.77978 83.8417 2.77978C83.4773 2.77978 83.2075 2.90717 83.035 3.16476C82.8625 3.41953 82.7735 3.78752 82.7735 4.27158C82.7735 4.75564 82.8625 5.1208 83.035 5.37557C83.2075 5.6275 83.4773 5.75489 83.8417 5.75489ZM83.8417 1.95038C84.1644 1.95038 84.4537 2.00416 84.7152 2.11173C84.9795 2.22213 85.202 2.37499 85.3884 2.57314C85.572 2.77129 85.7167 3.01473 85.8168 3.30064C85.917 3.58654 85.967 3.90925 85.967 4.26309C85.967 4.61976 85.917 4.94246 85.8168 5.22837C85.7167 5.51427 85.572 5.76055 85.3884 5.9587C85.202 6.16251 84.9795 6.3182 84.7152 6.42577C84.4537 6.53617 84.1644 6.58712 83.8417 6.58712C83.519 6.58712 83.2269 6.53617 82.9626 6.42577C82.6984 6.3182 82.4758 6.16251 82.2867 5.9587C82.1031 5.76055 81.9556 5.51427 81.8527 5.22837C81.7526 4.94246 81.7025 4.61976 81.7025 4.26309C81.7025 3.90925 81.7525 3.58654 81.8527 3.30064C81.9556 3.01473 82.1031 2.77129 82.2867 2.57314C82.4758 2.37499 82.6984 2.22213 82.9626 2.11173C83.2269 2.00416 83.519 1.95038 83.8417 1.95038Z" fill="var(--fill-0, white)"/>
<path id="path304" d="M86.7793 6.52201V2.01831H87.4136C87.5471 2.01831 87.6361 2.08342 87.6779 2.21647L87.7502 2.57314C87.8364 2.47972 87.9282 2.3948 88.0256 2.31837C88.1229 2.24194 88.2259 2.17684 88.3316 2.12022C88.4401 2.0636 88.5541 2.02115 88.6765 1.99284C88.8017 1.96453 88.9352 1.95038 89.0827 1.95038C89.3163 1.95038 89.5278 1.99284 89.7086 2.07493C89.8894 2.15985 90.0424 2.27591 90.1648 2.42594C90.2872 2.57597 90.379 2.75714 90.443 2.96378C90.5069 3.17609 90.5376 3.40538 90.5376 3.65731V6.52202H89.5V3.65731C89.5 3.3799 89.4388 3.17042 89.3136 3.01756C89.194 2.86753 89.0104 2.7911 88.7683 2.7911C88.5875 2.7911 88.4178 2.83356 88.262 2.91849C88.1063 3.00341 87.9588 3.11947 87.8169 3.26667V6.52201H86.7793Z" fill="var(--fill-0, white)"/>
<path id="path306" d="M92.9188 5.84547C93.0273 5.84547 93.1247 5.83698 93.2137 5.81717C93.3027 5.79735 93.389 5.76621 93.4669 5.72658C93.5475 5.68695 93.6254 5.636 93.7005 5.57655C93.7729 5.51711 93.848 5.44917 93.9259 5.36708V4.6141C93.6226 4.6141 93.3695 4.63109 93.1664 4.67355C92.9634 4.71318 92.7992 4.76413 92.6768 4.8264C92.5516 4.88868 92.4654 4.95945 92.4125 5.04154C92.3625 5.12363 92.3374 5.21422 92.3374 5.31329C92.3374 5.50295 92.3903 5.64166 92.496 5.72375C92.6073 5.80584 92.7464 5.84547 92.9188 5.84547ZM94.9357 6.52202H94.4711C94.371 6.52202 94.2958 6.50786 94.2402 6.47672C94.1846 6.44558 94.1401 6.38331 94.1122 6.2899L94.0204 5.97002C93.912 6.07193 93.8062 6.16251 93.7005 6.24177C93.5948 6.3182 93.4863 6.38048 93.3751 6.43426C93.261 6.48805 93.1414 6.52485 93.0162 6.55315C92.891 6.57863 92.7492 6.59279 92.5961 6.59279C92.4125 6.59279 92.2456 6.56731 92.0899 6.51636C91.9396 6.46257 91.8061 6.38614 91.6948 6.28707C91.5836 6.18233 91.4973 6.05495 91.4361 5.90209C91.3749 5.74923 91.3443 5.57089 91.3443 5.36991C91.3443 5.19723 91.3861 5.03022 91.4695 4.86321C91.5585 4.69902 91.7004 4.549 91.8979 4.41595C92.0982 4.28291 92.3625 4.16968 92.6935 4.08192C93.0218 3.99417 93.4335 3.94888 93.9259 3.94888V3.68562C93.9259 3.38273 93.8647 3.15627 93.7423 3.01191C93.6199 2.86471 93.4418 2.79394 93.2109 2.79394C93.0412 2.79394 92.9022 2.81375 92.7881 2.85338C92.6796 2.89584 92.5795 2.94114 92.496 2.99209C92.4153 3.04304 92.3374 3.08834 92.2679 3.12797C92.1983 3.17042 92.1204 3.19024 92.037 3.19024C91.9674 3.19024 91.9063 3.17326 91.8562 3.13362C91.8061 3.09683 91.7672 3.0487 91.7338 2.99209L91.5446 2.64674C92.0426 2.17401 92.6379 1.93622 93.3389 1.93622C93.592 1.93622 93.8146 1.97868 94.0149 2.06644C94.2124 2.15136 94.3793 2.27308 94.5184 2.42594C94.6547 2.5788 94.7576 2.7628 94.83 2.97793C94.9023 3.19024 94.9357 3.42519 94.9357 3.67713V6.52202Z" fill="var(--fill-0, white)"/>
<path id="path308" d="M96.0261 6.52201H97.0638V3.78811e-09H96.0261V6.52201Z" fill="var(--fill-0, white)"/>
<path id="path310" d="M100.057 6.52201H101.192V0.175505H100.057V6.52201Z" fill="var(--fill-0, white)"/>
<path id="path312" d="M102.499 6.52201V2.01831H103.134C103.267 2.01831 103.356 2.08342 103.398 2.21647L103.468 2.57314C103.557 2.47972 103.646 2.3948 103.743 2.31837C103.84 2.24194 103.943 2.17684 104.052 2.12022C104.16 2.0636 104.274 2.02115 104.397 1.99284C104.522 1.96453 104.655 1.95038 104.8 1.95038C105.037 1.95038 105.245 1.99284 105.426 2.07493C105.61 2.15985 105.763 2.27591 105.885 2.42594C106.005 2.57597 106.099 2.75714 106.16 2.96378C106.224 3.17609 106.255 3.40538 106.255 3.65731V6.52202H105.217V3.65731C105.217 3.3799 105.156 3.17042 105.034 3.01756C104.911 2.86753 104.731 2.7911 104.489 2.7911C104.308 2.7911 104.138 2.83356 103.982 2.91849C103.824 3.00341 103.676 3.11947 103.537 3.26667V6.52201H102.499Z" fill="var(--fill-0, white)"/>
<path id="path314" d="M109.835 2.89867C109.807 2.94397 109.78 2.97793 109.749 2.99492C109.718 3.01473 109.677 3.02322 109.632 3.02322C109.579 3.02322 109.526 3.00907 109.468 2.98077C109.412 2.95246 109.346 2.91849 109.27 2.88169C109.193 2.84489 109.106 2.81375 109.012 2.78262C108.914 2.75431 108.8 2.73732 108.667 2.73732C108.464 2.73732 108.302 2.78545 108.183 2.87603C108.066 2.96661 108.007 3.08551 108.007 3.2327C108.007 3.32895 108.038 3.40821 108.099 3.47332C108.158 3.53842 108.238 3.59787 108.339 3.64882C108.439 3.69694 108.55 3.74224 108.675 3.78187C108.803 3.8215 108.931 3.86395 109.062 3.90925C109.195 3.95737 109.323 4.01116 109.448 4.0706C109.576 4.13005 109.688 4.20931 109.788 4.29989C109.888 4.39047 109.966 4.50087 110.027 4.63109C110.088 4.75847 110.119 4.91416 110.119 5.09533C110.119 5.31329 110.08 5.51145 110.005 5.69544C109.93 5.87944 109.818 6.03513 109.671 6.16818C109.526 6.30405 109.346 6.40596 109.131 6.47955C108.92 6.55598 108.672 6.59278 108.394 6.59278C108.247 6.59278 108.102 6.57863 107.957 6.55033C107.818 6.52485 107.682 6.48522 107.551 6.43427C107.421 6.38331 107.301 6.3267 107.192 6.25876C107.081 6.19082 106.984 6.11722 106.898 6.04079L107.137 5.62751C107.167 5.57938 107.206 5.53975 107.248 5.51145C107.29 5.4888 107.343 5.47465 107.407 5.47465C107.471 5.47465 107.532 5.49446 107.59 5.52843C107.646 5.56807 107.713 5.61052 107.791 5.65299C107.866 5.69828 107.952 5.73791 108.055 5.77754C108.158 5.81434 108.288 5.83416 108.444 5.83416C108.569 5.83416 108.675 5.81717 108.764 5.78886C108.85 5.7549 108.923 5.71527 108.981 5.66714C109.037 5.61619 109.078 5.55957 109.106 5.49447C109.134 5.42653 109.145 5.35859 109.145 5.28782C109.145 5.18309 109.117 5.09816 109.056 5.03023C108.995 4.96229 108.917 4.90567 108.817 4.85472C108.72 4.8066 108.603 4.75848 108.475 4.71885C108.35 4.68205 108.219 4.63959 108.085 4.59146C107.952 4.54334 107.821 4.48956 107.693 4.42728C107.568 4.365 107.451 4.28574 107.354 4.18667C107.256 4.09042 107.176 3.97436 107.115 3.83283C107.056 3.69129 107.026 3.52145 107.026 3.3233C107.026 3.1393 107.059 2.96379 107.128 2.79678C107.201 2.62976 107.304 2.4854 107.437 2.36085C107.574 2.23629 107.743 2.13721 107.946 2.06362C108.149 1.98719 108.383 1.95039 108.65 1.95039C108.948 1.95039 109.22 2.00134 109.462 2.10325C109.704 2.20515 109.908 2.34103 110.072 2.50804L109.835 2.89867Z" fill="var(--fill-0, white)"/>
<path id="path316" d="M112.367 6.59278C111.994 6.59278 111.707 6.48239 111.504 6.26159C111.304 6.04079 111.201 5.73507 111.201 5.34726V2.83074H110.764C110.709 2.83074 110.661 2.81375 110.62 2.77412C110.581 2.73732 110.558 2.6807 110.558 2.60427V2.174L111.251 2.05511L111.471 0.826572C111.482 0.767128 111.507 0.724666 111.549 0.690697C111.591 0.656732 111.641 0.639744 111.702 0.639744H112.239V2.06077H113.376V2.83073H112.239V5.27083C112.239 5.41236 112.275 5.52276 112.342 5.59919C112.408 5.67845 112.497 5.71808 112.611 5.71808C112.675 5.71808 112.728 5.71243 112.773 5.69544C112.817 5.67845 112.853 5.66147 112.887 5.64731C112.917 5.6275 112.948 5.61051 112.973 5.59353C112.995 5.57938 113.023 5.57088 113.045 5.57088C113.079 5.57088 113.104 5.57938 113.123 5.59353C113.143 5.61051 113.162 5.63316 113.187 5.66713L113.496 6.19364C113.346 6.32386 113.171 6.42293 112.976 6.4937C112.778 6.55881 112.578 6.59278 112.367 6.59278Z" fill="var(--fill-0, white)"/>
<path id="path318" d="M115.31 6.52202H114.269V2.02115H115.31V6.52202ZM115.466 0.707684C115.466 0.801098 115.446 0.888851 115.41 0.970942C115.374 1.05303 115.324 1.1238 115.265 1.18608C115.204 1.24836 115.132 1.29648 115.054 1.33328C114.97 1.37007 114.884 1.38706 114.79 1.38706C114.701 1.38706 114.617 1.37007 114.539 1.33328C114.459 1.29648 114.389 1.24835 114.331 1.18608C114.272 1.1238 114.225 1.05303 114.189 0.970942C114.153 0.888851 114.136 0.801098 114.136 0.707684C114.136 0.611438 114.153 0.520855 114.189 0.435933C114.225 0.351011 114.272 0.277412 114.331 0.215136C114.389 0.155691 114.459 0.104737 114.539 0.0679374C114.617 0.0311387 114.701 0.0141534 114.79 0.0141534C114.884 0.0141534 114.97 0.0311387 115.054 0.0679374C115.132 0.104736 115.204 0.15569 115.265 0.215136C115.324 0.277414 115.374 0.351011 115.41 0.435933C115.446 0.520855 115.466 0.611438 115.466 0.707684Z" fill="var(--fill-0, white)"/>
<path id="path320" d="M117.897 6.59278C117.524 6.59278 117.238 6.48239 117.035 6.26159C116.834 6.04079 116.731 5.73507 116.731 5.34726V2.83074H116.295C116.239 2.83074 116.192 2.81375 116.15 2.77412C116.111 2.73732 116.089 2.6807 116.089 2.60427V2.174L116.784 2.05511L117.004 0.826572C117.012 0.767128 117.037 0.724666 117.079 0.690697C117.121 0.656732 117.171 0.639744 117.232 0.639744H117.772V2.06077H118.907V2.83073H117.772V5.27083C117.772 5.41236 117.805 5.52276 117.872 5.59919C117.941 5.67845 118.028 5.71808 118.142 5.71808C118.206 5.71808 118.259 5.71243 118.303 5.69544C118.345 5.67845 118.384 5.66147 118.417 5.64731C118.448 5.6275 118.478 5.61051 118.503 5.59353C118.526 5.57938 118.553 5.57088 118.579 5.57088C118.609 5.57088 118.634 5.57938 118.654 5.59353C118.673 5.61051 118.695 5.63316 118.718 5.66713L119.026 6.19364C118.876 6.32386 118.701 6.42293 118.506 6.4937C118.311 6.55881 118.108 6.59278 117.897 6.59278Z" fill="var(--fill-0, white)"/>
<path id="path322" d="M120.684 2.01832V4.88019C120.684 5.15477 120.746 5.36708 120.868 5.51994C120.988 5.66997 121.171 5.7464 121.416 5.7464C121.594 5.7464 121.764 5.70394 121.919 5.61901C122.075 5.53692 122.225 5.42369 122.365 5.27649V2.01832H123.405V6.52202H122.768C122.634 6.52202 122.545 6.45691 122.504 6.32387L122.431 5.96436C122.342 6.05778 122.251 6.14553 122.156 6.22196C122.059 6.30122 121.958 6.36633 121.85 6.41728C121.744 6.4739 121.627 6.51352 121.502 6.54749C121.377 6.5758 121.243 6.59279 121.102 6.59279C120.865 6.59279 120.657 6.55033 120.476 6.46823C120.295 6.38614 120.142 6.26725 120.019 6.11439C119.897 5.96153 119.802 5.78036 119.741 5.57089C119.677 5.36425 119.647 5.13213 119.647 4.88019V2.01832H120.684Z" fill="var(--fill-0, white)"/>
<path id="path324" d="M125.928 6.59278C125.555 6.59278 125.269 6.48239 125.068 6.26159C124.865 6.04079 124.765 5.73507 124.765 5.34726V2.83074H124.326C124.273 2.83074 124.223 2.81375 124.184 2.77412C124.142 2.73732 124.123 2.6807 124.123 2.60427V2.174L124.815 2.05511L125.035 0.826572C125.046 0.767128 125.071 0.724666 125.11 0.690697C125.152 0.656732 125.205 0.639744 125.266 0.639744H125.803V2.06077H126.938V2.83073H125.803V5.27083C125.803 5.41236 125.839 5.52276 125.903 5.59919C125.973 5.67845 126.059 5.71808 126.173 5.71808C126.237 5.71808 126.29 5.71243 126.334 5.69544C126.379 5.67845 126.415 5.66147 126.448 5.64731C126.482 5.6275 126.509 5.61051 126.535 5.59353C126.56 5.57938 126.585 5.57088 126.61 5.57088C126.64 5.57088 126.665 5.57938 126.685 5.59353C126.704 5.61051 126.727 5.63316 126.749 5.66713L127.06 6.19364C126.907 6.32386 126.735 6.42293 126.537 6.4937C126.343 6.55881 126.14 6.59278 125.928 6.59278Z" fill="var(--fill-0, white)"/>
<path id="path326" d="M129.569 2.726C129.266 2.726 129.03 2.81375 128.86 2.99209C128.688 3.17325 128.579 3.42519 128.532 3.75356H130.482C130.482 3.61485 130.463 3.47897 130.426 3.35442C130.39 3.2327 130.335 3.1223 130.259 3.02889C130.184 2.93547 130.087 2.86187 129.973 2.80809C129.859 2.75431 129.722 2.726 129.569 2.726ZM129.547 1.95038C129.82 1.95038 130.07 1.99567 130.298 2.08625C130.527 2.17684 130.724 2.30988 130.888 2.48256C131.055 2.65523 131.183 2.87037 131.275 3.12513C131.369 3.37707 131.414 3.6658 131.414 3.99134C131.414 4.07343 131.411 4.13854 131.403 4.19515C131.397 4.24894 131.383 4.2914 131.364 4.3197C131.347 4.35084 131.322 4.37349 131.292 4.38764C131.261 4.39897 131.225 4.40745 131.175 4.40745H128.51C128.54 4.86886 128.66 5.20855 128.866 5.42369C129.074 5.64165 129.35 5.75205 129.692 5.75205C129.859 5.75205 130.006 5.72941 130.126 5.68695C130.248 5.64732 130.354 5.60486 130.446 5.5539C130.538 5.50295 130.616 5.45766 130.685 5.4152C130.755 5.37557 130.821 5.35576 130.883 5.35576C130.927 5.35576 130.963 5.36425 130.994 5.38123C131.024 5.39822 131.052 5.42369 131.075 5.45483L131.378 5.85114C131.261 5.98984 131.133 6.10873 130.991 6.20498C130.846 6.30122 130.699 6.37482 130.543 6.43144C130.387 6.48806 130.229 6.53051 130.068 6.55316C129.906 6.5758 129.75 6.58996 129.597 6.58996C129.297 6.58996 129.019 6.53617 128.763 6.43143C128.504 6.32953 128.279 6.17384 128.09 5.97002C127.9 5.76904 127.75 5.51711 127.642 5.21705C127.53 4.91699 127.475 4.56881 127.475 4.17534C127.475 3.86679 127.525 3.57805 127.619 3.30913C127.714 3.03738 127.85 2.80243 128.028 2.60145C128.206 2.40047 128.423 2.24195 128.679 2.12305C128.938 2.00983 129.227 1.95038 129.547 1.95038Z" fill="var(--fill-0, white)"/>
<path id="path328" d="M65.8989 16.3617V12.676L65.5261 12.6166C65.4454 12.5996 65.3787 12.5713 65.3286 12.5288C65.2813 12.4835 65.2563 12.4213 65.2563 12.342V11.9004H65.8989V11.5664C65.8989 11.3088 65.9378 11.0767 66.0101 10.8729C66.0853 10.669 66.191 10.4935 66.3301 10.3492C66.4691 10.2076 66.6388 10.0972 66.8364 10.0208C67.0366 9.94437 67.2592 9.90757 67.5096 9.90757C67.7071 9.90757 67.8935 9.93305 68.0631 9.98967L68.0437 10.5332C68.038 10.6181 67.9992 10.6719 67.9296 10.6945C67.8601 10.7143 67.7766 10.7228 67.6848 10.7228C67.5624 10.7228 67.4512 10.737 67.3566 10.7625C67.2564 10.7936 67.1786 10.8417 67.109 10.9097C67.0423 10.9804 66.9894 11.0682 66.956 11.1814C66.9198 11.2946 66.9032 11.4333 66.9032 11.6004V11.9004H68.027V12.6732H66.9365V16.3617H65.8989Z" fill="var(--fill-0, white)"/>
<path id="path330" d="M70.5 15.5945C70.8617 15.5945 71.1232 15.47 71.2984 15.218C71.4709 14.9661 71.5571 14.5981 71.5571 14.1112C71.5571 13.6243 71.4709 13.2535 71.2984 13.0016C71.1232 12.7468 70.8617 12.6194 70.5 12.6194C70.1356 12.6194 69.8685 12.7468 69.6933 13.0016C69.5208 13.2592 69.4346 13.63 69.4346 14.1112C69.4346 14.5953 69.5208 14.9633 69.6933 15.2152C69.8685 15.4671 70.1356 15.5945 70.5 15.5945ZM70.5 11.79C70.8227 11.79 71.1148 11.8466 71.3763 11.9514C71.6406 12.0589 71.8631 12.2146 72.0467 12.4128C72.2331 12.6109 72.3778 12.8544 72.4779 13.1403C72.5753 13.429 72.6281 13.7489 72.6281 14.1027C72.6281 14.4594 72.5753 14.7793 72.4779 15.068C72.3778 15.3539 72.2331 15.6002 72.0467 15.8012C71.8631 16.0022 71.6406 16.1578 71.3763 16.2654C71.1148 16.373 70.8227 16.4296 70.5 16.4296C70.1801 16.4296 69.888 16.373 69.6237 16.2654C69.3595 16.1578 69.1341 16.0022 68.9478 15.8012C68.7614 15.6002 68.6167 15.3539 68.5138 15.068C68.4136 14.7793 68.3636 14.4594 68.3636 14.1027C68.3636 13.7489 68.4136 13.429 68.5138 13.1403C68.6167 12.8544 68.7614 12.6109 68.9478 12.4128C69.1341 12.2146 69.3595 12.0589 69.6237 11.9514C69.888 11.8466 70.1801 11.79 70.5 11.79Z" fill="var(--fill-0, white)"/>
<path id="path332" d="M73.4404 16.3617V11.8608H74.0496C74.1554 11.8608 74.2305 11.8806 74.2722 11.9231C74.3139 11.9627 74.3418 12.0335 74.3556 12.1325L74.4168 12.676C74.5726 12.3986 74.7534 12.1778 74.9593 12.0193C75.1679 11.8551 75.4016 11.7759 75.6575 11.7759C75.8717 11.7759 76.0498 11.8268 76.1888 11.9287L76.0525 12.7411C76.0442 12.7949 76.0275 12.8317 75.9969 12.8544C75.9691 12.877 75.933 12.8883 75.8856 12.8883C75.8439 12.8883 75.7855 12.877 75.7132 12.8572C75.6408 12.8346 75.5435 12.8261 75.4239 12.8261C75.2069 12.8261 75.0233 12.8883 74.8675 13.0101C74.7145 13.1374 74.5837 13.3186 74.478 13.5592V16.3617L73.4404 16.3617Z" fill="var(--fill-0, white)"/>
<path id="path334" d="M82.5426 10.0151V12.7468H79.694V10.0151H78.5534V16.3617H79.694V13.5904H82.5426V16.3617H83.6831V10.0151H82.5426Z" fill="var(--fill-0, white)"/>
<path id="path336" d="M86.6541 12.5656C86.3509 12.5656 86.1145 12.6562 85.942 12.8346C85.7723 13.0129 85.6638 13.2648 85.6137 13.5932H87.5666C87.5666 13.4545 87.5471 13.3186 87.511 13.1969C87.4748 13.0723 87.4164 12.9648 87.344 12.8714C87.2662 12.7751 87.1716 12.7015 87.0547 12.6477C86.9435 12.5939 86.8071 12.5656 86.6541 12.5656ZM86.6319 11.79C86.9045 11.79 87.1549 11.8353 87.383 11.9259C87.6084 12.0165 87.8059 12.1495 87.9728 12.3222C88.1397 12.4977 88.2677 12.71 88.3595 12.9648C88.454 13.2139 88.4986 13.5054 88.4986 13.831C88.4986 13.9131 88.4957 13.981 88.4874 14.0348C88.4817 14.0886 88.468 14.131 88.4485 14.1622C88.4318 14.1933 88.4068 14.2131 88.3762 14.2273C88.3455 14.2386 88.3066 14.2471 88.2593 14.2471H85.5943C85.625 14.7085 85.7445 15.0482 85.9504 15.2633C86.159 15.4813 86.4317 15.5917 86.7738 15.5917C86.9435 15.5917 87.0882 15.569 87.2106 15.5294C87.333 15.487 87.4387 15.4445 87.5305 15.3935C87.6223 15.3426 87.7002 15.2973 87.7697 15.2577C87.8365 15.218 87.9033 15.1954 87.9672 15.1954C88.0117 15.1954 88.0479 15.2039 88.0785 15.2209C88.1091 15.2378 88.1341 15.2633 88.1592 15.2973L88.4596 15.6908C88.3456 15.8323 88.2176 15.9484 88.0729 16.0446C87.9311 16.1409 87.7809 16.2145 87.6251 16.2739C87.4721 16.3305 87.3135 16.3701 87.1522 16.3928C86.9908 16.4154 86.835 16.4268 86.682 16.4268C86.3816 16.4268 86.1034 16.3758 85.8475 16.2739C85.5888 16.1692 85.3634 16.0135 85.1743 15.8125C84.9823 15.6087 84.8349 15.3567 84.7236 15.0567C84.6151 14.7566 84.5595 14.4084 84.5595 14.015C84.5595 13.7064 84.6068 13.4177 84.7041 13.1488C84.7987 12.877 84.935 12.6421 85.1131 12.4411C85.2911 12.2401 85.5081 12.0816 85.764 11.9655C86.02 11.8495 86.312 11.79 86.6319 11.79Z" fill="var(--fill-0, white)"/>
<path id="path338" d="M90.7045 15.6851C90.8102 15.6851 90.9076 15.6766 90.9966 15.6568C91.0884 15.637 91.1746 15.6059 91.2525 15.5662C91.3332 15.5266 91.4111 15.4756 91.4834 15.4162C91.5585 15.3567 91.6336 15.2888 91.7087 15.2067V14.4537C91.4055 14.4537 91.1552 14.4736 90.9493 14.516C90.7462 14.5528 90.5849 14.6038 90.4597 14.666C90.3373 14.7283 90.2511 14.7991 90.1982 14.8812C90.1481 14.9633 90.1203 15.0567 90.1203 15.1529C90.1203 15.3426 90.1759 15.4813 90.2817 15.5634C90.3902 15.6455 90.5292 15.6851 90.7045 15.6851ZM92.7213 16.3617H92.254C92.1566 16.3617 92.0787 16.3475 92.0231 16.3164C91.9702 16.2852 91.9257 16.223 91.8979 16.1295L91.8061 15.8097C91.6948 15.9116 91.5891 16.0022 91.4834 16.0814C91.3777 16.1578 91.2692 16.2201 91.1579 16.2739C91.0467 16.3277 90.927 16.3645 90.8019 16.3928C90.6767 16.4183 90.5348 16.4324 90.3818 16.4324C90.1982 16.4324 90.0313 16.4069 89.8755 16.356C89.7225 16.305 89.5918 16.2286 89.4805 16.1267C89.3664 16.022 89.283 15.8946 89.2218 15.7417C89.1606 15.5889 89.1272 15.4105 89.1272 15.2095C89.1272 15.0369 89.1717 14.8699 89.2552 14.7057C89.3414 14.5387 89.4833 14.3886 89.6836 14.2556C89.8839 14.1225 90.1481 14.0093 90.4764 13.9244C90.8074 13.8338 91.2191 13.7914 91.7087 13.7914V13.5253C91.7087 13.2224 91.6476 12.9959 91.5251 12.8515C91.4055 12.7072 91.2275 12.6336 90.9966 12.6336C90.8269 12.6336 90.685 12.6534 90.5738 12.693C90.4625 12.7355 90.3651 12.7808 90.2817 12.8317C90.201 12.8855 90.1231 12.928 90.0535 12.9704C89.984 13.0129 89.9061 13.0327 89.8227 13.0327C89.7503 13.0327 89.6919 13.0129 89.6418 12.9733C89.5918 12.9365 89.5528 12.8912 89.5194 12.8346L89.3303 12.4864C89.8254 12.0137 90.4235 11.7759 91.1246 11.7759C91.3777 11.7759 91.6002 11.8183 91.7978 11.9061C91.9981 11.991 92.165 12.1127 92.3013 12.2656C92.4404 12.4213 92.5433 12.6024 92.6156 12.8176C92.6852 13.0299 92.7213 13.2648 92.7213 13.5196V16.3617Z" fill="var(--fill-0, white)"/>
<path id="path340" d="M93.809 16.3617H94.8494V9.84247H93.809V16.3617Z" fill="var(--fill-0, white)"/>
<path id="path342" d="M97.4365 16.4324C97.0638 16.4324 96.7772 16.322 96.5742 16.1012C96.3739 15.8804 96.2709 15.5747 96.2709 15.1869V12.6732H95.8342C95.7813 12.6732 95.7313 12.6534 95.6895 12.6166C95.6506 12.577 95.6311 12.5203 95.6311 12.4439V12.0136L96.3238 11.8947L96.5408 10.6662C96.5547 10.6068 96.5797 10.5615 96.6187 10.5303C96.6604 10.4964 96.7105 10.4822 96.7717 10.4822H97.3114V11.9004H98.4464V12.6732H97.3114V15.1105C97.3114 15.252 97.3448 15.3624 97.4115 15.4388C97.4811 15.5181 97.5673 15.5577 97.6813 15.5577C97.7453 15.5577 97.7982 15.5521 97.8427 15.5351C97.8872 15.5181 97.9261 15.5039 97.9567 15.487C97.9874 15.4671 98.0179 15.4502 98.043 15.4332C98.0681 15.419 98.093 15.4105 98.1181 15.4105C98.1487 15.4105 98.1737 15.419 98.1932 15.4332C98.2126 15.4502 98.2349 15.4728 98.2572 15.5068L98.5687 16.0333C98.4157 16.1635 98.2433 16.2654 98.0457 16.3333C97.851 16.3984 97.6479 16.4324 97.4365 16.4324Z" fill="var(--fill-0, white)"/>
<path id="path344" d="M99.2753 16.3617V9.84247H100.313V12.3477C100.48 12.1807 100.666 12.0448 100.867 11.9429C101.07 11.841 101.306 11.7872 101.579 11.7872C101.812 11.7872 102.021 11.8325 102.205 11.9146C102.385 11.9967 102.538 12.1155 102.661 12.2656C102.78 12.4156 102.875 12.5968 102.939 12.8062C103 13.0129 103.034 13.245 103.034 13.4969V16.3617H101.993V13.4969C101.993 13.2224 101.932 13.0101 101.81 12.8572C101.687 12.7072 101.506 12.6307 101.262 12.6307C101.084 12.6307 100.914 12.676 100.758 12.7581C100.599 12.8459 100.452 12.9591 100.313 13.1063V16.3617H99.2753Z" fill="var(--fill-0, white)"/>
<path id="path346" d="M106.903 13.0355H107.61C107.821 13.0355 108.008 13.0101 108.166 12.9534C108.325 12.8968 108.453 12.8204 108.556 12.7213C108.658 12.6251 108.734 12.5062 108.784 12.3731C108.836 12.2401 108.862 12.0901 108.862 11.9287C108.862 11.606 108.759 11.3597 108.556 11.1899C108.352 11.0144 108.044 10.9295 107.626 10.9295H106.903V13.0355ZM106.903 13.8848V16.3617H105.771V10.018H107.626C108.041 10.018 108.394 10.0604 108.689 10.151C108.987 10.2388 109.229 10.3662 109.418 10.5275C109.607 10.686 109.746 10.8785 109.835 11.1021C109.921 11.3258 109.966 11.572 109.966 11.841C109.966 12.0561 109.935 12.2571 109.874 12.4467C109.816 12.6364 109.729 12.8119 109.615 12.9648C109.501 13.1205 109.362 13.2563 109.195 13.3752C109.028 13.4913 108.839 13.5847 108.625 13.6555C108.767 13.7404 108.892 13.8621 108.995 14.0178L110.517 16.3617H109.501C109.401 16.3617 109.318 16.3418 109.248 16.2994C109.181 16.2597 109.123 16.2003 109.076 16.1267L107.796 14.0942C107.749 14.0178 107.699 13.964 107.64 13.9301C107.582 13.8989 107.498 13.8848 107.387 13.8848L106.903 13.8848Z" fill="var(--fill-0, white)"/>
<path id="path348" d="M112.984 12.5656C112.681 12.5656 112.445 12.6562 112.272 12.8346C112.102 13.0129 111.994 13.2648 111.947 13.5932H113.897C113.897 13.4545 113.877 13.3186 113.841 13.1969C113.805 13.0723 113.749 12.9648 113.674 12.8714C113.599 12.7751 113.502 12.7015 113.388 12.6477C113.274 12.5939 113.137 12.5656 112.984 12.5656ZM112.962 11.79C113.235 11.79 113.485 11.8353 113.713 11.9259C113.941 12.0165 114.139 12.1495 114.303 12.3222C114.47 12.4977 114.598 12.71 114.69 12.9648C114.784 13.2139 114.829 13.5054 114.829 13.831C114.829 13.9131 114.826 13.981 114.818 14.0348C114.812 14.0886 114.798 14.131 114.781 14.1622C114.762 14.1933 114.737 14.2131 114.706 14.2273C114.676 14.2386 114.639 14.2471 114.589 14.2471H111.924C111.955 14.7085 112.075 15.0482 112.28 15.2633C112.489 15.4813 112.764 15.5917 113.107 15.5917C113.274 15.5917 113.421 15.569 113.541 15.5294C113.663 15.487 113.772 15.4445 113.861 15.3935C113.952 15.3426 114.03 15.2973 114.1 15.2577C114.169 15.218 114.236 15.1954 114.297 15.1954C114.342 15.1954 114.378 15.2039 114.409 15.2209C114.439 15.2378 114.467 15.2633 114.489 15.2973L114.792 15.6908C114.676 15.8323 114.548 15.9484 114.403 16.0446C114.261 16.1409 114.114 16.2145 113.958 16.2739C113.802 16.3305 113.644 16.3701 113.482 16.3928C113.321 16.4154 113.165 16.4268 113.015 16.4268C112.712 16.4268 112.436 16.3758 112.178 16.2739C111.919 16.1692 111.693 16.0135 111.504 15.8125C111.315 15.6087 111.165 15.3567 111.054 15.0567C110.945 14.7566 110.89 14.4084 110.89 14.015C110.89 13.7064 110.94 13.4177 111.034 13.1488C111.129 12.877 111.265 12.6421 111.443 12.4411C111.621 12.2401 111.838 12.0816 112.097 11.9655C112.35 11.8495 112.642 11.79 112.962 11.79Z" fill="var(--fill-0, white)"/>
<path id="path350" d="M118.234 12.7383C118.206 12.7864 118.175 12.8176 118.145 12.8374C118.114 12.8572 118.075 12.8657 118.028 12.8657C117.978 12.8657 117.922 12.8487 117.866 12.8204C117.808 12.7921 117.741 12.7581 117.666 12.7242C117.591 12.6874 117.505 12.6534 117.407 12.6223C117.31 12.5939 117.196 12.5798 117.065 12.5798C116.859 12.5798 116.698 12.6251 116.581 12.7157C116.464 12.8063 116.406 12.9251 116.406 13.0723C116.406 13.1686 116.436 13.2478 116.495 13.313C116.556 13.3781 116.637 13.4375 116.734 13.4885C116.834 13.5366 116.946 13.5819 117.074 13.6243C117.199 13.664 117.329 13.7036 117.46 13.7517C117.591 13.7998 117.722 13.8508 117.847 13.9102C117.972 13.9697 118.086 14.0489 118.183 14.1395C118.284 14.2329 118.364 14.3433 118.423 14.4736C118.484 14.6009 118.515 14.7538 118.515 14.935C118.515 15.1529 118.478 15.3511 118.403 15.5351C118.325 15.7191 118.214 15.8748 118.069 16.0078C117.925 16.1437 117.744 16.2456 117.53 16.322C117.316 16.3956 117.068 16.4324 116.793 16.4324C116.642 16.4324 116.498 16.4183 116.356 16.39C116.214 16.3645 116.078 16.3249 115.947 16.2739C115.819 16.2258 115.699 16.1663 115.585 16.1012C115.477 16.0305 115.379 15.9597 115.296 15.8804L115.535 15.4671C115.566 15.419 115.602 15.3794 115.646 15.3539C115.685 15.3256 115.738 15.3143 115.805 15.3143C115.869 15.3143 115.927 15.3341 115.986 15.3681C116.044 15.4105 116.111 15.4502 116.186 15.4926C116.261 15.5379 116.35 15.5775 116.453 15.6172C116.556 15.6568 116.684 15.6738 116.84 15.6738C116.965 15.6738 117.071 15.6596 117.16 15.6285C117.246 15.5974 117.321 15.5577 117.377 15.5068C117.435 15.4587 117.477 15.3992 117.505 15.3341C117.53 15.2662 117.544 15.1982 117.544 15.1275C117.544 15.0256 117.513 14.9378 117.455 14.8699C117.393 14.8048 117.313 14.7453 117.213 14.6944C117.115 14.6462 117.001 14.6009 116.873 14.5613C116.745 14.5217 116.615 14.4792 116.484 14.4311C116.35 14.3858 116.22 14.3292 116.092 14.2669C115.966 14.2046 115.85 14.1254 115.752 14.0291C115.652 13.9329 115.571 13.814 115.513 13.6725C115.449 13.5338 115.421 13.3611 115.421 13.1629C115.421 12.9789 115.457 12.8034 115.527 12.6364C115.596 12.4694 115.699 12.325 115.836 12.2005C115.972 12.0759 116.139 11.9768 116.345 11.9033C116.548 11.8268 116.781 11.79 117.048 11.79C117.343 11.79 117.616 11.841 117.858 11.9457C118.103 12.0448 118.306 12.1807 118.47 12.3477L118.234 12.7383Z" fill="var(--fill-0, white)"/>
<path id="path352" d="M121.149 12.5656C120.848 12.5656 120.609 12.6562 120.44 12.8346C120.27 13.0129 120.159 13.2648 120.111 13.5932H122.061C122.061 13.4545 122.042 13.3186 122.009 13.1969C121.97 13.0723 121.914 12.9648 121.839 12.8714C121.764 12.7751 121.669 12.7015 121.552 12.6477C121.438 12.5939 121.305 12.5656 121.149 12.5656ZM121.129 11.79C121.402 11.79 121.652 11.8353 121.881 11.9259C122.109 12.0165 122.306 12.1495 122.47 12.3222C122.634 12.4977 122.765 12.71 122.857 12.9648C122.949 13.2139 122.996 13.5054 122.996 13.831C122.996 13.9131 122.99 13.981 122.985 14.0348C122.977 14.0886 122.966 14.131 122.946 14.1622C122.929 14.1933 122.904 14.2131 122.874 14.2273C122.843 14.2386 122.804 14.2471 122.754 14.2471H120.092C120.122 14.7085 120.242 15.0482 120.448 15.2633C120.657 15.4813 120.932 15.5917 121.271 15.5917C121.441 15.5917 121.586 15.569 121.708 15.5294C121.828 15.487 121.933 15.4445 122.025 15.3935C122.117 15.3426 122.195 15.2973 122.267 15.2577C122.334 15.218 122.401 15.1954 122.465 15.1954C122.506 15.1954 122.543 15.2039 122.576 15.2209C122.607 15.2378 122.632 15.2633 122.657 15.2973L122.957 15.6908C122.843 15.8323 122.715 15.9484 122.57 16.0446C122.429 16.1409 122.278 16.2145 122.123 16.2739C121.97 16.3305 121.811 16.3701 121.65 16.3928C121.488 16.4154 121.333 16.4268 121.18 16.4268C120.879 16.4268 120.601 16.3758 120.345 16.2739C120.084 16.1692 119.861 16.0135 119.672 15.8125C119.48 15.6087 119.33 15.3567 119.218 15.0567C119.11 14.7566 119.057 14.4084 119.057 14.015C119.057 13.7064 119.104 13.4177 119.199 13.1488C119.296 12.877 119.43 12.6421 119.611 12.4411C119.789 12.2401 120.006 12.0816 120.262 11.9655C120.517 11.8495 120.807 11.79 121.129 11.79Z" fill="var(--fill-0, white)"/>
<path id="path354" d="M125.202 15.6851C125.308 15.6851 125.408 15.6766 125.494 15.6568C125.586 15.637 125.669 15.6059 125.75 15.5662C125.831 15.5266 125.909 15.4756 125.981 15.4162C126.056 15.3567 126.128 15.2888 126.206 15.2067V14.4537C125.903 14.4537 125.653 14.4736 125.447 14.516C125.244 14.5528 125.082 14.6038 124.957 14.666C124.835 14.7283 124.749 14.7991 124.696 14.8812C124.643 14.9633 124.618 15.0567 124.618 15.1529C124.618 15.3426 124.671 15.4813 124.779 15.5634C124.888 15.6455 125.03 15.6851 125.202 15.6851ZM127.219 16.3617H126.751C126.654 16.3617 126.576 16.3475 126.521 16.3164C126.465 16.2852 126.423 16.2229 126.395 16.1295L126.304 15.8097C126.192 15.9116 126.084 16.0022 125.981 16.0814C125.875 16.1578 125.767 16.2201 125.655 16.2739C125.544 16.3277 125.425 16.3645 125.299 16.3928C125.171 16.4183 125.032 16.4324 124.879 16.4324C124.696 16.4324 124.529 16.4069 124.373 16.356C124.217 16.305 124.086 16.2286 123.978 16.1267C123.864 16.022 123.78 15.8946 123.717 15.7417C123.655 15.5889 123.625 15.4105 123.625 15.2095C123.625 15.0369 123.669 14.8699 123.753 14.7057C123.839 14.5387 123.981 14.3886 124.181 14.2556C124.379 14.1225 124.646 14.0093 124.974 13.9244C125.305 13.8338 125.717 13.7914 126.206 13.7914V13.5253C126.206 13.2224 126.145 12.9959 126.023 12.8515C125.9 12.7072 125.725 12.6336 125.491 12.6336C125.324 12.6336 125.183 12.6534 125.071 12.693C124.96 12.7355 124.863 12.7808 124.779 12.8317C124.696 12.8855 124.621 12.928 124.548 12.9704C124.482 13.0129 124.404 13.0327 124.32 13.0327C124.248 13.0327 124.189 13.0129 124.139 12.9733C124.087 12.9365 124.048 12.8912 124.017 12.8346L123.828 12.4864C124.323 12.0136 124.921 11.7759 125.622 11.7759C125.872 11.7759 126.098 11.8183 126.295 11.9061C126.496 11.991 126.662 12.1127 126.799 12.2656C126.935 12.4213 127.041 12.6024 127.11 12.8176C127.185 13.0299 127.219 13.2648 127.219 13.5196V16.3617Z" fill="var(--fill-0, white)"/>
<path id="path356" d="M128.24 16.3617V11.8608H128.849C128.955 11.8608 129.03 11.8806 129.072 11.9231C129.116 11.9627 129.144 12.0335 129.155 12.1325L129.219 12.676C129.375 12.3986 129.553 12.1778 129.761 12.0193C129.967 11.8551 130.201 11.7759 130.46 11.7759C130.671 11.7759 130.849 11.8268 130.988 11.9287L130.855 12.7411C130.846 12.7949 130.827 12.8317 130.799 12.8544C130.771 12.877 130.735 12.8883 130.688 12.8883C130.643 12.8883 130.588 12.877 130.515 12.8572C130.44 12.8346 130.343 12.8261 130.223 12.8261C130.009 12.8261 129.823 12.8883 129.67 13.0101C129.517 13.1374 129.383 13.3186 129.277 13.5592V16.3617L128.24 16.3617Z" fill="var(--fill-0, white)"/>
<path id="path358" d="M134.705 12.8119C134.674 12.8515 134.644 12.8855 134.616 12.9082C134.585 12.9336 134.543 12.945 134.485 12.945C134.435 12.945 134.382 12.9251 134.332 12.8912C134.279 12.86 134.221 12.8232 134.148 12.7808C134.082 12.7355 133.995 12.6987 133.901 12.6647C133.803 12.6307 133.684 12.6166 133.539 12.6166C133.358 12.6166 133.2 12.6477 133.061 12.7185C132.924 12.7864 132.81 12.8855 132.719 13.0157C132.627 13.1431 132.56 13.2988 132.515 13.48C132.471 13.664 132.449 13.8706 132.449 14.1027C132.449 14.3433 132.471 14.5556 132.521 14.7425C132.571 14.9293 132.641 15.0878 132.732 15.2152C132.827 15.3426 132.938 15.4388 133.069 15.5039C133.2 15.569 133.35 15.603 133.514 15.603C133.681 15.603 133.815 15.5804 133.918 15.5407C134.018 15.4983 134.107 15.4502 134.173 15.3992C134.246 15.3482 134.307 15.303 134.357 15.2605C134.41 15.2152 134.468 15.1954 134.532 15.1954C134.616 15.1954 134.68 15.2294 134.721 15.2945L135.019 15.6936C134.905 15.8323 134.78 15.9484 134.646 16.0446C134.51 16.138 134.371 16.2145 134.229 16.2711C134.084 16.3305 133.934 16.3701 133.781 16.3928C133.625 16.4154 133.472 16.4268 133.322 16.4268C133.055 16.4268 132.805 16.3758 132.568 16.2711C132.335 16.1692 132.129 16.0163 131.954 15.8181C131.778 15.62 131.639 15.3766 131.536 15.0878C131.436 14.7991 131.386 14.4707 131.386 14.1027C131.386 13.7715 131.431 13.4658 131.522 13.1827C131.611 12.9025 131.745 12.6562 131.923 12.4496C132.098 12.2458 132.318 12.0816 132.577 11.9655C132.838 11.8495 133.139 11.79 133.478 11.79C133.798 11.79 134.082 11.8438 134.324 11.9514C134.568 12.0618 134.783 12.2146 134.977 12.4184L134.705 12.8119Z" fill="var(--fill-0, white)"/>
<path id="path360" d="M135.684 16.3617V9.84247H136.722V12.3477C136.889 12.1807 137.075 12.0448 137.275 11.9429C137.478 11.841 137.715 11.7872 137.987 11.7872C138.221 11.7872 138.432 11.8325 138.613 11.9146C138.794 11.9967 138.947 12.1155 139.069 12.2656C139.192 12.4156 139.284 12.5968 139.348 12.8062C139.412 13.0129 139.442 13.245 139.442 13.4969V16.3617H138.405V13.4969C138.405 13.2224 138.341 13.0101 138.221 12.8572C138.099 12.7072 137.915 12.6307 137.673 12.6307C137.492 12.6307 137.322 12.676 137.167 12.7581C137.011 12.8459 136.861 12.9591 136.722 13.1063V16.3617H135.684Z" fill="var(--fill-0, white)"/>
<path id="path362" d="M10.7407 0.141536V10.1114L3.24362 0.141536H0V16.3333H3.47451V6.04079L11.2191 16.3333H14.2124V0.141536H10.7407Z" fill="var(--fill-0, white)"/>
<path id="path364" d="M17.0248 16.3333H20.5438V0.141536H17.0248V16.3333Z" fill="var(--fill-0, white)"/>
<path id="path366" d="M33.3653 0.141536V6.66072H26.8753V0.141536H23.3563V16.3333H26.8753V10.1114H33.3653V16.3333H36.8843V0.141536H33.3653Z" fill="var(--fill-0, white)"/>
<path id="path368" d="M47.6779 6.65789L47.4998 6.66072H43.2214V3.35725H47.4998L47.6779 3.3629C48.4401 3.38555 49.5083 3.68843 49.5083 5.01039C49.5083 6.32951 48.4401 6.63241 47.6779 6.65789ZM49.486 9.52541C51.4973 9.09514 52.9856 7.5071 52.9856 4.89433C52.9856 1.98716 50.9994 0.232107 48.5208 0.150015V0.141523H39.6968V16.3333H43.2158V10.1114H45.8224L49.5667 16.3333H53.5948L49.486 9.52541Z" fill="var(--fill-0, white)"/>
<path id="path370" d="M58.8219 16.3617H60.2184V0.144368H58.8219V16.3617Z" fill="var(--fill-0, white)"/>
</g>
</svg>
