<svg overflow="visible" style="display: block;" viewBox="0 0 33.25 42.8682" fill="none" xmlns="http://www.w3.org/2000/svg" width="33.25" height="42.8682">
<g id="Vector">
<path d="M33.25 13.1682V37.715C33.25 38.2743 32.9653 38.7989 32.492 39.0997L26.5938 42.8682V16.0457L14.1511 8.3584C13.6663 8.06141 13.3739 7.53298 13.3739 6.96212V0L32.4728 11.772C32.9576 12.069 33.25 12.5974 33.25 13.1682Z" fill="white"/>
<path d="M19.1759 15.3784L0.0769498 3.60642V10.5724C0.0769498 11.1433 0.373206 11.6717 0.854143 11.9687L13.2969 19.6559V42.8682L19.1951 39.0997C19.6684 38.7989 19.9531 38.2782 19.9531 37.715V16.7747C19.9531 16.2038 19.6568 15.6754 19.1759 15.3784Z" fill="white"/>
<path d="M5.87896 18.9848L0 15.363V42.8682L5.8982 39.0997C6.37144 38.7989 6.65616 38.2782 6.65616 37.715V20.3811C6.65616 19.8102 6.3599 19.2818 5.87896 18.9848Z" fill="white"/>
</g>
</svg>
