<svg overflow="visible" style="display: block;" viewBox="0 0 68.5076 32.5" fill="none" xmlns="http://www.w3.org/2000/svg" width="68.5076" height="32.5">
<path id="Union" fill-rule="evenodd" clip-rule="evenodd" d="M23.6736 0H30.3439L36.8432 11.5673L39.9466 6.13208H46.5698L40.6984 16.4156H49.137V6.13208H59.3447C63.8894 6.13208 67.576 9.10797 67.576 13.6659C67.576 15.8508 66.719 17.5831 65.3036 18.8267C67.2414 20.0697 68.5076 22.1043 68.5076 24.7779C68.5076 29.4493 64.7451 32.5 60.0891 32.5H49.137V22.2165H40.6978L46.5698 32.5H39.9466L33.5437 21.2862L30.3439 26.9811H23.6736L29.5861 16.4585H22.9678C21.745 22.5893 16.7715 26.9811 10.5037 26.9811H0V0H10.5037C16.7715 0 21.7444 4.39241 22.9684 10.5226H29.5861L23.6736 0ZM6.00175 21.0453H10.5037C14.63 21.0453 17.4804 18.116 17.4804 13.4906C17.4804 8.86514 14.63 5.93585 10.5037 5.93585H6.00175V21.0453ZM59.434 11.6509H55.0507V16.5566H59.434C60.8176 16.5566 61.7791 15.5283 61.7791 14.1038C61.7791 12.6793 60.8555 11.6509 59.434 11.6509ZM55.0507 26.9811H59.9686C61.4366 26.9811 62.3908 25.9559 62.3908 24.5283C62.3908 23.1008 61.4366 22.0755 59.9686 22.0755H55.0507V26.9811Z" fill="var(--fill-0, white)"/>
</svg>
