<svg overflow="visible" style="display: block;" viewBox="0 0 103.293 29.9979" fill="none" xmlns="http://www.w3.org/2000/svg">
<g id="Vector">
<path d="M101.81 9.07457C98.1301 1.20254 88.766 -2.19512 80.8932 1.48369L80.2047 0.0096821C72.332 3.68849 68.9331 13.0514 72.6125 20.9234C76.2914 28.7954 85.6556 32.1931 93.5283 28.5143L94.2168 29.9874C102.09 26.3086 105.488 16.9457 101.81 9.07367V9.07457ZM90.7804 22.6369C86.1551 24.7982 80.6537 22.8009 78.4923 18.1767C76.3304 13.5516 78.3283 8.0511 82.9527 5.88972L83.6411 7.36197C88.267 5.20065 93.7678 7.19793 95.9297 11.8221C98.0911 16.4473 96.0937 21.9477 91.4689 24.1091L90.7804 22.6369Z" fill="var(--fill-0, white)"/>
<path d="M71.947 29.7408L54.8911 29.7416V29.7408H54.0876L51.7067 24.6349V0.250844H58.197V23.2523H68.9216L71.947 29.7408Z" fill="var(--fill-0, white)"/>
<path d="M35.547 0.24999L31.9671 7.92776L32.6607 9.4142L23.1815 29.739H30.3421L36.2406 17.092L42.1382 29.739H49.2979L49.2997 29.7381L35.547 0.24999Z" fill="var(--fill-0, white)"/>
<path d="M21.8696 20.4143C21.8696 20.4808 21.8696 20.5446 21.8678 20.6094C21.7632 25.6708 17.6271 29.739 12.5411 29.739H0L3.02552 23.2496H5.04873V23.2523H12.7327C13.5159 23.2523 14.2246 22.9348 14.7373 22.4222C15.2509 21.9087 15.5684 21.2001 15.5684 20.4169C15.5684 18.8507 14.2983 17.5815 12.7327 17.5815H12.6387C12.6059 17.5807 12.5739 17.5798 12.5411 17.5798H10.203C8.06362 17.5798 6.10424 16.818 4.59194 15.5319C2.77183 13.9861 1.59924 11.7024 1.53538 9.14456C1.53538 9.10821 1.53094 8.96012 1.53094 8.92107C1.53094 6.5265 2.5013 4.35894 4.07039 2.79004C5.63946 1.22113 7.80728 0.250877 10.2013 0.24999H22.9216L19.8934 6.73935H10.203C10.1906 6.73935 10.1782 6.73935 10.1658 6.74025H10.0398C9.43758 6.74025 8.89115 6.98414 8.49646 7.37967C8.10177 7.77436 7.85693 8.31979 7.85693 8.92287C7.85693 10.1281 8.8344 11.1046 10.0398 11.1046H12.7017C17.7797 11.1897 21.8696 15.3165 21.8696 20.4143Z" fill="var(--fill-0, white)"/>
</g>
</svg>
