<svg width="200" height="200" viewBox="0 0 200 200" fill="none" xmlns="http://www.w3.org/2000/svg">
  <style>
    .cc {
      fill: #ffffff;
    }
    @media (prefers-color-scheme: light) {
      .cc {
        fill: #060606;
      }
    }
  </style>
  <path
    class="cc"
    fill-rule="evenodd"
    clip-rule="evenodd"
    d="M61.7314 7.61263C80.004 0.0438895 100.111 -1.93628 119.509 1.9222C137.269 5.45496 153.705 13.7363 167.088 25.8431C169.136 27.6956 169.128 30.8719 167.176 32.8245L142.426 57.5726L142.427 57.5736L102.105 97.8949C100.95 99.0677 100.955 100.955 102.121 102.121L167.176 167.175C169.128 169.128 169.136 172.304 167.088 174.157C153.705 186.263 137.269 194.546 119.509 198.078C100.111 201.937 80.0039 199.957 61.7314 192.388C43.7445 184.938 28.3294 172.401 17.3711 156.326L16.8535 155.557C5.86548 139.112 7.56297e-05 119.778 0 100C9.0242e-06 80.5313 5.68318 61.4924 16.3418 45.2161L16.8535 44.4437C27.6699 28.2558 42.9721 15.5826 60.877 7.97103L61.7314 7.61263ZM115.607 21.5374C100.089 18.4506 84.0037 20.0353 69.3857 26.0902C54.7677 32.1452 42.2729 42.3991 33.4824 55.555C24.6921 68.7108 20 84.178 20 100C20.0001 115.823 24.6921 131.29 33.4824 144.446C42.2729 157.601 54.7678 167.855 69.3857 173.91C84.0037 179.965 100.089 181.55 115.607 178.463C123.193 176.954 130.475 174.36 137.245 170.797C138.981 169.884 139.276 167.56 137.89 166.173L126.856 155.14C126.257 154.541 125.346 154.387 124.573 154.734C120.473 156.576 116.159 157.961 111.705 158.847C100.43 161.09 88.7563 160.045 78.0703 155.849L77.0391 155.433C66.4183 151.034 57.2922 143.679 50.7383 134.253L50.1123 133.334C43.5195 123.467 40.0001 111.867 40 100C40 88.5043 43.3026 77.2582 49.5029 67.596L50.1123 66.6663C56.4991 57.1078 65.4924 49.5914 76.0156 45.0023L77.0391 44.5677C88.0025 40.0265 100.066 38.8386 111.705 41.1536C116.158 42.0395 120.472 43.4238 124.572 45.2645C125.346 45.6116 126.256 45.4581 126.855 44.8589L137.89 33.8255C139.276 32.4387 138.981 30.1147 137.245 29.2015C130.475 25.6392 123.192 23.0462 115.607 21.5374ZM107.804 60.7689C100.044 59.2255 92.0014 60.0177 84.6924 63.0452C77.3835 66.0728 71.1364 71.1998 66.7412 77.7777C62.3461 84.3556 60 92.0892 60 100C60.0001 107.911 62.3461 115.645 66.7412 122.223C71.1364 128.801 77.3836 133.928 84.6924 136.955C92.0014 139.983 100.045 140.775 107.804 139.232C108.944 139.005 109.323 137.608 108.501 136.786L85.8574 114.143C85.842 114.127 85.8269 114.111 85.8115 114.096L75.251 103.535C73.2985 101.583 73.2985 98.4168 75.251 96.4642L108.501 63.2144C109.323 62.3923 108.944 60.9957 107.804 60.7689Z"
  />
</svg>
